<?xml version="1.0" standalone="no"?>
<!DOCTYPE svg PUBLIC "-//W3C//DTD SVG 1.1//EN" "http://www.w3.org/Graphics/SVG/1.1/DTD/svg11.dtd" >
<svg xmlns="http://www.w3.org/2000/svg" xmlns:xlink="http://www.w3.org/1999/xlink" version="1.1">
<metadata></metadata>
<defs>
<font id="seoulhangangjungmregular" horiz-adv-x="900" >
<font-face units-per-em="1000" ascent="800" descent="-200" />
<missing-glyph horiz-adv-x="330" />
<glyph unicode=" "  horiz-adv-x="330" />
<glyph unicode="&#x09;" horiz-adv-x="330" />
<glyph unicode="&#xa0;" horiz-adv-x="330" />
<glyph unicode="!" horiz-adv-x="320" d="M111 717h107l-31 -570q-1 -21 -22.5 -21.5t-23.5 21.5zM165 -84q-27 0 -46 17t-19 45q0 26 18.5 43.5t46.5 18.5q27 0 45.5 -16.5t18.5 -45.5q0 -26 -17.5 -43.5t-46.5 -18.5z" />
<glyph unicode="&#x22;" horiz-adv-x="410" d="M73 753h94l-16 -221q-1 -17 -15.5 -24t-29 0t-15.5 24zM225 753h94l-18 -221q-1 -17 -15.5 -23.5t-29 0t-15.5 23.5z" />
<glyph unicode="#" horiz-adv-x="625" d="M158 211h-118l15 46h117l30 119h-123l16 46h121l53 222h67l-53 -222h117l54 222h67l-54 -222h118l-15 -46h-118l-30 -119h124l-16 -46h-122l-56 -220h-66l55 220h-117l-56 -220h-67zM239 257h117l29 119h-116z" />
<glyph unicode="$" horiz-adv-x="540" d="M239 -38q-86 3 -134 36t-56 89h91q0 -31 28 -55t71 -28v301q-26 7 -43 13t-46 21.5t-46.5 33.5t-31.5 48.5t-14 68.5q0 34 12.5 62t31.5 46t43.5 30.5t48 18.5t45.5 7v74h44v-74q73 0 121 -31t64 -91h-91q-3 43 -30 64t-64 21v-278q84 -27 118 -48q85 -52 85 -145 q0 -48 -18.5 -84.5t-49.5 -57t-64.5 -30.5t-70.5 -12v-79h-44v79zM239 617q-98 -14 -98 -133q0 -98 98 -131v264zM283 4q40 0 79 36.5t39 98.5q0 112 -118 153v-288z" />
<glyph unicode="%" horiz-adv-x="860" d="M505 627h54l-213 -636h-55zM188 195q-79 0 -117.5 60t-38.5 160q0 59 13 105t49.5 79.5t93.5 33.5q79 0 118.5 -55.5t39.5 -160.5q0 -41 -8 -78t-25 -70.5t-49 -53.5t-76 -20zM96 415q0 -180 92 -180q93 0 93 182q0 178 -93 178q-92 0 -92 -180zM666 -18q-80 0 -118.5 60 t-38.5 161q0 43 8 80t25 69t48.5 50.5t75.5 18.5q79 0 118.5 -55.5t39.5 -160.5q0 -56 -13 -103.5t-50.5 -83.5t-94.5 -36zM574 203q0 -180 92 -180q93 0 93 182q0 178 -93 178q-92 0 -92 -180z" />
<glyph unicode="&#x26;" horiz-adv-x="835" d="M314 429q-1 3 -8 15.5t-8 15t-6.5 13t-6.5 14t-4.5 12.5t-4.5 14t-2.5 13t-2 15t-0.5 15q0 36 25.5 64t77.5 28q45 0 70.5 -24.5t25.5 -64.5q0 -68 -156 -130zM288 25q-66 0 -102.5 41t-36.5 99q0 55 25.5 102t99.5 86q74 -131 187 -261q-30 -30 -80 -48.5t-93 -18.5z M250 398q-59 -33 -87 -57t-53 -56q-44 -57 -41 -133t50 -129q38 -43 103 -59t140.5 5.5t134.5 80.5q69 -75 147 -75q85 0 144 37v45q-18 -11 -56.5 -21.5t-62.5 -10.5q-34 0 -61 18t-58 56q12 11 23.5 27.5t20 29.5t19 35t15 32t14.5 33t12 27q16 37 28.5 46t51.5 9 q13 0 18 9t-0.5 17.5t-17.5 8.5h-213q-11 0 -15.5 -8.5t0 -17.5t15.5 -9q35 0 48.5 -12.5t13.5 -36.5q0 -32 -23.5 -78t-48.5 -70q-97 111 -173 244q102 44 145.5 83t43.5 97t-38 97.5t-111 39.5q-81 0 -131 -41.5t-50 -107.5q0 -63 53 -155z" />
<glyph unicode="'" horiz-adv-x="320" d="M112 753h97l-16 -221q-1 -17 -16.5 -24t-31 0t-16.5 24z" />
<glyph unicode="(" horiz-adv-x="330" d="M295 -152q-55 16 -94 62.5t-57.5 109.5t-26 120t-7.5 114q0 122 2 177q3 77 22.5 145.5t61 122t99.5 67.5v-36q-51 -26 -75.5 -116.5t-26.5 -199.5q-3 -65 0 -193q8 -291 102 -337v-36z" />
<glyph unicode=")" horiz-adv-x="330" d="M219 254q0 -57 -7.5 -114t-26 -120t-57.5 -109.5t-94 -62.5v36q94 46 102 337q3 128 0 193q-2 109 -26.5 199.5t-75.5 116.5v36q58 -14 99.5 -67.5t61 -122t22.5 -145.5q2 -55 2 -177z" />
<glyph unicode="*" horiz-adv-x="350" d="M63 445l98 108l-3 2l-146 -28v72l146 -30l3 3l-98 111l65 32l47 -137h2l48 137l65 -34l-98 -109l3 -3l145 30v-73l-146 27l-3 -3l97 -106l-65 -39l-47 142h-2l-44 -142z" />
<glyph unicode="+" horiz-adv-x="575" d="M252 302h-203v53h203v202h70v-202h203v-53h-203v-219h-70v219z" />
<glyph unicode="," horiz-adv-x="300" d="M88 -147q58 64 66 130q0 11 -4 15q-1 1 -19 4t-33.5 16t-15.5 40q-1 29 19.5 45.5t48.5 16.5q34 0 52.5 -22t18.5 -62q0 -47 -30.5 -101.5t-66.5 -81.5h-36z" />
<glyph unicode="-" horiz-adv-x="410" d="M50 360h308v-65h-308v65z" />
<glyph unicode="." horiz-adv-x="300" d="M150 -101q-27 0 -46.5 18.5t-20.5 46.5q0 28 19 47t49 19t47.5 -18t19.5 -48q0 -27 -18.5 -46t-49.5 -19z" />
<glyph unicode="/" horiz-adv-x="405" d="M317 755h61l-290 -906h-61z" />
<glyph unicode="0" horiz-adv-x="500" d="M251 -21q-57 0 -100 27.5t-68.5 77t-38 112.5t-12.5 140q0 67 11.5 126.5t36 112t68.5 83.5t102 31q77 0 128.5 -54t72 -130t20.5 -169q0 -69 -12 -130.5t-37 -113.5t-69 -82.5t-102 -30.5zM115 336q0 -55 6.5 -105t21 -97.5t43 -75.5t66.5 -28q39 0 67.5 29.5t42.5 77.5 t20.5 97.5t6.5 101.5q0 58 -7.5 110t-23.5 96.5t-43.5 71t-64.5 26.5q-39 0 -66.5 -26.5t-42 -72.5t-20.5 -96t-6 -109z" />
<glyph unicode="1" horiz-adv-x="500" d="M228 503q0 4 -0.5 13t-0.5 14q0 35 -16.5 46t-58.5 -2l-22 -8q-16 -5 -22.5 10t10.5 23l156 87h33v-700h-79v517z" />
<glyph unicode="2" horiz-adv-x="500" d="M43 33q21 17 42 39q45 43 105 116t99 137q32 51 47 91.5t15 97.5q0 53 -34 88t-100 35q-56 0 -91.5 -35.5t-33.5 -71.5h-52q3 23 14 47.5t31.5 51.5t58 44.5t85.5 17.5q96 0 151.5 -54.5t55.5 -151.5q0 -81 -70 -174q-57 -74 -134 -158.5t-111 -110.5h185q54 0 80 16.5 t37 71.5q2 9 10 11.5t14.5 -1t6.5 -10.5l-10 -138h-401v41z" />
<glyph unicode="3" horiz-adv-x="500" d="M47 550q8 53 52 94.5t136 44.5q80 0 143 -47t63 -130q0 -62 -32.5 -104.5t-83.5 -54.5v-2q125 -33 125 -176q0 -93 -73.5 -144.5t-182.5 -51.5q-73 0 -155 41v56q26 -16 67 -29t69 -13q35 0 65.5 7t59.5 23.5t46 48.5t17 77q0 54 -23 88.5t-64 41.5l-68 6q-20 0 -20 24.5 t20 24.5q39 1 56 3q38 6 65 36.5t27 96.5q0 62 -37 95t-100 33q-92 0 -122 -89h-50z" />
<glyph unicode="4" horiz-adv-x="500" d="M309 185h-289v55l286 449h79v-447h96v-57h-96v-194h-76v194zM90 242h219v336h-2z" />
<glyph unicode="5" horiz-adv-x="500" d="M139 380q10 6 29.5 12.5t48.5 13t65 4.5t68 -14q50 -19 81 -68.5t31 -114.5q0 -81 -45.5 -139.5t-116.5 -77.5q-52 -16 -105.5 -11.5t-88 14.5t-60.5 24v53q35 -20 95.5 -30t98.5 -2q137 27 137 174q0 93 -79 131q-41 19 -96 5t-79 -50h-59l19 374h331v-57h-263z" />
<glyph unicode="6" horiz-adv-x="500" d="M431 608q-133 50 -204 6q-106 -66 -106 -283q2 1 18 16.5t25 21.5t27.5 17t41 15.5t48.5 4.5q91 0 141.5 -57.5t52.5 -154.5q0 -98 -60 -156.5t-163 -58.5q-175 0 -206 196q-8 59 -8 142q0 114 34.5 209.5t108.5 134.5q50 28 122 27.5t128 -33.5v-47zM120 263 q1 -46 5.5 -80t17.5 -72.5t41.5 -60t71.5 -21.5q67 -1 101 45t34 116q0 69 -30 116t-89 47q-79 0 -152 -90z" />
<glyph unicode="7" horiz-adv-x="500" d="M376 623h-224q-36 0 -61 -42l-15 -45q-2 -13 -10.5 -17t-17 1t-8.5 16l5 137h418v-39l-244 -649h-81z" />
<glyph unicode="8" horiz-adv-x="500" d="M248 -22q-101 0 -158 52t-57 136q0 74 37 122.5t93 64.5v2q-115 33 -115 162q0 74 55 123t144 49q90 0 145.5 -46t55.5 -131q0 -62 -33 -102.5t-82 -54.5v-2q133 -43 133 -180q0 -89 -58.5 -142t-159.5 -53zM127 513q0 -55 31.5 -96.5t88.5 -41.5q120 0 120 138 q0 58 -32 95.5t-88 37.5t-88 -36t-32 -97zM117 171q0 -67 33.5 -107t96.5 -40q59 0 97.5 39t38.5 109q0 73 -37 116.5t-99 43.5q-60 0 -95 -45t-35 -116z" />
<glyph unicode="9" horiz-adv-x="500" d="M457 347q0 -262 -141 -338q-47 -28 -116 -28t-134 33v51q29 -12 62 -20t71 -7.5t63 14.5q90 49 108 175q2 13 5 105q-54 -54 -110 -63q-51 -12 -102.5 4t-90.5 69.5t-39 136.5q0 98 56 154.5t155 56.5q53 0 93 -21t62.5 -53t36 -79.5t17.5 -91.5t4 -98zM375 393 q0 17 -3 31q0 47 -10 93t-41 87t-79 41q-58 1 -92 -45t-34 -117q0 -72 30 -120.5t88 -48.5q44 0 84 25t57 54z" />
<glyph unicode=":" horiz-adv-x="320" d="M160 442q-27 0 -46.5 18.5t-20.5 46.5q0 27 19.5 45.5t47.5 20.5q26 0 46.5 -18.5t21.5 -47.5q0 -27 -18.5 -46t-49.5 -19zM160 82q-27 0 -46.5 18.5t-20.5 46.5q0 27 19.5 45.5t47.5 20.5q26 0 46.5 -18.5t21.5 -47.5q0 -27 -18.5 -46t-49.5 -19z" />
<glyph unicode=";" horiz-adv-x="320" d="M160 445q-27 0 -46.5 18.5t-20.5 46.5q0 27 19.5 45.5t47.5 20.5q26 0 46.5 -18.5t21.5 -47.5q0 -27 -18.5 -46t-49.5 -19zM98 -51q63 63 67 129q0 12 -4 16q-1 1 -19 4t-33.5 16t-15.5 40q-1 29 19.5 45t48.5 16q68 0 71 -82q3 -47 -35.5 -108t-62.5 -76h-36z" />
<glyph unicode="&#x3c;" horiz-adv-x="575" d="M99 273v64l424 241v-70l-354 -203l354 -203v-70z" />
<glyph unicode="=" horiz-adv-x="575" d="M50 258h475v-57h-475v57zM50 454h475v-57h-475v57z" />
<glyph unicode="&#x3e;" horiz-adv-x="575" d="M476 273l-424 -241v70l354 203l-354 203v70l424 -241v-64z" />
<glyph unicode="?" horiz-adv-x="505" d="M185 222q0 45 13.5 77t46.5 66l61 63q19 21 29.5 35t18.5 37t8 51q0 53 -31.5 88.5t-87.5 35.5q-47 0 -77 -30.5t-28 -74.5h-90q-2 48 48.5 97t145.5 49q99 0 151 -48t52 -122q0 -48 -16 -82t-60 -79l-79 -72l-10.5 -10.5t-10 -9.5t-8.5 -9t-7.5 -10t-6 -9.5t-6 -11.5 t-4 -12.5t-3 -15t-1.5 -17.5t-1 -21v-54q0 -16 -12 -23t-23.5 -0.5t-11.5 23.5v89zM213 -88q-26 0 -45.5 17.5t-19.5 45.5q0 26 18.5 43.5t46.5 18.5q27 0 45.5 -17t18.5 -45q0 -26 -17.5 -44t-46.5 -19z" />
<glyph unicode="@" horiz-adv-x="1000" d="M839 14q-22 -19 -29.5 -25.5t-43 -30.5t-66.5 -35.5t-83.5 -23t-109.5 -12.5q-138 -2 -240.5 49.5t-150.5 154.5q-49 105 -20 236t122 223q92 90 214 121.5t260 -9.5q98 -32 159.5 -115t63.5 -194q0 -97 -49 -178.5t-135 -125.5q-5 -2 -17.5 -8.5t-18 -8.5t-16 -5.5 t-22.5 -5t-28 -1.5q-41 -1 -55 10t-21 36q-1 4 -1 15.5v15.5q-54 -65 -131 -67q-58 -2 -97 37q-30 30 -41 75.5t5.5 113t66.5 139.5q36 52 88 85.5t105 33.5q35 0 59.5 -11.5t35 -25t24.5 -39.5l23 55h82q-118 -299 -136 -347q-16 -51 10.5 -64.5t81.5 16.5q57 32 97.5 98 t42.5 157q0 95 -51 163.5t-139 98.5q-79 27 -156 18t-142.5 -43t-117.5 -89q-75 -84 -98.5 -191.5t15.5 -199.5q37 -80 123 -127.5t209 -49.5q181 0 300 105q14 13 27 2t1 -26zM386 87q20 -15 45 -15q81 0 150 147q24 57 38.5 111.5t14.5 77.5q0 26 -16.5 46t-47.5 20 q-35 0 -79 -38t-78 -98q-43 -80 -52 -148.5t25 -102.5z" />
<glyph unicode="A" horiz-adv-x="595" d="M210 545q13 39 15 56q0 19 -15 33q-16 12 -45 12q-19 0 -21 20q-1 7 5 11.5t14 4.5h170l262 -698h-89l-86 231h-264l-85 -231h-68zM174 264h229l-118 315z" />
<glyph unicode="B" horiz-adv-x="615" d="M178 378h105h28t29.5 2t34 6.5t28.5 13.5t26.5 22.5t16 35t7.5 49.5q0 63 -43.5 94.5t-109.5 31.5q-84 0 -91 -2q-1 0 -6 -2t-6.5 -2.5t-5.5 -2.5t-5.5 -4.5t-3.5 -6.5t-3 -9t-1 -12v-214zM178 73q0 -37 36 -38q3 0 22.5 -0.5t34.5 -0.5h29q35 1 65.5 8t59.5 21.5t46 43 t17 67.5q0 43 -15 73.5t-35 45.5t-51.5 23.5t-52.5 10t-51 1.5h-105v-255zM31 646q-18 0 -20 19q-1 7 5 12t14 5h278q29 0 56 -3t60.5 -13.5t57.5 -27.5t41 -48.5t17 -73.5q0 -38 -12.5 -67.5t-33 -47.5t-39 -28t-37.5 -15v-2q157 -30 157 -182q0 -92 -64 -138.5t-162 -50.5 q-34 0 -48 -1h-200v573q0 35 -5.5 49.5t-20.5 26.5q-15 9 -44 13z" />
<glyph unicode="C" horiz-adv-x="635" d="M600 27q-38 -24 -101.5 -37.5t-139.5 -8t-130 36.5q-179 102 -183 331q0 105 44.5 189.5t125.5 123.5q69 33 156 33q101 0 168 -48t67 -103h-91q0 33 -41.5 66t-105.5 33q-27 0 -55.5 -7.5t-61.5 -27t-58 -49.5t-42 -80t-17 -113q0 -121 44.5 -198t149.5 -123 q39 -19 125 -10.5t140 40.5q17 5 23 -13q6 -20 -17 -35z" />
<glyph unicode="D" horiz-adv-x="660" d="M179 110q0 -23 1 -33q2 -26 22 -38q6 -3 20 -4.5t32 -1.5h21q54 0 104.5 18t80.5 53q67 75 67 225q0 141 -51 221q-51 79 -186 82q-64 0 -78 -3q-25 -6 -31 -31q-2 -7 -2 -43v-445zM31 645q-19 0 -21 20q-1 7 5.5 11.5t14.5 4.5h175q116 0 181 -11q105 -17 166.5 -101.5 t61.5 -239.5q0 -202 -117 -283q-90 -63 -255 -63h-141v571q0 21 -0.5 29.5t-5 21.5t-13.5 21q-15 15 -51 19z" />
<glyph unicode="E" horiz-adv-x="580" d="M504 682l5 -125q0 -10 -7.5 -14t-15.5 0t-9 14q-6 36 -20 54q-18 23 -75 23h-142q-33 0 -47 -12q-16 -12 -16 -56v-195h160q31 0 50 6q26 8 38 22.5t12 43.5q0 9 7.5 13t15 0.5t7.5 -12.5v-197q0 -13 -16 -13t-16 13q0 31 -20 53q-19 22 -78 22h-160v-231q0 -36 15.5 -48 t69.5 -12h142q44 0 66 23q15 15 24 65q2 11 10.5 14.5t16 -1t7.5 -14.5l-7 -134h-421v573q0 35 -5.5 49.5t-21.5 25.5q-11 9 -43 14q-19 0 -21 19q-1 7 5 12t15 5h475z" />
<glyph unicode="F" horiz-adv-x="540" d="M101 -16v574q0 34 -5.5 49t-21.5 26q-12 9 -43 13q-19 0 -21 20q-1 7 6 11.5t16 4.5h472l6 -123q0 -11 -7.5 -15.5t-15.5 -0.5t-9 16q-7 36 -20 53q-16 23 -75 23h-141q-33 0 -48 -11q-15 -14 -15 -57v-192h159q27 0 50 7q49 15 49 69q0 7 7.5 10t15 0.5t7.5 -9.5v-202 q0 -8 -7.5 -11.5t-15.5 0.5t-8 12q-1 33 -20 55q-19 20 -78 20h-159v-342h-78z" />
<glyph unicode="G" horiz-adv-x="660" d="M600 300v-271q-52 -25 -77.5 -32.5t-91.5 -14.5q-137 -13 -217 35q-168 100 -172 323q0 107 44.5 195.5t125.5 127.5q67 33 155 33q101 0 168 -48t67 -103h-90q0 33 -40.5 65.5t-104.5 32.5q-36 0 -74 -14.5t-76.5 -45.5t-62.5 -90t-24 -137q0 -119 41 -191.5t142 -117.5 q31 -13 111 -15q41 0 97 16v167q0 59 -28 79q-17 12 -67 12q-22 2 -22 20t21 18h132q43 0 43 -44z" />
<glyph unicode="H" horiz-adv-x="680" d="M187 381h323v301h79v-695h-79v340h-323v-340h-79v568q0 58 -28 78q-16 12 -47 12q-22 2 -22 20q0 16 21 16h111q44 0 44 -44v-256z" />
<glyph unicode="I" horiz-adv-x="275" d="M78 633q-16 12 -47 12q-22 2 -22 20q0 16 21 16h113q43 0 43 -44v-651h-80v569q0 58 -28 78z" />
<glyph unicode="J" horiz-adv-x="445" d="M281 554q0 59 -28 79q-17 12 -47 12q-22 2 -22 20q0 16 21 16h113q43 0 43 -44v-471q0 -21 -1.5 -36t-7 -39.5t-18.5 -42t-33.5 -35t-55.5 -26.5t-81 -9q-81 0 -125 31q-39 28 -47 98h86q0 -81 96 -81q28 0 48 8.5t31.5 21.5t17.5 35t8 42.5t2 49.5v371z" />
<glyph unicode="K" horiz-adv-x="565" d="M182 375l285 306h42q16 0 19.5 -6.5t-1.5 -12.5l-5 -6l-262 -284l321 -385h-101l-292 351h-6v-351h-79v569q0 34 -5 49t-23 28q-17 12 -47 12q-22 2 -22 20q0 16 21 16h112q43 0 43 -44v-262z" />
<glyph unicode="L" horiz-adv-x="520" d="M102 556q0 57 -28 77q-16 12 -47 12q-22 2 -22 20q0 16 21 16h113q44 0 44 -44v-523q-2 -41 20 -58t74 -17h119q41 0 56.5 14t24.5 52l7 37q2 11 11 15t16.5 -1t7.5 -15l-5 -155h-412v570z" />
<glyph unicode="M" horiz-adv-x="830" d="M72 633q-11 8 -38 12q-21 0 -21 20q0 17 18 17h190l196 -599h2l204 599h127v-699h-76v636h-2l-206 -599q-12 -37 -43 -37h-52l-212 636h-2v-636h-59v573q0 60 -26 77z" />
<glyph unicode="N" horiz-adv-x="660" d="M101 555q0 60 -26 77q-10 9 -43 13q-20 0 -20 19q0 17 18 17h171l314 -576h2v576h64v-655q0 -16 -11.5 -29.5t-27.5 -13.5h-37l-340 607h-2v-607h-62v572z" />
<glyph unicode="O" horiz-adv-x="740" d="M371 -21q-151 0 -236 97t-85 260t87.5 260.5t232.5 97.5q146 0 233 -96.5t87 -260.5t-85.5 -261t-233.5 -97zM371 33q119 0 178 87t59 217q0 63 -13.5 116.5t-41.5 97t-74.5 68t-108.5 24.5q-116 0 -177 -88.5t-61 -218.5q0 -60 13.5 -112.5t41 -96t75 -69t109.5 -25.5z " />
<glyph unicode="P" horiz-adv-x="570" d="M180 -19h-78v573q0 35 -5.5 49.5t-20.5 26.5q-12 9 -44 13q-18 0 -20 19q-1 8 4 12.5t15 4.5h216q65 0 115 -3q77 -2 133 -51.5t57 -138.5q1 -84 -60.5 -140t-147.5 -55q-11 0 -53 -0.5t-49 -1.5q-16 0 -22.5 13t0 26t22.5 13q8 0 40.5 0.5t46.5 1.5q133 13 137 143 q0 137 -153 142q-68 0 -92 -4q-24 -3 -32.5 -15t-8.5 -50v-578z" />
<glyph unicode="Q" horiz-adv-x="740" d="M641 -120q-15 -6 -92 -10q-181 0 -234 113q-125 18 -195 112t-70 241q0 163 87.5 260.5t232.5 97.5q146 0 233 -96.5t87 -260.5q0 -147 -69 -241t-192 -113q13 -27 55 -53q51 -31 157 -12v-38zM371 33q119 0 178 87t59 217q0 63 -13.5 116.5t-41.5 97t-74.5 68 t-108.5 24.5q-116 0 -177 -88.5t-61 -218.5q0 -60 13.5 -112.5t41 -96t75 -69t109.5 -25.5z" />
<glyph unicode="R" horiz-adv-x="590" d="M223 297q-1 1 -4 6l-1 1q-6 12 0.5 24.5t22.5 12.5q8 0 41 0.5t46 1.5q55 6 95 39t42 106q0 138 -153 141q-74 0 -92 -3q-24 -3 -32.5 -15.5t-8.5 -50.5v-577h-77v573q0 34 -5.5 49t-21.5 26q-14 10 -43 14q-19 0 -21 19q-1 7 4.5 12t15.5 5h215q66 0 115 -3 q77 -2 133 -51.5t57 -138.5q1 -84 -60.5 -140.5t-147.5 -55.5q-14 0 -24 -1l230 -308h-94z" />
<glyph unicode="S" horiz-adv-x="500" d="M416 606q-2 1 -16 6.5t-21.5 8t-24.5 8t-30.5 8t-33.5 5.5t-40 4q-56 0 -91.5 -28t-35.5 -76q0 -39 19 -67t67 -58q18 -11 59 -32t69 -38.5t59.5 -42.5t48 -58.5t16.5 -72.5q0 -71 -40.5 -120t-114.5 -67q-37 -11 -91 -9t-90.5 6.5t-62.5 10.5q-21 6 -27.5 24.5t4.5 32.5 t32 10q32 -15 75 -24.5t96.5 -5.5t86.5 30q48 38 49 99q0 38 -24 68t-53 46.5t-81.5 44.5t-84.5 49q-93 69 -93 155q0 85 59.5 128.5t162.5 43.5q63 0 152 -23v-66z" />
<glyph unicode="T" horiz-adv-x="555" d="M239 631h-96q-33 0 -50 -7q-10 -5 -18 -12.5t-12 -14.5t-7.5 -18t-4 -17t-2 -17.5t-1.5 -13.5q-1 -9 -10 -12.5t-16.5 0.5t-7.5 12l5 151h519l5 -151q-1 -14 -16.5 -14t-17.5 14q0 1 -1.5 10.5t-2 12t-2.5 11.5t-3.5 13t-4 11.5t-5.5 11.5t-7 9t-8.5 8.5t-10.5 5.5 q-17 7 -50 7h-96v-647h-79v647z" />
<glyph unicode="U" horiz-adv-x="660" d="M73 633q-16 12 -47 12q-22 2 -22 20q0 16 21 16h112q43 0 43 -43v-388q0 -103 38.5 -158.5t130.5 -55.5q97 0 137 56t40 156v434h65v-432q0 -53 -8 -93.5t-31.5 -83.5t-75 -67t-128.5 -24q-247 0 -247 258v315q0 58 -28 78z" />
<glyph unicode="V" horiz-adv-x="590" d="M-18 645q-25 5 -25 21t23 16h118l217 -580l215 580h27q21 0 28.5 -8.5t4.5 -17.5l-4 -9l-250 -665h-58l-216 568q-21 62 -39 76q-12 14 -41 19z" />
<glyph unicode="W" horiz-adv-x="830" d="M-21 646q-25 1 -27 19q-1 7 5 12t15 5h134l117 -566h2l163 566h88l161 -546h2l112 546h29q19 0 27 -7t6 -15l-2 -7l-142 -671h-59l-183 595h-2l-175 -595h-78l-118 570q-5 27 -12 46q-5 14 -18 29q-15 17 -45 19z" />
<glyph unicode="X" horiz-adv-x="550" d="M11 646q-25 1 -27 20q-1 7 5 11.5t15 4.5h124l155 -272l168 272h32q17 0 23.5 -7t4.5 -13l-2 -7l-189 -300l221 -371h-94l-177 299l-179 -299h-76l218 360l-142 245q-31 55 -80 57z" />
<glyph unicode="Y" horiz-adv-x="550" d="M-6 646q-26 1 -28 20q-1 7 4.5 11.5t14.5 4.5h109l194 -303l201 303h32q17 0 23 -6.5t4 -13.5l-3 -6l-225 -342v-330h-79v330l-156 236q-7 12 -16 25.5l-13 19.5q-30 49 -62 51z" />
<glyph unicode="Z" horiz-adv-x="570" d="M33 29l385 602h-235q-42 0 -61 -11.5t-28 -48.5l-6 -35q-2 -11 -11 -15t-17.5 0.5t-8.5 15.5l6 145h453v-44l-387 -603h268q46 0 66 15.5t25 50.5l6 39q4 15 19.5 16t18.5 -16l-5 -156h-488v45z" />
<glyph unicode="[" horiz-adv-x="350" d="M147 755h165q19 0 19 -20t-19 -20h-40q-38 0 -54 -14.5t-16 -61.5v-690q0 -36 15 -47.5t56 -12.5h39q12 0 17 -10t0 -20t-17 -10h-164q-25 0 -25 28v849q0 29 24 29z" />
<glyph unicode="\" horiz-adv-x="405" d="M89 755l290 -906h-61l-290 906h61z" />
<glyph unicode="]" horiz-adv-x="350" d="M229 -123q0 -28 -25 -28h-164q-12 0 -17 10t0 20t17 10h39q41 1 56 12.5t15 47.5v690q0 47 -16 61.5t-54 14.5h-40q-19 0 -19 20t19 20h165q24 0 24 -29v-849z" />
<glyph unicode="^" horiz-adv-x="470" d="M196 701h74l148 -230h-77l-108 170l-111 -170h-75z" />
<glyph unicode="_" horiz-adv-x="500" d="M0 -75h500v-50h-500v50z" />
<glyph unicode="`" horiz-adv-x="300" d="M54 647q-13 24 -1 43t33.5 19t38.5 -17l67 -165h-44z" />
<glyph unicode="a" horiz-adv-x="520" d="M371 63q-25 -17 -30 -21q-34 -32 -68.5 -45t-89.5 -14q-54 -1 -88.5 37t-34.5 93q0 59 43 99t97 55t112 16q9 0 31 0.5t28 0.5v30q0 53 -26 90t-89 37q-48 0 -77.5 -25t-29.5 -64h-83q0 50 49.5 91t144.5 41q89 0 137 -44t48 -123v-323h-74v69zM371 241l-19 1 q-19 0 -30.5 -0.5t-34 -2.5t-39.5 -6.5t-37.5 -14t-35.5 -22.5q-12 -9 -22.5 -31.5t-10.5 -41.5q0 -29 16.5 -55t61.5 -29q39 0 83.5 22.5t60.5 63.5q7 15 7 42v74z" />
<glyph unicode="b" horiz-adv-x="570" d="M169 213q0 -15 2 -59q3 -49 38 -89.5t99 -40.5q69 0 104.5 55.5t35.5 145.5q0 39 -6.5 72t-21 65t-44.5 50.5t-72 18.5t-79.5 -30t-49.5 -74q-6 -27 -6 -47v-67zM95 576q0 23 -0.5 32.5t-6 23.5t-17.5 22q-15 11 -43 11q-22 2 -22 20q0 16 21 16h97q21 0 33 -13t12 -31 v-258h2q18 30 60.5 56t94.5 26q70 0 122 -42t71 -116q10 -41 10 -95q0 -103 -54.5 -175.5t-159.5 -73.5q-90 0 -146 56q-23 -40 -49 -45h-25v586z" />
<glyph unicode="c" horiz-adv-x="525" d="M464 14q-89 -34 -176 -31q-107 4 -177 75.5t-70 193.5q0 114 67.5 173.5t176.5 59.5q81 0 135 -37.5t60 -93.5h-85q0 36 -30 61.5t-88 25.5q-65 0 -110.5 -47.5t-45.5 -141.5t49.5 -155.5t140.5 -68.5q20 -2 62 3.5t83 21.5q15 6 21 -9q7 -19 -13 -30z" />
<glyph unicode="d" horiz-adv-x="560" d="M403 251q0 33 -5 62q-6 48 -43 84t-92 36q-67 0 -103 -58t-36 -146q0 -80 34.5 -142t106.5 -62q61 0 99.5 58.5t38.5 126.5v41zM477 -10h-74v72h-2q-45 -83 -151 -83q-89 0 -148 68t-59 182q0 104 56 178t147 74q107 0 155 -74h2v169q0 23 -0.5 32.5t-6 23.5t-17.5 22 q-15 11 -43 11q-22 2 -22 20q0 16 21 16h97q21 0 33 -13t12 -31v-667z" />
<glyph unicode="e" horiz-adv-x="525" d="M410 276q1 89 -36 128.5t-94 39.5q-58 0 -105 -43t-53 -125h288zM122 226q7 -85 55.5 -137t133.5 -60q23 -2 65 3t80 21q15 6 21 -9q7 -19 -13 -30q-76 -35 -176 -31q-107 4 -177 75.5t-70 193.5q0 113 70 173t179 60q84 0 143 -61t53 -163v-35h-364z" />
<glyph unicode="f" horiz-adv-x="360" d="M99 422h-82v49h82v53q0 34 4 63q8 53 42 86.5t98 33.5q69 0 104 -30.5t38 -79.5h-79q-1 30 -17 50t-49 20q-63 0 -66 -91q-1 -16 -1 -52v-53h139v-49h-139v-436h-74v436z" />
<glyph unicode="g" horiz-adv-x="580" d="M407 210v50q0 26 -7 53t-21.5 55t-43.5 46t-67 18q-73 0 -108.5 -51.5t-35.5 -138.5q0 -80 37 -134t114 -54q54 0 91.5 45.5t40.5 110.5zM481 370v-379q0 -38 -8 -70q-11 -53 -62.5 -87.5t-141.5 -34.5q-96 0 -144.5 34t-53.5 92h79q3 -34 33.5 -56.5t94.5 -22.5 q54 0 88 29.5t39 80.5q2 40 2 49v76h-2q-46 -76 -150 -76q-89 0 -149 63.5t-60 173.5q0 102 56.5 171.5t155.5 69.5q49 0 91.5 -23.5t55.5 -53.5h2v34q0 32 29 32h109q8 0 13.5 -5t4.5 -12q-1 -14 -20 -14q-25 0 -43.5 -16.5t-18.5 -54.5z" />
<glyph unicode="h" horiz-adv-x="570" d="M168 350h2q16 53 64 91t119 38q70 0 107 -54t37 -131v-305h-75v304q0 49 -22 86t-72 37q-40 0 -79.5 -32.5t-66.5 -96.5q-14 -35 -14 -80v-218h-75v587q0 23 -0.5 32.5t-6 23.5t-17.5 22q-15 11 -43 11q-22 2 -22 20q0 16 21 16h98q21 0 33 -13t12 -31v-307z" />
<glyph unicode="i" horiz-adv-x="260" d="M124 576q-24 0 -41 16t-18 42q0 24 16.5 40.5t42.5 17.5q23 0 39.5 -16t17.5 -42q0 -24 -15.5 -41t-41.5 -17zM172 -11h-75v356q0 40 -3.5 55t-19.5 25q-17 11 -43 11q-22 2 -22 20q0 16 21 16h97q21 0 33 -13t12 -31v-439z" />
<glyph unicode="j" horiz-adv-x="270" d="M150 581q-24 0 -41 16t-18 42q0 23 16.5 39.5t42.5 17.5q23 0 39.5 -15.5t17.5 -41.5q0 -24 -15.5 -41t-41.5 -17zM193 -3v-29.5t-2.5 -33.5t-7.5 -37.5t-15.5 -33t-25.5 -30t-39 -19t-54 -8.5q-70 0 -109 33.5t-39 86.5h83q0 -80 64 -80q42 0 56 33.5t14 96.5v370 q0 23 -0.5 32.5t-6 23.5t-17.5 22q-15 11 -43 11q-22 2 -22 20q0 16 21 16h98q21 0 33 -13t12 -31v-430z" />
<glyph unicode="k" horiz-adv-x="500" d="M171 277l219 194h80l-224 -201l259 -280h-96l-236 251h-2v-251h-75v586q0 23 -0.5 32.5t-6 23.5t-17.5 22q-15 11 -43 11q-22 2 -22 20q0 16 21 16h98q21 0 33 -13t12 -31v-380z" />
<glyph unicode="l" horiz-adv-x="270" d="M172 -11h-75v587q0 23 -0.5 32.5t-6 23.5t-17.5 22q-15 11 -43 11q-22 2 -22 20q0 16 21 16h98q21 0 33 -13t12 -31v-668z" />
<glyph unicode="m" horiz-adv-x="800" d="M65 424q-15 11 -43 11q-22 2 -22 20q0 16 21 16h97q21 0 33 -13t12 -31v-68h2q4 14 14 32.5t27.5 39.5t46 35t62.5 14q59 0 95 -35t36 -86h2l6 12q5 12 7.5 16t9.5 16.5t13 19t15.5 17t19.5 16.5t23 12t29 9t33 3q65 0 98.5 -43t33.5 -121v-328h-74v304q0 127 -85 127 q-35 0 -66.5 -30t-50.5 -85q-10 -32 -11 -65v-251h-74v332q0 42 -20 71t-64 29q-45 0 -86.5 -60t-41.5 -125v-247h-74v357q0 24 -0.5 33.5t-6 23.5t-17.5 22z" />
<glyph unicode="n" horiz-adv-x="570" d="M166 343h1q10 23 24 44t36 43t54.5 35.5t70.5 14.5q66 1 106 -34.5t40 -89.5v-367h-74v322q0 47 -22.5 77.5t-75.5 29.5q-53 -2 -107 -62t-54 -121v-246h-74v356q0 24 -0.5 33.5t-6 23.5t-17.5 22q-15 11 -43 11q-22 2 -22 20q0 16 21 16h98q21 0 33 -13t12 -31v-84z" />
<glyph unicode="o" horiz-adv-x="570" d="M285 -18q-108 0 -173.5 65t-65.5 183q0 110 61.5 181.5t175.5 71.5q112 0 176.5 -68t64.5 -184q0 -114 -63.5 -181.5t-175.5 -67.5zM128 230q0 -86 38.5 -144.5t119.5 -58.5q77 0 115.5 60t38.5 144q0 54 -14.5 99t-51.5 76.5t-92 31.5q-78 0 -116 -59.5t-38 -148.5z" />
<glyph unicode="p" horiz-adv-x="560" d="M170 205q0 -35 11 -72t42.5 -69.5t78.5 -32.5q39 0 67.5 19t43.5 50.5t22 65t7 69.5q0 47 -11.5 89.5t-45 77.5t-85.5 35q-49 0 -88 -41t-42 -107v-84zM169 401h2q9 24 47 51.5t92 30.5q96 0 153 -65.5t57 -180.5q0 -71 -19 -126t-66.5 -92t-120.5 -37q-48 0 -87 23 t-55 58h-2v-263h-75v547q0 24 -0.5 33.5t-6 23.5t-17.5 22q-15 11 -43 11q-22 2 -22 20q0 16 21 16h97q21 0 33 -13t12 -31v-28z" />
<glyph unicode="q" horiz-adv-x="550" d="M474 -200h-75v264h-2q-13 -29 -49 -55t-99 -27q-92 -1 -147 71.5t-55 180.5q0 107 56 178.5t153 71.5q85 0 143 -55q2 5 6 13.5t18 23.5t30 18h21v-684zM399 205v73q0 31 -8 59q-10 43 -43.5 73t-81.5 30q-67 0 -103 -60.5t-36 -147.5q0 -32 6.5 -64.5t21.5 -64t43.5 -51 t66.5 -19.5q60 0 97 50.5t37 121.5z" />
<glyph unicode="r" horiz-adv-x="390" d="M98 345q0 24 -0.5 33.5t-6 23.5t-17.5 22q-15 11 -43 11q-22 2 -22 20q0 16 21 16h98q21 0 33 -13t12 -31v-60h2q10 36 51 71.5t102 38.5h48v-78q-14 6 -63.5 1.5t-78.5 -21.5q-48 -27 -58 -93q-3 -27 -3 -51v-247h-75v357z" />
<glyph unicode="s" horiz-adv-x="430" d="M355 401q-2 1 -11.5 6t-17.5 8.5t-23 9t-32 10.5q-26 4 -57 4.5t-58 -16t-28 -46.5q-2 -29 18 -47q30 -29 74.5 -47.5t83.5 -37.5t64 -53q19 -25 19 -63q0 -111 -111 -139q-90 -26 -202 13q-32 13 -27 41q3 21 21 23q3 1 7 0l7 -5l10 -5t9.5 -5.5t11.5 -6l12 -4.5 t14.5 -4.5t15.5 -3.5t18.5 -2.5t19.5 -0.5q121 0 121 81q0 45 -62 78q-16 9 -55.5 26t-71 35t-50.5 41q-16 21 -18.5 52t8.5 60q17 40 55.5 61.5t86 22.5t103.5 -10q41 -9 45 -10v-66z" />
<glyph unicode="t" horiz-adv-x="350" d="M321 -15q-29 -6 -79 -6q-89 0 -115.5 33t-26.5 112v298h-80v49h80v86l73 69v-155h138v-49h-137v-320q0 -46 25 -61q18 -10 52 -13.5t70 3.5v-46z" />
<glyph unicode="u" horiz-adv-x="575" d="M498 -9h-74v113h-3q-8 -24 -16 -36q-17 -33 -57 -60t-96 -29q-79 0 -121 47t-41 137v182q0 24 -0.5 33.5t-6 23.5t-17.5 22q-15 11 -40 11q-22 2 -22 20q0 16 21 16h94q21 0 33 -13t12 -31v-264q0 -124 105 -124q33 0 66 17.5t51 48.5q17 29 27.5 65t10.5 58v117 q0 24 -0.5 33.5t-6 23.5t-17.5 22q-15 11 -40 11q-22 2 -22 20q0 16 21 16h94q21 0 33 -13t12 -31v-436z" />
<glyph unicode="v" horiz-adv-x="495" d="M4 440q-20 0 -20 17q0 14 17 14h116l165 -372l147 372h27q16 0 22.5 -6.5t5.5 -12.5l-2 -6l-186 -460h-43l-186 411q-16 43 -63 43z" />
<glyph unicode="w" horiz-adv-x="695" d="M74 395q-12 45 -56 45q-19 0 -19 16q0 15 16 15h108l101 -362h2l108 362h67l118 -362h2l104 362h27q14 0 20 -7.5t5.5 -14.5t-1.5 -7l-132 -456h-51l-129 384h-2l-119 -384h-50z" />
<glyph unicode="x" horiz-adv-x="480" d="M38 440q-20 0 -20 16q0 15 18 15h103l121 -178l131 178h28q16 0 22 -6.5t4 -12.5l-2 -6l-148 -201l180 -256h-79l-144 206l-154 -206h-70l189 252l-101 144q-23 33 -36 41.5t-42 13.5z" />
<glyph unicode="y" horiz-adv-x="485" d="M66 397q-21 44 -66 44q-20 0 -20 16q0 14 18 14h117l155 -362l141 362h28q16 0 22.5 -7.5t4.5 -15.5l-2 -7l-181 -461l-46 -123q-19 -45 -83 -54.5t-106 18.5q-30 18 -46.5 50t-16.5 61h82v-7.5v-11.5v-11q2 -15 13 -28.5t27 -17.5q22 -6 45 2t34 32l46 122l-148 343 q-14 34 -18 42z" />
<glyph unicode="z" horiz-adv-x="485" d="M408 103q3 19 17 19q16 0 16 -19l-6 -114h-390v41l295 394h-159q-43 0 -61.5 -12t-29.5 -47q-8 -21 -19 -21q-12 0 -12 19l5 108h362v-40l-293 -394h162q56 0 82 16t31 50z" />
<glyph unicode="{" horiz-adv-x="450" d="M401 -175q-43 -2 -96 25.5t-80 78.5q-15 29 -17 62.5t4.5 58.5t14 58t7.5 56q0 81 -112 118v24q28 8 41.5 13t33.5 20.5t28 37.5q13 33 9 73.5t-14.5 71.5t-11.5 69.5t17 67.5q26 44 72 72t104 32q16 0 16 -17.5t-16 -17.5q-35 -8 -62.5 -32t-38.5 -62q-11 -39 1.5 -130 t-10.5 -118q-21 -36 -47.5 -55t-66.5 -37q73 -30 114 -95q21 -33 18 -76.5t-12.5 -79.5t3.5 -89q9 -32 34 -59t67 -35q12 0 17 -9t0 -17.5t-17 -8.5z" />
<glyph unicode="|" horiz-adv-x="333" d="M135 742h64v-880h-64v880z" />
<glyph unicode="}" horiz-adv-x="450" d="M343 282q-112 -37 -112 -118q0 -23 7.5 -56t14 -58t4.5 -58.5t-17 -62.5q-27 -51 -80 -78.5t-96 -25.5q-12 0 -17 8.5t0 17.5t17 9q42 8 67 35t34 59q10 38 3 88.5t-12 80t18 76.5q41 65 114 95q-27 12 -42.5 21t-36 27.5t-35.5 43.5q-23 27 -10.5 118t1.5 130 q-11 38 -38.5 62t-62.5 32q-16 0 -16 17.5t16 17.5q58 -4 104 -32t72 -72q18 -30 17 -67.5t-11.5 -69.5t-14 -71.5t8.5 -73.5q8 -22 28 -37.5t33.5 -20.5t41.5 -13v-24z" />
<glyph unicode="~" horiz-adv-x="585" d="M53 306q0 51 25.5 86.5t78.5 36.5q40 1 96 -41l107 -79q4 -3 12.5 -10t12.5 -9.5t11.5 -6.5t14 -5.5t14.5 -1.5q45 0 45 78v43h62v-61q0 -16 -3.5 -33t-13.5 -39t-34 -36t-59 -14t-91 41l-110 81q-3 2 -10 7.5t-9.5 7.5t-8.5 6t-10 5t-9.5 2.5t-11.5 1.5q-20 0 -33.5 -17 t-13.5 -52v-48h-62v57z" />
<glyph unicode="&#xac00;" horiz-adv-x="910" d="M103 620q-15 0 -23.5 -9t-8.5 -21q0 -13 8 -22t22 -9h266q-26 -101 -113.5 -200t-180.5 -158q-8 -5 -9.5 -16t3.5 -17q12 -15 35 -4q116 56 221.5 169.5t133.5 242.5q3 16 -8 30t-30 14h-316zM717 720q0 19 -11 32t-28 13h-94q-32 0 -32 -23q0 -17 39 -24q28 -5 40.5 -16 t12.5 -38v-763h19q54 0 54 94v386h163q11 0 18.5 8t7.5 21q0 15 -7.5 23t-19.5 8h-162v279z" />
<glyph unicode="&#xac01;" horiz-adv-x="910" d="M103 665q-15 0 -23.5 -9.5t-8.5 -21.5t8 -20.5t22 -8.5h266q-27 -90 -116.5 -173t-181.5 -130q-8 -4 -10 -15t3 -18q10 -14 34 -5q51 18 107 52.5t109 80t93 105t52 119.5q3 15 -8 29.5t-30 14.5h-316zM717 720q0 19 -11 32t-28 13h-94q-32 0 -32 -23q0 -17 39 -24 q28 -5 40.5 -15.5t12.5 -38.5v-427h19q54 0 54 93v131h163q11 0 18.5 8.5t7.5 21.5q0 14 -7.5 22t-19.5 8h-162v199zM706 140q0 41 -40 41h-411q-9 0 -16.5 -9.5t-7.5 -21.5q0 -11 7.5 -20.5t16.5 -9.5h378v-273h20q22 0 37.5 24.5t15.5 68.5v200z" />
<glyph unicode="&#xac04;" horiz-adv-x="910" d="M102 660q-15 0 -23.5 -9.5t-8.5 -21.5t8 -21t22 -9h266q-26 -95 -113.5 -184t-181.5 -140q-8 -5 -10 -16.5t3 -17.5q10 -13 35 -4q119 44 227.5 153.5t129.5 225.5q2 16 -8.5 30t-29.5 14h-316zM717 720q0 19 -10.5 32t-28.5 13h-94q-32 0 -32 -22q0 -18 39 -25 q28 -5 40.5 -15.5t12.5 -38.5v-561h19q54 0 54 94v244h163q11 0 18.5 8.5t7.5 21.5q0 15 -7.5 23t-19.5 8h-162v218zM268 -72q-1 -49 23 -67.5t77 -18.5h333q14 0 23 10t9 22q0 11 -9.5 20.5t-23.5 9.5h-338q-21 0 -21 22v180q0 19 -11.5 32t-29.5 13h-82q-13 0 -23 -6 t-10 -16q0 -12 7 -17.5t29 -9.5q27 -7 37 -16.5t10 -35.5v-122z" />
<glyph unicode="&#xac07;" horiz-adv-x="910" d="M103 665q-15 0 -23.5 -9.5t-8.5 -21.5t8 -20.5t22 -8.5h266q-27 -90 -116.5 -173t-181.5 -130q-8 -4 -10 -15t3 -18q10 -14 34 -5q51 18 107 52.5t109 80t93 105t52 119.5q3 15 -8 29.5t-30 14.5h-316zM717 720q0 19 -11 32t-28 13h-94q-32 0 -32 -23q0 -17 39 -24 q28 -5 40.5 -15.5t12.5 -38.5v-427h19q54 0 54 93v131h163q11 0 18.5 8.5t7.5 21.5q0 14 -7.5 22t-19.5 8h-162v199zM687 120q10 0 17 9t7 20q0 12 -7.5 21.5t-17.5 9.5h-431q-29 0 -29 -21q0 -20 27 -25q22 -4 27.5 -16.5t5.5 -48.5v-166q0 -66 71 -66h335q14 0 21.5 9 t7.5 22q0 12 -8 21t-22 9h-310q-13 0 -17.5 4.5t-4.5 19.5v198h328z" />
<glyph unicode="&#xac08;" horiz-adv-x="910" d="M102 675q-15 0 -23.5 -9.5t-8.5 -21.5t8 -21t22 -9h266q-29 -87 -119 -171.5t-175 -126.5q-7 -4 -10 -15t2 -17q10 -15 31 -7q108 38 222 139t139 215q3 16 -8 30t-30 14h-316zM717 719q0 19 -10.5 32t-28.5 13h-94q-32 0 -32 -22q0 -17 39 -25q28 -5 40.5 -15.5 t12.5 -38.5v-384h19q54 0 54 93v111h163q11 0 18.5 8.5t7.5 21.5t-8 21.5t-19 8.5h-162v176zM256 62q-25 0 -25 -20q0 -18 21 -24q21 -5 27.5 -13.5t6.5 -30.5v-66q0 -31 18.5 -51t49.5 -20h351q13 0 21 9t8 22q0 11 -8 20.5t-21 9.5h-319q-27 0 -27 26v79h305q37 0 37 47 v135q0 40 -37 40h-379q-30 0 -30 -30q0 -11 8.5 -20.5t21.5 -9.5h342v-103h-371z" />
<glyph unicode="&#xac09;" horiz-adv-x="910" d="M102 675q-15 0 -23.5 -9.5t-8.5 -21.5t8 -21t22 -9h266q-29 -87 -119 -171.5t-175 -126.5q-7 -4 -10 -15t2 -17q10 -15 31 -7q108 38 222 139t139 215q3 16 -8 30t-30 14h-316zM717 719q0 19 -10.5 32t-28.5 13h-94q-32 0 -32 -22q0 -17 39 -25q28 -5 40.5 -15.5 t12.5 -38.5v-384h19q54 0 54 93v111h163q11 0 18.5 8.5t7.5 21.5t-8 21.5t-19 8.5h-162v176zM139 60q-23 0 -23 -19q0 -16 18 -23q17 -6 22 -14.5t5 -30.5v-65q0 -31 18.5 -51t49.5 -20h201q14 0 21.5 9t7.5 22q0 12 -8 21t-21 9h-169q-27 0 -27 26v77h156q36 0 36 47v133 q0 40 -36 40h-227q-30 0 -30 -30q0 -12 8 -21.5t22 -9.5h190v-100h-214zM718 181q0 40 -40 40h-200q-10 0 -17.5 -9t-7.5 -21t7.5 -21.5t17.5 -9.5h167v-323h21q22 0 37 24t15 68v252z" />
<glyph unicode="&#xac0a;" horiz-adv-x="910" d="M102 675q-15 0 -23.5 -9.5t-8.5 -21.5t8 -21t22 -9h266q-29 -87 -119 -171.5t-175 -126.5q-7 -4 -10 -15t2 -17q10 -15 31 -7q108 38 222 139t139 215q3 16 -8 30t-30 14h-316zM717 719q0 19 -10.5 32t-28.5 13h-94q-32 0 -32 -22q0 -17 39 -25q28 -5 40.5 -15.5 t12.5 -38.5v-384h19q54 0 54 93v111h163q11 0 18.5 8.5t7.5 21.5t-8 21.5t-19 8.5h-162v176zM108 60q-25 0 -25 -19q0 -16 20 -23q16 -6 21 -14.5t5 -30.5v-65q0 -31 18.5 -51t49.5 -20h202q14 0 21.5 9t7.5 22q0 12 -8 21t-21 9h-170q-26 0 -26 26v77h155q37 0 37 47v133 q0 40 -37 40h-227q-29 0 -29 -30q0 -11 8 -21t21 -10h191v-100h-214zM644 160v-246h-119q1 6 1 28v218h118zM714 -147q11 0 17 9.5t6 21.5q0 29 -23 29h-6q9 21 9 63v208q0 15 -8.5 26t-25.5 11h-242q-33 0 -33 -19q0 -15 20 -24q16 -7 20.5 -15t4.5 -33v-303h24q9 0 18.5 8 t12.5 18h206z" />
<glyph unicode="&#xac10;" horiz-adv-x="910" d="M103 665q-15 0 -23.5 -9.5t-8.5 -21.5t8 -20.5t22 -8.5h266q-27 -90 -116.5 -173t-181.5 -130q-8 -4 -10 -15t3 -18q10 -14 34 -5q51 18 107 52.5t109 80t93 105t52 119.5q3 15 -8 29.5t-30 14.5h-316zM717 720q0 19 -11 32t-28 13h-94q-32 0 -32 -23q0 -17 39 -24 q28 -5 40.5 -15.5t12.5 -38.5v-427h19q54 0 54 93v131h163q11 0 18.5 8.5t7.5 21.5q0 14 -7.5 22t-19.5 8h-162v199zM628 123v-218h-282q3 24 3 28v190h279zM697 -156q10 0 16.5 9.5t6.5 20.5t-6 20.5t-16 9.5h-7q10 21 10 71v171q0 15 -8 26t-25 11h-421q-31 0 -31 -20 q0 -19 27 -26q20 -5 26.5 -14t6.5 -35v-271h24q9 0 18 8.5t13 18.5h366z" />
<glyph unicode="&#xac11;" horiz-adv-x="910" d="M102 675q-15 0 -23.5 -9.5t-8.5 -21.5t8 -21t22 -9h266q-29 -87 -119 -171.5t-175 -126.5q-7 -4 -10 -15t2 -17q10 -15 31 -7q108 38 222 139t139 215q3 16 -8 30t-30 14h-316zM717 719q0 19 -10.5 32t-28.5 13h-94q-32 0 -32 -22q0 -17 39 -25q28 -5 40.5 -15.5 t12.5 -38.5v-384h19q54 0 54 93v111h163q11 0 18.5 8.5t7.5 21.5t-8 21.5t-19 8.5h-162v176zM349 19h279v-113h-279v113zM697 -155q11 0 17 9t6 20q0 31 -23 31h-6q10 20 10 66v217q0 42 -39 42h-68q-31 0 -31 -21q0 -18 31 -24q20 -5 27 -12t7 -30v-63h-279v77q0 41 -36 41 h-70q-31 0 -31 -19q0 -20 27 -25q22 -5 29.5 -13.5t7.5 -32.5v-289h17q30 0 40 26h364z" />
<glyph unicode="&#xac12;" horiz-adv-x="910" d="M102 675q-15 0 -23.5 -9.5t-8.5 -21.5t8 -21t22 -9h266q-29 -87 -119 -171.5t-175 -126.5q-7 -4 -10 -15t2 -17q10 -15 31 -7q108 38 222 139t139 215q3 16 -8 30t-30 14h-316zM717 719q0 19 -10.5 32t-28.5 13h-94q-32 0 -32 -22q0 -17 39 -25q28 -5 40.5 -15.5 t12.5 -38.5v-384h19q54 0 54 93v111h163q11 0 18.5 8.5t7.5 21.5t-8 21.5t-19 8.5h-162v176zM652 57q27 65 30 109q2 27 -6 42.5t-37 15.5h-77q-31 0 -31 -23q0 -7 4.5 -11.5t8.5 -5.5t14 -3q18 -4 26.5 -8.5t10 -8t1.5 -9.5q-2 -50 -37.5 -133.5t-80.5 -136.5q-5 18 -21 18 h-6q10 19 10 66v213q0 42 -38 42h-69q-30 0 -30 -21q0 -10 6.5 -15t23.5 -9q20 -5 27 -12.5t7 -29.5v-66h-162v82q0 41 -37 41h-67q-31 0 -31 -19q0 -11 5.5 -16t21.5 -9q21 -5 29 -13.5t8 -32.5v-288h18q29 0 40 27h244q5 0 9 2q11 -15 31 -1q70 51 129 161l136 -150 q17 -18 41 -10q24 13 23 38q-1 18 -21 36zM226 10h162v-106h-162v106z" />
<glyph unicode="&#xac13;" horiz-adv-x="910" d="M103 665q-15 0 -23.5 -9.5t-8.5 -21.5t8 -20.5t22 -8.5h266q-27 -90 -116.5 -173t-181.5 -130q-8 -4 -10 -15t3 -18q10 -14 34 -5q51 18 107 52.5t109 80t93 105t52 119.5q3 15 -8 29.5t-30 14.5h-316zM717 720q0 19 -11 32t-28 13h-94q-32 0 -32 -23q0 -17 39 -24 q28 -6 40.5 -16.5t12.5 -37.5v-480h19q54 0 54 94v174h163q11 0 18.5 8.5t7.5 21.5t-8 21.5t-19 8.5h-162v208zM497 73q24 40 30 77q9 63 -44 63h-77q-30 0 -30 -22q0 -16 26 -22q26 -4 32 -8.5t4 -15.5q-14 -68 -84.5 -148t-135.5 -122q-12 -8 -12 -19.5t10 -16t25 0.5 q51 22 114.5 74t109.5 111l209 -170q17 -14 38 -7q20 9 23 37q2 20 -22 38z" />
<glyph unicode="&#xac14;" horiz-adv-x="910" d="M102 671q-15 0 -23.5 -9.5t-8.5 -21.5t8 -21t22 -9h266q-26 -90 -121.5 -179t-177.5 -125q-8 -4 -9.5 -15t3.5 -18q9 -12 35 -4q113 38 224.5 140t135.5 218q3 16 -8 30t-30 14h-316zM717 720q0 19 -11 32t-28 13h-94q-32 0 -32 -23q0 -17 39 -24q28 -5 40.5 -16 t12.5 -38v-407h19q54 0 54 94v122h163q11 0 18.5 8t7.5 21q0 14 -7.5 22t-19.5 8h-162v188zM418 -99q-26 -30 -44 -44q-12 -10 -10 -21t13.5 -14t26.5 5q92 58 165 172l159 -142q16 -15 37 -9q27 9 27 37q0 22 -23 39l-171 126q29 57 33 102q3 27 -5.5 42t-38.5 15h-77 q-30 0 -30 -23q0 -5 1.5 -8t4.5 -5t5.5 -3t7.5 -2t7 -2q27 -8 33 -12t5 -13q-9 -76 -84 -185l-108 85q28 51 32 90q6 56 -45 56h-78q-30 0 -30 -20q0 -3 0.5 -5.5t1.5 -4.5t2 -3t3 -2.5t3.5 -2t4 -1.5t4 -1t5 -1t4.5 -1q20 -4 29 -11.5t7 -16.5q-7 -51 -57 -128t-101 -114 q-20 -15 -10 -30.5t32 -4.5q36 17 81.5 59.5t81.5 94.5z" />
<glyph unicode="&#xac15;" horiz-adv-x="910" d="M103 665q-15 0 -23.5 -9.5t-8.5 -21.5t8 -20.5t22 -8.5h266q-27 -90 -116.5 -173t-181.5 -130q-8 -4 -10 -15t3 -18q10 -14 34 -5q51 18 107 52.5t109 80t93 105t52 119.5q3 15 -8 29.5t-30 14.5h-316zM717 720q0 19 -11 32t-28 13h-94q-32 0 -32 -23q0 -17 39 -24 q28 -5 40.5 -15.5t12.5 -38.5v-427h19q54 0 54 93v131h163q11 0 18.5 8.5t7.5 21.5q0 14 -7.5 22t-19.5 8h-162v199zM279 32q0 -79 61.5 -137t147.5 -58q85 0 147 58.5t62 136.5q0 79 -62 137.5t-147 58.5q-87 0 -148 -58t-61 -138zM354 32q0 53 40.5 93.5t93.5 40.5 t93.5 -40.5t40.5 -93.5t-40.5 -93t-93.5 -40t-93.5 40t-40.5 93z" />
<glyph unicode="&#xac16;" horiz-adv-x="910" d="M102 671q-15 0 -23.5 -9.5t-8.5 -21.5t8 -21t22 -9h266q-26 -90 -121.5 -179t-177.5 -125q-8 -4 -9.5 -15t3.5 -18q9 -12 35 -4q113 38 224.5 140t135.5 218q3 16 -8 30t-30 14h-316zM717 720q0 19 -11 32t-28 13h-94q-32 0 -32 -23q0 -17 39 -24q28 -5 40.5 -16 t12.5 -38v-407h19q54 0 54 94v122h163q11 0 18.5 8t7.5 21q0 14 -7.5 22t-19.5 8h-162v188zM553 12q71 69 89 134q6 19 -3.5 36t-29.5 17h-330q-8 0 -16 -9t-8 -20q0 -13 7 -22.5t16 -9.5h270q-33 -73 -124.5 -148t-179.5 -113q-24 -11 -14 -34q8 -13 32 -7q50 13 116 48 t124 82l188 -125q16 -12 39 -4q23 10 23 37t-24 40z" />
<glyph unicode="&#xac17;" horiz-adv-x="910" d="M102 675q-15 0 -23.5 -9.5t-8.5 -21.5t8 -21t22 -9h266q-29 -87 -119 -171.5t-175 -126.5q-7 -4 -10 -15t2 -17q10 -15 31 -7q108 38 222 139t139 215q3 16 -8 30t-30 14h-316zM717 720q0 19 -11 32t-28 13h-94q-32 0 -32 -23q0 -17 39 -24q28 -5 40.5 -15.5t12.5 -38.5 v-427h19q54 0 54 93v153h163q11 0 18.5 8.5t7.5 21.5t-8 21.5t-19 8.5h-162v177zM387 220q23 -15 66 -15h82q14 0 24 8t10 22q0 13 -9 22.5t-27 9.5q-57 0 -88 4.5t-69 20.5q-24 9 -37 -4q-8 -8 -7 -21t10 -19zM558 -21q70 57 95 116q7 18 -3 36.5t-31 18.5h-341 q-9 0 -17 -9t-8 -20q0 -13 7.5 -22.5t16.5 -9.5h282q-36 -60 -130.5 -122t-181.5 -89q-8 -3 -13 -12t1 -22q8 -12 30 -6q123 29 234 99l191 -93q22 -11 40 -2q21 10 22 36q2 23 -27 37z" />
<glyph unicode="&#xac19;" horiz-adv-x="910" d="M102 675q-15 0 -23.5 -9.5t-8.5 -21.5t8 -21t22 -9h266q-29 -87 -119 -171.5t-175 -126.5q-7 -4 -10 -15t2 -17q10 -15 31 -7q108 38 222 139t139 215q3 16 -8 30t-30 14h-316zM717 719q0 19 -10.5 32t-28.5 13h-94q-32 0 -32 -22q0 -17 39 -25q28 -5 40.5 -15.5 t12.5 -38.5v-384h19q54 0 54 93v111h163q11 0 18.5 8.5t7.5 21.5t-8 21.5t-19 8.5h-162v176zM686 162q10 0 17.5 9.5t7.5 21.5t-7.5 21t-18.5 9h-415q-29 0 -29 -21q0 -20 26 -25q22 -4 28 -16.5t6 -48.5v-199q0 -37 21.5 -51.5t49.5 -14.5h320q14 0 21.5 9t7.5 21t-8 21.5 t-22 9.5h-296q-11 0 -16 4.5t-5 19.5v76h298q14 0 21.5 9t7.5 21t-7.5 21t-21.5 9h-298v94h312z" />
<glyph unicode="&#xac1a;" horiz-adv-x="910" d="M103 665q-15 0 -23.5 -9.5t-8.5 -21.5t8 -20.5t22 -8.5h266q-27 -90 -116.5 -173t-181.5 -130q-8 -4 -10 -15t3 -18q10 -14 34 -5q51 18 107 52.5t109 80t93 105t52 119.5q3 15 -8 29.5t-30 14.5h-316zM717 720q0 19 -11 32t-28 13h-94q-32 0 -32 -23q0 -17 39 -24 q28 -5 40.5 -15.5t12.5 -38.5v-427h19q54 0 54 93v131h163q11 0 18.5 8.5t7.5 21.5q0 14 -7.5 22t-19.5 8h-162v199zM242 180q-13 0 -20.5 -10t-7.5 -21t7 -20t20 -9h78v-222h-79q-12 0 -19 -10t-7 -20q0 -12 6.5 -21.5t18.5 -9.5h469q13 0 20 9.5t7 21.5q0 9 -8 19.5 t-20 10.5h-77v222h80q11 0 18 10t7 20q0 11 -7.5 20.5t-18.5 9.5h-467zM557 120v-222h-165v222h165z" />
<glyph unicode="&#xac1b;" horiz-adv-x="910" d="M102 675q-15 0 -23.5 -9.5t-8.5 -21.5t8 -21t22 -9h266q-29 -87 -119 -171.5t-175 -126.5q-7 -4 -10 -15t2 -17q10 -15 31 -7q108 38 222 139t139 215q3 16 -8 30t-30 14h-316zM717 720q0 19 -11 32t-28 13h-94q-32 0 -32 -23q0 -17 39 -24q28 -5 40.5 -15.5t12.5 -38.5 v-427h19q54 0 54 93v153h163q11 0 18.5 8.5t7.5 21.5t-8 21.5t-19 8.5h-162v177zM392 206q22 -15 65 -15h89q14 0 24 8t10 22q0 13 -9 22t-27 9q-95 0 -163 29q-26 9 -37 -5q-9 -8 -7.5 -21t10.5 -19zM251 135q-13 0 -20.5 -9.5t-7.5 -21.5t7.5 -21t20.5 -9h87 q-44 -39 -44 -98q-1 -61 48.5 -104.5t128.5 -42.5q78 -1 126.5 41.5t49.5 105.5q0 58 -45 98h89q14 0 21 9t7 21t-7 21.5t-21 9.5h-440zM369 -20q0 38 27.5 65t74.5 28q42 -1 70.5 -28.5t28.5 -64.5t-28 -66.5t-71 -28.5q-48 -1 -75 28.5t-27 66.5z" />
<glyph unicode="&#xac1c;" horiz-adv-x="890" d="M88 620q-15 0 -23.5 -9.5t-8.5 -20.5q0 -31 30 -31h231q-20 -94 -99.5 -196.5t-158.5 -156.5q-7 -5 -9.5 -17t1.5 -18q10 -16 35 -3q103 55 200.5 171.5t117.5 235.5q3 17 -8 31t-32 14h-276zM792 720q0 19 -11 32t-28 13h-93q-33 0 -33 -23q0 -17 39 -24q28 -5 40.5 -16 t12.5 -38v-216h-134v229q0 19 -10.5 32.5t-28.5 13.5h-94q-31 0 -31 -23q0 -18 39 -25q28 -5 40.5 -15.5t12.5 -37.5v-672h18q54 0 54 94v344h134v-488h19q54 0 54 94v726z" />
<glyph unicode="&#xac1d;" horiz-adv-x="890" d="M88 655q-15 0 -23.5 -9.5t-8.5 -20.5q0 -13 8 -21.5t22 -8.5h229q-20 -85 -97 -175.5t-161 -140.5q-7 -4 -9 -14.5t3 -17.5q12 -14 36 -3q107 49 201.5 150t117.5 217q3 16 -8 30t-32 14h-278zM792 720q0 19 -11 32t-28 13h-93q-33 0 -33 -23q0 -17 39 -24 q28 -5 40.5 -15.5t12.5 -38.5v-152h-136v165q0 19 -10.5 32.5t-28.5 13.5h-94q-31 0 -31 -23q0 -18 39 -25q28 -5 40.5 -15t12.5 -38v-370h18q54 0 54 94v106h136v-215h19q54 0 54 93v390zM773 140q0 41 -40 41h-411q-9 0 -16.5 -9.5t-7.5 -21.5q0 -11 7.5 -20.5t16.5 -9.5 h378v-283h20q22 0 37.5 24.5t15.5 68.5v210z" />
<glyph unicode="&#xac20;" horiz-adv-x="890" d="M88 648q-15 0 -23.5 -9.5t-8.5 -21.5t8 -20.5t22 -8.5h229q-19 -83 -96.5 -173.5t-160.5 -142.5q-9 -6 -10.5 -16.5t3.5 -16.5q11 -14 36 -3q107 51 204.5 156t114.5 212q2 16 -9 30t-31 14h-278zM792 719q0 19 -10.5 32t-28.5 13h-93q-33 0 -33 -22q0 -18 39 -25 q28 -5 40.5 -15.5t12.5 -38.5v-176h-136v191q0 20 -10.5 33t-28.5 13h-94q-31 0 -31 -22q0 -19 39 -26q28 -5 40.5 -15t12.5 -38v-511h18q54 0 54 95v220h136v-336h19q54 0 54 95v533zM319 -72q-1 -49 23 -67.5t78 -18.5h332q15 0 23.5 10t8.5 22q0 11 -9 20.5t-24 9.5h-337 q-22 0 -22 22v179q0 19 -11 32t-29 13h-82q-33 0 -33 -22q0 -12 7 -17.5t29 -9.5q27 -7 36.5 -16.5t9.5 -35.5v-121z" />
<glyph unicode="&#xac24;" horiz-adv-x="890" d="M88 660q-15 0 -23.5 -10t-8.5 -21q0 -13 8 -22t22 -9h229q-21 -83 -96.5 -167.5t-160.5 -132.5q-8 -4 -10 -15t3 -17q11 -14 36 -3q67 31 132 80.5t119 123t67 148.5q2 16 -9 30.5t-31 14.5h-277zM792 719q0 19 -10.5 32t-28.5 13h-93q-33 0 -33 -22q0 -17 39 -25 q28 -5 40.5 -15.5t12.5 -38.5v-131h-136v144q0 20 -10.5 33t-28.5 13h-94q-31 0 -31 -22q0 -18 39 -26q28 -5 40.5 -15t12.5 -38v-342h18q54 0 54 93v101h136v-194h19q54 0 54 93v347zM318 61q-25 0 -25 -20q0 -18 21 -24q21 -5 27.5 -13.5t6.5 -30.5v-65q0 -31 18.5 -51 t49.5 -20h351q13 0 21 9t8 22q0 11 -8 20.5t-21 9.5h-319q-27 0 -27 26v78h305q37 0 37 47v134q0 40 -37 40h-379q-14 0 -22 -8.5t-8 -21.5q0 -12 8.5 -21.5t21.5 -9.5h342v-101h-371z" />
<glyph unicode="&#xac2c;" horiz-adv-x="890" d="M88 655q-15 0 -23.5 -9.5t-8.5 -20.5q0 -13 8 -21.5t22 -8.5h229q-20 -85 -97 -175.5t-161 -140.5q-7 -4 -9 -14.5t3 -17.5q12 -14 36 -3q107 49 201.5 150t117.5 217q3 16 -8 30t-32 14h-278zM792 720q0 19 -11 32t-28 13h-93q-33 0 -33 -23q0 -17 39 -24 q28 -5 40.5 -15.5t12.5 -38.5v-152h-136v165q0 19 -10.5 32.5t-28.5 13.5h-94q-31 0 -31 -23q0 -18 39 -25q28 -5 40.5 -15t12.5 -38v-370h18q54 0 54 94v106h136v-215h19q54 0 54 93v390zM690 121v-216h-282q3 21 3 27v189h279zM759 -157q10 0 16.5 9.5t6.5 20.5t-6 21 t-16 10h-7q10 20 10 70v170q0 15 -8 26.5t-25 11.5h-421q-31 0 -31 -20q0 -19 27 -26q20 -5 26.5 -14.5t6.5 -35.5v-270h25q8 0 17 8.5t13 18.5h366z" />
<glyph unicode="&#xac2d;" horiz-adv-x="890" d="M88 660q-15 0 -23.5 -10t-8.5 -21q0 -13 8 -22t22 -9h229q-21 -83 -96.5 -167.5t-160.5 -132.5q-8 -4 -10 -15t3 -17q11 -14 36 -3q67 31 132 80.5t119 123t67 148.5q2 16 -9 30.5t-31 14.5h-277zM792 719q0 19 -10.5 32t-28.5 13h-93q-33 0 -33 -22q0 -17 39 -25 q28 -5 40.5 -15.5t12.5 -38.5v-131h-136v144q0 20 -10.5 33t-28.5 13h-94q-31 0 -31 -22q0 -18 39 -26q28 -5 40.5 -15t12.5 -38v-342h18q54 0 54 93v101h136v-194h19q54 0 54 93v347zM421 17h279v-111h-279v111zM769 -155q11 0 17 9t6 20q0 31 -23 31h-6q10 20 10 66v215 q0 42 -39 42h-68q-31 0 -31 -21q0 -18 31 -24q20 -5 27 -12t7 -30v-63h-279v77q0 41 -36 41h-69q-32 0 -32 -19q0 -11 5.5 -16.5t21.5 -8.5q22 -5 29.5 -13.5t7.5 -32.5v-287h17q30 0 40 26h364z" />
<glyph unicode="&#xac2f;" horiz-adv-x="890" d="M88 655q-15 0 -23.5 -9.5t-8.5 -20.5q0 -13 8 -21.5t22 -8.5h229q-20 -85 -97 -175.5t-161 -140.5q-7 -4 -9 -14.5t3 -17.5q12 -14 36 -3q107 49 201.5 150t117.5 217q3 16 -8 30t-32 14h-278zM792 721q0 19 -10.5 31.5t-28.5 12.5h-93q-33 0 -33 -22q0 -17 39 -25 q28 -5 40.5 -15.5t12.5 -38.5v-152h-136v165q0 20 -10.5 33t-28.5 13h-94q-31 0 -31 -22q0 -18 39 -26q28 -5 40.5 -15t12.5 -38v-374h18q54 0 54 94v110h136v-267h19q54 0 54 94v442zM548 71q25 44 30 78q9 63 -44 63h-77q-29 0 -29 -22q0 -16 26 -22q25 -4 31 -8.5 t4 -15.5q-14 -68 -83 -148t-134 -122q-12 -8 -12 -19t10 -16t26 0q51 23 113 74t106 110l208 -168q19 -15 39 -7q22 11 24 37q2 20 -23 38z" />
<glyph unicode="&#xac30;" horiz-adv-x="890" d="M88 658q-15 0 -23.5 -10t-8.5 -21q0 -13 8 -22t22 -9h228q-20 -85 -95 -171t-161 -138q-9 -5 -10.5 -15.5t3.5 -17.5q12 -14 36 -3q107 51 201.5 150.5t116.5 211.5q3 16 -8 30.5t-32 14.5h-277zM792 719q0 19 -11 32t-28 13h-93q-33 0 -33 -23q0 -17 39 -24 q28 -5 40.5 -16t12.5 -38v-141h-136v155q0 19 -10.5 32.5t-28.5 13.5h-94q-31 0 -31 -23q0 -18 39 -25q28 -5 40.5 -15.5t12.5 -37.5v-353h18q54 0 54 92v101h136v-205h19q54 0 54 94v368zM488 -99q-24 -29 -44 -45q-12 -10 -10 -21t13.5 -14t26.5 5q43 27 87.5 74t78.5 101 l158 -145q16 -15 37 -9q27 9 27 37q0 22 -23 39l-170 129q27 53 32 99q3 27 -5.5 42t-38.5 15h-77q-30 0 -30 -23q0 -5 1.5 -8t4.5 -5t5.5 -3t7.5 -2t7 -2q27 -8 33 -12t5 -13q-9 -76 -83 -184l-108 86q27 47 31 88q6 56 -45 56h-78q-30 0 -30 -20q0 -3 0.5 -5.5t1.5 -4.5 t2 -3t3 -2.5t3.5 -2t4 -1.5t4 -1t5 -1t4.5 -1q20 -4 29 -11.5t7 -16.5q-7 -51 -57 -128t-101 -114q-20 -15 -10 -30.5t32 -4.5q36 17 82.5 60.5t82.5 95.5z" />
<glyph unicode="&#xac31;" horiz-adv-x="890" d="M88 655q-15 0 -23.5 -9.5t-8.5 -20.5q0 -13 8 -21.5t22 -8.5h229q-20 -85 -97 -175.5t-161 -140.5q-7 -4 -9 -14.5t3 -17.5q12 -14 36 -3q107 49 201.5 150t117.5 217q3 16 -8 30t-32 14h-278zM792 720q0 19 -11 32t-28 13h-93q-33 0 -33 -23q0 -17 39 -24 q28 -5 40.5 -15.5t12.5 -38.5v-152h-136v165q0 19 -10.5 32.5t-28.5 13.5h-94q-31 0 -31 -23q0 -18 39 -25q28 -5 40.5 -15t12.5 -38v-370h18q54 0 54 94v106h136v-215h19q54 0 54 93v390zM354 31q0 -79 61.5 -137t147.5 -58q85 0 147 58.5t62 136.5q0 79 -62 137.5 t-147 58.5q-87 0 -148 -58t-61 -138zM429 31q0 53 40.5 93.5t93.5 40.5t93.5 -40.5t40.5 -93.5t-40.5 -93t-93.5 -40t-93.5 40t-40.5 93z" />
<glyph unicode="&#xac38;" horiz-adv-x="910" d="M103 620q-15 0 -23.5 -9t-8.5 -21q0 -13 8 -22t22 -9h266q-26 -101 -113.5 -200t-180.5 -158q-8 -5 -9.5 -16t3.5 -17q12 -15 35 -4q116 56 221.5 169.5t133.5 242.5q3 16 -8 30t-30 14h-316zM717 720q0 19 -11 32t-28 13h-94q-32 0 -32 -23q0 -17 39 -24q28 -5 40.5 -16 t12.5 -38v-764h19q54 0 54 94v234h163q11 0 18.5 8.5t7.5 21.5q0 14 -7.5 22t-19.5 8h-162v190h163q11 0 18.5 8.5t7.5 21.5q0 14 -7.5 22t-19.5 8h-162v182z" />
<glyph unicode="&#xac39;" horiz-adv-x="910" d="M103 665q-15 0 -23.5 -9.5t-8.5 -21.5t8 -20.5t22 -8.5h266q-27 -90 -116.5 -173t-181.5 -130q-8 -4 -10 -15t3 -18q10 -14 34 -5q51 18 107 52.5t109 80t93 105t52 119.5q3 15 -8 29.5t-30 14.5h-316zM880 549q11 0 18.5 8.5t7.5 21.5t-8 22t-19 9h-162v110q0 19 -11 32 t-28 13h-94q-32 0 -32 -23q0 -17 39 -24q28 -5 40.5 -15.5t12.5 -38.5v-427h19q54 0 54 93v31h163q11 0 18.5 8t7.5 21q0 15 -7.5 23t-19.5 8h-162v128h163zM706 140q0 41 -40 41h-411q-9 0 -16.5 -9.5t-7.5 -21.5q0 -11 7.5 -20.5t16.5 -9.5h378v-273h20q22 0 37.5 24.5 t15.5 68.5v200z" />
<glyph unicode="&#xac3c;" horiz-adv-x="910" d="M102 660q-15 0 -23.5 -9.5t-8.5 -21.5t8 -21t22 -9h266q-26 -95 -113.5 -184t-181.5 -140q-8 -5 -10 -16.5t3 -17.5q10 -13 35 -4q119 44 227.5 153.5t129.5 225.5q2 16 -8.5 30t-29.5 14h-316zM880 522q11 0 18.5 9t7.5 22t-8 22t-19 9h-162v136q0 19 -10.5 32t-28.5 13 h-94q-32 0 -32 -22q0 -18 39 -25q28 -5 40.5 -15.5t12.5 -38.5v-571h19q54 0 54 94v116h163q11 0 18.5 8.5t7.5 22.5q0 13 -7.5 21t-19.5 8h-162v159h163zM268 -72q-1 -49 23 -67.5t77 -18.5h333q14 0 23 10t9 22q0 11 -9.5 20.5t-23.5 9.5h-338q-21 0 -21 22v180 q0 19 -11.5 32t-29.5 13h-82q-13 0 -23 -6t-10 -16q0 -12 7 -17.5t29 -9.5q27 -7 37 -16.5t10 -35.5v-122z" />
<glyph unicode="&#xac40;" horiz-adv-x="910" d="M102 675q-15 0 -23.5 -9.5t-8.5 -21.5t8 -21t22 -9h266q-29 -87 -119 -171.5t-175 -126.5q-7 -4 -10 -15t2 -17q10 -15 31 -7q108 38 222 139t139 215q3 16 -8 30t-30 14h-316zM880 562q11 0 18.5 9t7.5 22q0 14 -7.5 22.5t-19.5 8.5h-162v96q0 19 -10.5 32t-28.5 13h-94 q-32 0 -32 -22q0 -17 39 -25q28 -5 40.5 -15.5t12.5 -38.5v-385h19q54 0 54 93v13h163q11 0 18.5 8.5t7.5 21.5q0 14 -7.5 22.5t-19.5 8.5h-162v116h163zM256 62q-25 0 -25 -20q0 -18 21 -24q21 -5 27.5 -13.5t6.5 -30.5v-66q0 -31 18.5 -51t49.5 -20h351q13 0 21 9t8 22 q0 11 -8 20.5t-21 9.5h-319q-27 0 -27 26v79h305q37 0 37 47v135q0 40 -37 40h-379q-30 0 -30 -30q0 -11 8.5 -20.5t21.5 -9.5h342v-103h-371z" />
<glyph unicode="&#xac4b;" horiz-adv-x="910" d="M103 665q-15 0 -23.5 -9.5t-8.5 -21.5t8 -20.5t22 -8.5h266q-27 -90 -116.5 -173t-181.5 -130q-8 -4 -10 -15t3 -18q10 -14 34 -5q51 18 107 52.5t109 80t93 105t52 119.5q3 15 -8 29.5t-30 14.5h-316zM880 542q11 0 18.5 8.5t7.5 21.5q0 14 -7.5 22t-19.5 8h-162v118 q0 19 -11 32t-28 13h-94q-32 0 -32 -23q0 -17 39 -24q28 -6 40.5 -16.5t12.5 -37.5v-480h19q54 0 54 94v66h163q11 0 18.5 8.5t7.5 22.5q0 13 -8 21.5t-19 8.5h-162v137h163zM497 73q24 40 30 77q9 63 -44 63h-77q-30 0 -30 -22q0 -16 26 -22q26 -4 32 -8.5t4 -15.5 q-14 -68 -84.5 -148t-135.5 -122q-12 -8 -12 -19.5t10 -16t25 0.5q51 22 114.5 74t109.5 111l209 -170q17 -14 38 -7q20 9 23 37q2 20 -22 38z" />
<glyph unicode="&#xac4d;" horiz-adv-x="910" d="M103 665q-15 0 -23.5 -9.5t-8.5 -21.5t8 -20.5t22 -8.5h266q-27 -90 -116.5 -173t-181.5 -130q-8 -4 -10 -15t3 -18q10 -14 34 -5q51 18 107 52.5t109 80t93 105t52 119.5q3 15 -8 29.5t-30 14.5h-316zM880 549q11 0 18.5 8.5t7.5 21.5t-8 22t-19 9h-162v110q0 19 -11 32 t-28 13h-94q-32 0 -32 -23q0 -17 39 -24q28 -5 40.5 -15.5t12.5 -38.5v-427h19q54 0 54 93v31h163q11 0 18.5 8t7.5 21q0 15 -7.5 23t-19.5 8h-162v128h163zM279 32q0 -79 61.5 -137t147.5 -58q85 0 147 58.5t62 136.5q0 79 -62 137.5t-147 58.5q-87 0 -148 -58t-61 -138z M354 32q0 53 40.5 93.5t93.5 40.5t93.5 -40.5t40.5 -93.5t-40.5 -93t-93.5 -40t-93.5 40t-40.5 93z" />
<glyph unicode="&#xac54;" horiz-adv-x="890" d="M88 620q-15 0 -23.5 -9.5t-8.5 -20.5q0 -31 30 -31h231q-20 -94 -99.5 -196.5t-158.5 -156.5q-7 -5 -9.5 -17t1.5 -18q10 -16 35 -3q103 55 200.5 171.5t117.5 235.5q3 17 -8 31t-32 14h-276zM792 720q0 19 -11 32t-28 13h-93q-33 0 -33 -23q0 -17 39 -24q28 -5 40.5 -16 t12.5 -38v-121h-136v134q0 19 -10.5 32.5t-28.5 13.5h-94q-31 0 -31 -23q0 -18 39 -25q28 -5 40.5 -15.5t12.5 -37.5v-672h18q54 0 54 94v198h136v-342h19q54 0 54 94v726zM719 303h-136v178h136v-178z" />
<glyph unicode="&#xac58;" horiz-adv-x="890" d="M88 648q-15 0 -23.5 -9.5t-8.5 -21.5t8 -20.5t22 -8.5h229q-19 -83 -96.5 -173.5t-160.5 -142.5q-9 -6 -10.5 -16.5t3.5 -16.5q11 -14 36 -3q107 51 204.5 156t114.5 212q2 16 -9 30t-31 14h-278zM792 720q0 19 -10.5 32t-28.5 13h-93q-33 0 -33 -22q0 -18 39 -25 q28 -5 40.5 -15.5t12.5 -38.5v-109h-136v123q0 20 -10.5 33t-28.5 13h-94q-31 0 -31 -22q0 -19 39 -26q28 -5 40.5 -15t12.5 -38v-511h18q54 0 54 95v86h136v-202h19q54 0 54 95v534zM719 353h-136v141h136v-141zM319 -72q-1 -49 23 -67.5t78 -18.5h332q15 0 23.5 10t8.5 22 q0 11 -9 20.5t-24 9.5h-337q-22 0 -22 22v179q0 19 -11 32t-29 13h-82q-33 0 -33 -22q0 -12 7 -17.5t29 -9.5q27 -7 36.5 -16.5t9.5 -35.5v-121z" />
<glyph unicode="&#xac5c;" horiz-adv-x="890" d="M88 660q-15 0 -23.5 -10t-8.5 -21q0 -13 8 -22t22 -9h229q-21 -83 -96.5 -167.5t-160.5 -132.5q-8 -4 -10 -15t3 -17q11 -14 36 -3q67 31 132 80.5t119 123t67 148.5q2 16 -9 30.5t-31 14.5h-277zM792 720q0 19 -10.5 32t-28.5 13h-93q-33 0 -33 -22q0 -17 39 -25 q28 -5 40.5 -15.5t12.5 -38.5v-59h-136v71q0 20 -10.5 33t-28.5 13h-94q-31 0 -31 -22q0 -18 39 -26q28 -5 40.5 -15t12.5 -38v-342h18q54 0 54 93v3h136v-96h19q54 0 54 93v348zM719 435h-136v110h136v-110zM318 61q-25 0 -25 -20q0 -18 21 -24q21 -5 27.5 -13.5t6.5 -30.5 v-65q0 -31 18.5 -51t49.5 -20h351q13 0 21 9t8 22q0 11 -8 20.5t-21 9.5h-319q-27 0 -27 26v78h305q37 0 37 47v134q0 40 -37 40h-379q-14 0 -22 -8.5t-8 -21.5q0 -12 8.5 -21.5t21.5 -9.5h342v-101h-371z" />
<glyph unicode="&#xac70;" horiz-adv-x="850" d="M103 620q-15 0 -23.5 -9t-8.5 -21q0 -13 8 -22t22 -9h266q-26 -101 -113.5 -200t-180.5 -158q-8 -5 -9.5 -16t3.5 -17q12 -15 35 -4q116 56 221.5 169.5t133.5 242.5q3 16 -8 30t-30 14h-316zM738 720q0 19 -11 32t-29 13h-94q-32 0 -32 -23q0 -17 38 -24q28 -5 41 -16 t13 -38v-217h-235q-11 0 -18.5 -8.5t-7.5 -22.5q0 -13 7.5 -21.5t17.5 -8.5h236v-486h19q55 0 55 94v726z" />
<glyph unicode="&#xac71;" horiz-adv-x="850" d="M103 665q-15 0 -23.5 -9.5t-8.5 -21.5t8 -20.5t22 -8.5h266q-27 -90 -116.5 -173t-181.5 -130q-8 -4 -10 -15t3 -18q10 -14 34 -5q51 18 107 52.5t109 80t93 105t52 119.5q3 15 -8 29.5t-30 14.5h-316zM443 459h221v-222h19q25 0 40 23.5t15 69.5v390q0 19 -11 32t-29 13 h-94q-32 0 -32 -23q0 -17 38 -24q29 -5 41.5 -15.5t12.5 -38.5v-144h-220q-11 0 -18.5 -8.5t-7.5 -21.5t7 -22t18 -9zM721 143q0 41 -40 41h-410q-10 0 -17 -9.5t-7 -21.5q0 -11 7.5 -20.5t16.5 -9.5h377v-286h21q22 0 37 24.5t15 68.5v213z" />
<glyph unicode="&#xac74;" horiz-adv-x="850" d="M102 660q-15 0 -23.5 -9.5t-8.5 -21.5t8 -21t22 -9h266q-26 -95 -113.5 -184t-181.5 -140q-8 -5 -10 -16.5t3 -17.5q10 -13 35 -4q119 44 227.5 153.5t129.5 225.5q2 16 -8.5 30t-29.5 14h-316zM437 436h227v-343h19q55 0 55 94v533q0 19 -11 32t-29 13h-94 q-32 0 -32 -22q0 -18 38 -25q29 -5 41.5 -15.5t12.5 -38.5v-167h-226q-26 0 -26 -31q0 -13 7 -21.5t18 -8.5zM288 -72q-1 -49 23 -67.5t78 -18.5h332q15 0 23.5 10t8.5 22q0 11 -9 20.5t-24 9.5h-337q-22 0 -22 22v179q0 19 -11 32t-29 13h-82q-33 0 -33 -22q0 -12 7 -17.5 t29 -9.5q27 -7 36.5 -16.5t9.5 -35.5v-121z" />
<glyph unicode="&#xac77;" horiz-adv-x="850" d="M103 665q-15 0 -23.5 -9.5t-8.5 -21.5t8 -20.5t22 -8.5h266q-27 -90 -116.5 -173t-181.5 -130q-8 -4 -10 -15t3 -18q10 -14 34 -5q51 18 107 52.5t109 80t93 105t52 119.5q3 15 -8 29.5t-30 14.5h-316zM443 459h221v-222h19q25 0 40 23.5t15 69.5v390q0 19 -11 32t-29 13 h-94q-32 0 -32 -23q0 -17 38 -24q29 -5 41.5 -15.5t12.5 -38.5v-144h-220q-11 0 -18.5 -8.5t-7.5 -21.5t7 -22t18 -9zM698 120q9 0 16 9t7 20q0 12 -7 21.5t-17 9.5h-432q-28 0 -28 -21q0 -20 26 -25q22 -4 27.5 -16.5t5.5 -48.5v-166q0 -37 22 -51.5t49 -14.5h335 q14 0 22 9t8 22q0 11 -8.5 20.5t-21.5 9.5h-311q-12 0 -17 4.5t-5 19.5v198h329z" />
<glyph unicode="&#xac78;" horiz-adv-x="850" d="M102 675q-15 0 -23.5 -9.5t-8.5 -21.5t8 -21t22 -9h266q-29 -87 -119 -171.5t-175 -126.5q-7 -4 -10 -15t2 -17q10 -15 31 -7q108 38 222 139t139 215q3 16 -8 30t-30 14h-316zM447 469h217v-190h19q55 0 55 93v348q0 19 -11 32t-29 13h-94q-32 0 -32 -22q0 -17 38 -25 q29 -5 41.5 -15.5t12.5 -38.5v-135h-216q-26 0 -26 -30q0 -13 7 -21.5t18 -8.5zM273 63q-26 0 -26 -20q0 -18 22 -24q20 -5 27 -13.5t7 -30.5v-67q0 -31 18 -51t50 -20h350q14 0 21.5 9t7.5 22q0 11 -8 20.5t-21 9.5h-319q-26 0 -26 26v80h304q37 0 37 47v134q0 40 -37 40 h-378q-30 0 -30 -30q0 -11 8 -20.5t22 -9.5h341v-102h-370z" />
<glyph unicode="&#xac7a;" horiz-adv-x="850" d="M102 675q-15 0 -23.5 -9.5t-8.5 -21.5t8 -21t22 -9h266q-29 -87 -119 -171.5t-175 -126.5q-7 -4 -10 -15t2 -17q10 -15 31 -7q108 38 222 139t139 215q3 16 -8 30t-30 14h-316zM447 469h217v-190h19q55 0 55 93v348q0 19 -11 32t-29 13h-94q-32 0 -32 -22q0 -17 38 -25 q29 -5 41.5 -15.5t12.5 -38.5v-135h-216q-26 0 -26 -30q0 -13 7 -21.5t18 -8.5zM128 61q-25 0 -25 -19q0 -16 20 -23q16 -6 20.5 -14.5t4.5 -30.5v-66q0 -31 18.5 -51t49.5 -20h203q13 0 20.5 9t7.5 22q0 11 -7.5 20.5t-20.5 9.5h-171q-27 0 -27 26v78h156q37 0 37 47v132 q0 40 -36 40h-228q-28 0 -28 -30q0 -11 7.5 -21t20.5 -10h192v-99h-214zM665 160v-246h-121q1 6 1 28v218h120zM735 -147q10 0 16 9.5t6 21.5q0 29 -22 29h-6q9 21 9 63v208q0 15 -8.5 26t-25.5 11h-243q-33 0 -33 -19q0 -16 20 -24q15 -7 19.5 -15t4.5 -33v-303h25 q9 0 18 8t12 18h208z" />
<glyph unicode="&#xac80;" horiz-adv-x="850" d="M103 665q-15 0 -23.5 -9.5t-8.5 -21.5t8 -20.5t22 -8.5h266q-27 -90 -116.5 -173t-181.5 -130q-8 -4 -10 -15t3 -18q10 -14 34 -5q51 18 107 52.5t109 80t93 105t52 119.5q3 15 -8 29.5t-30 14.5h-316zM443 459h221v-222h19q25 0 40 23.5t15 69.5v390q0 19 -11 32t-29 13 h-94q-32 0 -32 -23q0 -17 38 -24q29 -5 41.5 -15.5t12.5 -38.5v-144h-220q-11 0 -18.5 -8.5t-7.5 -21.5t7 -22t18 -9zM648 117v-212h-282q3 21 3 27v185h279zM717 -157q11 0 17.5 9.5t6.5 20.5t-6 20.5t-17 9.5h-6q9 23 9 71v166q0 38 -33 38h-420q-31 0 -31 -20 q0 -19 26 -26q20 -5 26.5 -14.5t6.5 -35.5v-266h25q8 0 17.5 8.5t13.5 18.5h365z" />
<glyph unicode="&#xac81;" horiz-adv-x="850" d="M102 675q-15 0 -23.5 -9.5t-8.5 -21.5t8 -21t22 -9h266q-29 -87 -119 -171.5t-175 -126.5q-7 -4 -10 -15t2 -17q10 -15 31 -7q108 38 222 139t139 215q3 16 -8 30t-30 14h-316zM447 469h217v-190h19q55 0 55 93v348q0 19 -11 32t-29 13h-94q-32 0 -32 -22q0 -17 38 -25 q29 -5 41.5 -15.5t12.5 -38.5v-135h-216q-26 0 -26 -30q0 -13 7 -21.5t18 -8.5zM369 18h279v-112h-279v112zM717 -155q12 0 18 9t6 20q0 31 -23 31h-6q9 22 9 66v216q0 42 -39 42h-68q-31 0 -31 -21q0 -17 31 -24q21 -5 27.5 -11.5t6.5 -29.5v-64h-279v79q0 41 -36 41h-70 q-30 0 -30 -19q0 -20 26 -25q22 -5 29.5 -13.5t7.5 -32.5v-290h18q30 0 40 26h363z" />
<glyph unicode="&#xac83;" horiz-adv-x="850" d="M103 665q-15 0 -23.5 -9.5t-8.5 -21.5t8 -20.5t22 -8.5h266q-27 -90 -116.5 -173t-181.5 -130q-8 -4 -10 -15t3 -18q10 -14 34 -5q51 18 107 52.5t109 80t93 105t52 119.5q3 15 -8 29.5t-30 14.5h-316zM448 458h216v-274h19q55 0 55 94v442q0 19 -11 32t-29 13h-94 q-32 0 -32 -23q0 -17 38 -24q29 -6 41.5 -16.5t12.5 -37.5v-146h-215q-11 0 -18.5 -8.5t-7.5 -21.5t7.5 -21.5t17.5 -8.5zM510 71q25 42 31 79q9 63 -43 63h-77q-30 0 -30 -22q0 -16 26 -22q26 -4 32 -8.5t4 -15.5q-14 -68 -84.5 -148t-135.5 -122q-12 -8 -12 -19.5t10 -16 t25 0.5q50 22 112.5 73t108.5 109l209 -167q19 -14 40 -7q20 9 23 37q2 20 -22 38z" />
<glyph unicode="&#xac84;" horiz-adv-x="850" d="M102 671q-15 0 -23.5 -9.5t-8.5 -21.5t8 -21t22 -9h266q-26 -90 -121.5 -179t-177.5 -125q-8 -4 -9.5 -15t3.5 -18q9 -12 35 -4q113 38 224.5 140t135.5 218q3 16 -8 30t-30 14h-316zM444 464h220v-207h19q25 0 40 24t15 70v369q0 19 -11 32t-29 13h-94q-32 0 -32 -23 q0 -17 38 -24q28 -5 41 -16t13 -38v-140h-219q-26 0 -26 -30q0 -13 7 -21.5t18 -8.5zM443 -98q-24 -29 -44 -45q-12 -10 -10 -21t13.5 -14t26.5 5q43 27 87.5 74t78.5 101l158 -145q16 -15 37 -9q27 9 27 37q0 22 -23 39l-169 129q27 55 31 98q3 27 -5.5 42t-38.5 15h-77 q-30 0 -30 -23q0 -5 1.5 -8t4.5 -5t5.5 -3t7.5 -2t7 -2q27 -8 33 -12t5 -13q-9 -75 -83 -183l-107 86q26 48 30 87q6 56 -45 56h-78q-30 0 -30 -20q0 -3 0.5 -5.5t1.5 -4.5t2 -3t3 -2.5t3.5 -2t4 -1.5t4 -1t5 -1t4.5 -1q20 -4 29 -11.5t7 -16.5q-7 -51 -57 -127.5 t-101 -113.5q-20 -15 -10 -30.5t32 -4.5q37 18 83 61t82 95z" />
<glyph unicode="&#xac85;" horiz-adv-x="850" d="M103 665q-15 0 -23.5 -9.5t-8.5 -21.5t8 -20.5t22 -8.5h266q-27 -90 -116.5 -173t-181.5 -130q-8 -4 -10 -15t3 -18q10 -14 34 -5q51 18 107 52.5t109 80t93 105t52 119.5q3 15 -8 29.5t-30 14.5h-316zM443 459h221v-222h19q25 0 40 23.5t15 69.5v390q0 19 -11 32t-29 13 h-94q-32 0 -32 -23q0 -17 38 -24q29 -5 41.5 -15.5t12.5 -38.5v-144h-220q-11 0 -18.5 -8.5t-7.5 -21.5t7 -22t18 -9zM304 32q0 -79 61.5 -137t147.5 -58q85 0 147 58.5t62 136.5q0 79 -62 137.5t-147 58.5q-87 0 -148 -58t-61 -138zM379 32q0 53 40.5 93.5t93.5 40.5 t93.5 -40.5t40.5 -93.5t-40.5 -93t-93.5 -40t-93.5 40t-40.5 93z" />
<glyph unicode="&#xac86;" horiz-adv-x="850" d="M102 671q-15 0 -23.5 -9.5t-8.5 -21.5t8 -21t22 -9h266q-26 -90 -121.5 -179t-177.5 -125q-8 -4 -9.5 -15t3.5 -18q9 -12 35 -4q113 38 224.5 140t135.5 218q3 16 -8 30t-30 14h-316zM444 464h220v-207h19q25 0 40 24t15 70v369q0 19 -11 32t-29 13h-94q-32 0 -32 -23 q0 -17 38 -24q28 -5 41 -16t13 -38v-140h-219q-26 0 -26 -30q0 -13 7 -21.5t18 -8.5zM594 13q70 70 88 134q6 19 -3.5 36t-29.5 17h-330q-8 0 -16 -9t-8 -20q0 -13 7 -22.5t16 -9.5h270q-33 -72 -124 -146t-180 -113q-24 -11 -14 -34q8 -13 32 -7q118 31 240 128l189 -123 q16 -12 39 -4q23 10 23 37t-24 40z" />
<glyph unicode="&#xac89;" horiz-adv-x="850" d="M102 675q-15 0 -23.5 -9.5t-8.5 -21.5t8 -21t22 -9h266q-29 -87 -119 -171.5t-175 -126.5q-7 -4 -10 -15t2 -17q10 -15 31 -7q108 38 222 139t139 215q3 16 -8 30t-30 14h-316zM447 469h217v-190h19q55 0 55 93v348q0 19 -11 32t-29 13h-94q-32 0 -32 -22q0 -17 38 -25 q29 -5 41.5 -15.5t12.5 -38.5v-135h-216q-26 0 -26 -30q0 -13 7 -21.5t18 -8.5zM697 162q10 0 17 9.5t7 21.5t-7.5 21t-17.5 9h-416q-29 0 -29 -21q0 -20 27 -25q22 -4 27.5 -16.5t5.5 -48.5v-199q0 -37 21.5 -51.5t49.5 -14.5h321q13 0 21 9t8 21t-8 21.5t-22 9.5h-297 q-11 0 -16 4.5t-5 19.5v76h298q15 0 22 9t7 21q0 11 -7.5 20.5t-21.5 9.5h-298v94h313z" />
<glyph unicode="&#xac8a;" horiz-adv-x="850" d="M103 665q-15 0 -23.5 -9.5t-8.5 -21.5t8 -20.5t22 -8.5h266q-27 -90 -116.5 -173t-181.5 -130q-8 -4 -10 -15t3 -18q10 -14 34 -5q51 18 107 52.5t109 80t93 105t52 119.5q3 15 -8 29.5t-30 14.5h-316zM443 459h221v-222h19q25 0 40 23.5t15 69.5v390q0 19 -11 32t-29 13 h-94q-32 0 -32 -23q0 -17 38 -24q29 -5 41.5 -15.5t12.5 -38.5v-144h-220q-11 0 -18.5 -8.5t-7.5 -21.5t7 -22t18 -9zM252 175q-12 0 -19.5 -10t-7.5 -21t7 -20.5t19 -9.5h79v-216h-80q-11 0 -18 -10t-7 -20q0 -12 6.5 -21.5t17.5 -9.5h469q13 0 20 9.5t7 21.5 q0 9 -7.5 19.5t-20.5 10.5h-77v216h80q12 0 18.5 10t6.5 21t-7.5 20.5t-18.5 9.5h-467zM567 114v-216h-165v216h165z" />
<glyph unicode="&#xac8b;" horiz-adv-x="850" d="M102 675q-15 0 -23.5 -9.5t-8.5 -21.5t8 -21t22 -9h266q-29 -87 -119 -171.5t-175 -126.5q-7 -4 -10 -15t2 -17q10 -15 31 -7q108 38 222 139t139 215q3 16 -8 30t-30 14h-316zM447 471h217v-224h19q25 0 40 24t15 70v379q0 19 -11 32t-29 13h-94q-32 0 -32 -23 q0 -17 38 -24q28 -5 41 -16t13 -38v-134h-216q-26 0 -26 -30q0 -13 7 -21t18 -8zM410 206q22 -15 65 -15h89q14 0 24 8t10 22q0 13 -9 22t-27 9q-95 0 -163 29q-26 9 -37 -5q-9 -8 -7.5 -21t10.5 -19zM269 135q-13 0 -20.5 -9.5t-7.5 -21.5t7.5 -21t20.5 -9h87 q-44 -39 -44 -98q-1 -61 48.5 -104.5t128.5 -42.5q78 -1 126.5 41.5t49.5 105.5q0 58 -45 98h89q14 0 21 9t7 21t-7 21.5t-21 9.5h-440zM387 -20q0 38 27.5 65t74.5 28q42 -1 70.5 -28.5t28.5 -64.5t-28 -66.5t-71 -28.5q-48 -1 -75 28.5t-27 66.5z" />
<glyph unicode="&#xac8c;" horiz-adv-x="890" d="M88 620q-15 0 -23.5 -9.5t-8.5 -20.5q0 -31 30 -31h231q-20 -94 -99.5 -196.5t-158.5 -156.5q-7 -5 -9.5 -17t1.5 -18q10 -16 35 -3q103 55 200.5 171.5t117.5 235.5q3 17 -8 31t-32 14h-276zM793 720q0 19 -11 32t-28 13h-94q-32 0 -32 -23q0 -17 39 -24q28 -5 40.5 -16 t12.5 -38v-764h19q54 0 54 94v726zM594 677q0 19 -11 32.5t-28 13.5h-94q-31 0 -31 -23q0 -18 39 -25q28 -5 40.5 -15.5t12.5 -37.5v-180h-142q-10 0 -17.5 -8.5t-7.5 -22.5q0 -12 7.5 -20.5t16.5 -8.5h143v-432h18q54 0 54 94v633z" />
<glyph unicode="&#xac90;" horiz-adv-x="890" d="M88 648q-15 0 -23.5 -9.5t-8.5 -21.5t8 -20.5t22 -8.5h229q-19 -83 -96.5 -173.5t-160.5 -142.5q-9 -6 -10.5 -16.5t3.5 -16.5q11 -14 36 -3q107 51 204.5 156t114.5 212q2 16 -9 30t-31 14h-278zM377 424h145v-312h18q54 0 54 95v471q0 20 -11 33t-28 13h-94 q-31 0 -31 -22q0 -19 39 -26q28 -5 40.5 -15t12.5 -38v-140h-144q-10 0 -17.5 -8t-7.5 -21t7.5 -21.5t16.5 -8.5zM793 720q0 19 -10.5 32t-28.5 13h-94q-32 0 -32 -22q0 -18 39 -25q28 -5 40.5 -15.5t12.5 -38.5v-573h19q54 0 54 95v534zM319 -72q-1 -49 23 -67.5t78 -18.5 h332q15 0 23.5 10t8.5 22q0 11 -9 20.5t-24 9.5h-337q-22 0 -22 22v179q0 19 -11 32t-29 13h-82q-33 0 -33 -22q0 -12 7 -17.5t29 -9.5q27 -7 36.5 -16.5t9.5 -35.5v-121z" />
<glyph unicode="&#xac94;" horiz-adv-x="890" d="M88 660q-15 0 -23.5 -10t-8.5 -21q0 -13 8 -22t22 -9h229q-21 -83 -96.5 -167.5t-160.5 -132.5q-8 -4 -10 -15t3 -17q11 -14 36 -3q67 31 132 80.5t119 123t67 148.5q2 16 -9 30.5t-31 14.5h-277zM387 462h147v-183h18q54 0 54 93v304q0 20 -11 33t-28 13h-94 q-31 0 -31 -22q0 -18 39 -26q28 -5 40.5 -15t12.5 -38v-98h-146q-10 0 -17.5 -8.5t-7.5 -21.5q0 -14 7.5 -22.5t16.5 -8.5zM793 719q0 19 -10.5 32t-28.5 13h-94q-32 0 -32 -22q0 -17 39 -25q28 -5 40.5 -15.5t12.5 -38.5v-394h19q54 0 54 93v357zM318 61q-25 0 -25 -20 q0 -18 21 -24q21 -5 27.5 -13.5t6.5 -30.5v-65q0 -31 18.5 -51t49.5 -20h351q13 0 21 9t8 22q0 11 -8 20.5t-21 9.5h-319q-27 0 -27 26v78h305q37 0 37 47v134q0 40 -37 40h-379q-14 0 -22 -8.5t-8 -21.5q0 -12 8.5 -21.5t21.5 -9.5h342v-101h-371z" />
<glyph unicode="&#xac9c;" horiz-adv-x="890" d="M88 655q-15 0 -23.5 -9.5t-8.5 -20.5q0 -13 8 -21.5t22 -8.5h229q-20 -85 -97 -175.5t-161 -140.5q-7 -4 -9 -14.5t3 -17.5q12 -14 36 -3q75 34 149.5 98.5t120.5 143.5q-2 -6 -2 -11q0 -13 7.5 -21.5t16.5 -8.5h148v-202h18q54 0 54 94v340q0 19 -11 32.5t-28 13.5h-94 q-31 0 -31 -23q0 -18 39 -25q28 -5 40.5 -15t12.5 -38v-117h-147q-8 0 -17 -7q31 57 43 113q3 16 -8 30t-32 14h-278zM793 720q0 19 -11 32t-28 13h-94q-32 0 -32 -23q0 -17 39 -24q28 -5 40.5 -15.5t12.5 -38.5v-431h19q54 0 54 93v394zM690 121v-216h-282q3 21 3 27v189 h279zM759 -157q10 0 16.5 9.5t6.5 20.5t-6 21t-16 10h-7q10 20 10 70v170q0 15 -8 26.5t-25 11.5h-421q-31 0 -31 -20q0 -19 27 -26q20 -5 26.5 -14.5t6.5 -35.5v-270h25q8 0 17 8.5t13 18.5h366z" />
<glyph unicode="&#xac9d;" horiz-adv-x="890" d="M88 660q-15 0 -23.5 -10t-8.5 -21q0 -13 8 -22t22 -9h229q-21 -83 -96.5 -167.5t-160.5 -132.5q-8 -4 -10 -15t3 -17q11 -14 36 -3q67 31 132 80.5t119 123t67 148.5q2 16 -9 30.5t-31 14.5h-277zM387 462h147v-183h18q54 0 54 93v304q0 20 -11 33t-28 13h-94 q-31 0 -31 -22q0 -18 39 -26q28 -5 40.5 -15t12.5 -38v-98h-146q-10 0 -17.5 -8.5t-7.5 -21.5q0 -14 7.5 -22.5t16.5 -8.5zM793 719q0 19 -10.5 32t-28.5 13h-94q-32 0 -32 -22q0 -17 39 -25q28 -5 40.5 -15.5t12.5 -38.5v-394h19q54 0 54 93v357zM421 17h279v-111h-279v111 zM769 -155q11 0 17 9t6 20q0 31 -23 31h-6q10 20 10 66v215q0 42 -39 42h-68q-31 0 -31 -21q0 -18 31 -24q20 -5 27 -12t7 -30v-63h-279v77q0 41 -36 41h-69q-32 0 -32 -19q0 -11 5.5 -16.5t21.5 -8.5q22 -5 29.5 -13.5t7.5 -32.5v-287h17q30 0 40 26h364z" />
<glyph unicode="&#xac9f;" horiz-adv-x="890" d="M88 655q-15 0 -23.5 -9.5t-8.5 -20.5q0 -13 8 -21.5t22 -8.5h229q-20 -85 -97 -175.5t-161 -140.5q-7 -4 -9 -14.5t3 -17.5q12 -14 36 -3q107 49 201.5 150t117.5 217q3 16 -8 30t-32 14h-278zM387 446h145v-198h18q54 0 54 94v335q0 20 -11 33t-28 13h-94q-31 0 -31 -22 q0 -18 39 -26q28 -5 40.5 -15t12.5 -38v-117h-144q-10 0 -17.5 -8t-7.5 -22q0 -12 7.5 -20.5t16.5 -8.5zM793 721q0 19 -10.5 31.5t-28.5 12.5h-94q-32 0 -32 -22q0 -17 39 -25q28 -5 40.5 -15.5t12.5 -38.5v-469h19q54 0 54 94v432zM548 71q25 44 30 78q9 63 -44 63h-77 q-29 0 -29 -22q0 -16 26 -22q25 -4 31 -8.5t4 -15.5q-14 -68 -83 -148t-134 -122q-12 -8 -12 -19t10 -16t26 0q51 23 113 74t106 110l208 -168q19 -15 39 -7q22 11 24 37q2 20 -23 38z" />
<glyph unicode="&#xaca0;" horiz-adv-x="890" d="M88 658q-15 0 -23.5 -10t-8.5 -21q0 -13 8 -22t22 -9h228q-20 -85 -95 -171t-161 -138q-9 -5 -10.5 -15.5t3.5 -17.5q12 -14 36 -3q107 51 201.5 150.5t116.5 211.5q3 16 -8 30.5t-32 14.5h-277zM386 452h144v-194h18q54 0 54 93v326q0 19 -11 32.5t-28 13.5h-94 q-31 0 -31 -23q0 -18 39 -25q28 -5 40.5 -15.5t12.5 -37.5v-110h-143q-11 0 -18 -8t-7 -21q0 -14 7 -22.5t17 -8.5zM793 720q0 19 -11 32t-28 13h-94q-32 0 -32 -23q0 -17 39 -24q28 -5 40.5 -16t12.5 -38v-417h19q54 0 54 94v379zM488 -99q-24 -29 -44 -45q-12 -10 -10 -21 t13.5 -14t26.5 5q43 27 87.5 74t78.5 101l158 -145q16 -15 37 -9q27 9 27 37q0 22 -23 39l-170 129q27 53 32 99q3 27 -5.5 42t-38.5 15h-77q-30 0 -30 -23q0 -5 1.5 -8t4.5 -5t5.5 -3t7.5 -2t7 -2q27 -8 33 -12t5 -13q-9 -76 -83 -184l-108 86q27 47 31 88q6 56 -45 56h-78 q-30 0 -30 -20q0 -3 0.5 -5.5t1.5 -4.5t2 -3t3 -2.5t3.5 -2t4 -1.5t4 -1t5 -1t4.5 -1q20 -4 29 -11.5t7 -16.5q-7 -51 -57 -128t-101 -114q-20 -15 -10 -30.5t32 -4.5q36 17 82.5 60.5t82.5 95.5z" />
<glyph unicode="&#xaca1;" horiz-adv-x="890" d="M88 655q-15 0 -23.5 -9.5t-8.5 -20.5q0 -13 8 -21.5t22 -8.5h229q-20 -85 -97 -175.5t-161 -140.5q-7 -4 -9 -14.5t3 -17.5q12 -14 36 -3q75 34 149.5 98.5t120.5 143.5q-2 -6 -2 -11q0 -13 7.5 -21.5t16.5 -8.5h148v-202h18q54 0 54 94v340q0 19 -11 32.5t-28 13.5h-94 q-31 0 -31 -23q0 -18 39 -25q28 -5 40.5 -15t12.5 -38v-117h-147q-8 0 -17 -7q31 57 43 113q3 16 -8 30t-32 14h-278zM793 720q0 19 -11 32t-28 13h-94q-32 0 -32 -23q0 -17 39 -24q28 -5 40.5 -15.5t12.5 -38.5v-431h19q54 0 54 93v394zM354 31q0 -79 61.5 -137t147.5 -58 q85 0 147 58.5t62 136.5q0 79 -62 137.5t-147 58.5q-87 0 -148 -58t-61 -138zM429 31q0 53 40.5 93.5t93.5 40.5t93.5 -40.5t40.5 -93.5t-40.5 -93t-93.5 -40t-93.5 40t-40.5 93z" />
<glyph unicode="&#xaca8;" horiz-adv-x="850" d="M103 620q-15 0 -23.5 -9t-8.5 -21q0 -13 8 -22t22 -9h266q-26 -101 -113.5 -200t-180.5 -158q-8 -5 -9.5 -16t3.5 -17q12 -15 35 -4q95 46 187.5 134.5t139.5 193.5q6 -2 8 -2h227v-165h-231q-11 0 -18.5 -8t-7.5 -21t7.5 -21.5t17.5 -8.5h232v-366h19q55 0 55 94v726 q0 18 -11.5 31.5t-28.5 13.5h-94q-32 0 -32 -23q0 -17 38 -24q28 -5 41 -16t13 -38v-113h-213q1 4 3 12.5t3 12.5q3 16 -8 30t-30 14h-316z" />
<glyph unicode="&#xaca9;" horiz-adv-x="850" d="M103 665q-15 0 -23.5 -9.5t-8.5 -21.5t8 -20.5t22 -8.5h266q-27 -90 -116.5 -173t-181.5 -130q-8 -4 -10 -15t3 -18q10 -14 34 -5q97 35 198 117.5t144 181.5q8 -11 19 -11h207v-133h-211q-11 0 -18.5 -8.5t-7.5 -21.5t7.5 -22t17.5 -9h212v-131h19q25 0 40 23.5t15 69.5 v400q0 18 -11.5 31.5t-28.5 13.5h-94q-32 0 -32 -23q0 -17 38 -24q29 -5 41.5 -15.5t12.5 -38.5v-51h-209q1 1 1 4t1 4q3 15 -8 29.5t-30 14.5h-316zM721 143q0 41 -40 41h-410q-10 0 -17 -9.5t-7 -21.5q0 -11 7.5 -20.5t16.5 -9.5h377v-286h21q22 0 37 24.5t15 68.5v213z " />
<glyph unicode="&#xacaa;" horiz-adv-x="850" d="M102 671q-15 0 -23.5 -9.5t-8.5 -21.5t8 -21t22 -9h266q-26 -90 -121.5 -179t-177.5 -125q-8 -4 -9.5 -15t3.5 -18q9 -12 35 -4q93 31 191 110t144 175q2 -1 6 -1h227v-122h-231q-11 0 -18.5 -8.5t-7.5 -22.5q0 -13 7.5 -21.5t17.5 -8.5h232v-133h19q25 0 40 24t15 70 v389q0 18 -11.5 31.5t-28.5 13.5h-94q-32 0 -32 -23q0 -17 38 -24q28 -5 41 -16t13 -38v-51h-211q1 2 2 7t1 7q3 16 -8 30t-30 14h-316zM733 152q0 41 -41 41h-201q-10 0 -17 -9t-7 -20q0 -12 7 -21.5t17 -9.5h169v-296h20q22 0 37.5 24.5t15.5 68.5v222zM440 152 q0 41 -39 41h-224q-9 0 -16.5 -9t-7.5 -20q0 -12 7.5 -21.5t17.5 -9.5h189v-296h21q22 0 37 24.5t15 68.5v222z" />
<glyph unicode="&#xacac;" horiz-adv-x="850" d="M102 660q-15 0 -23.5 -9.5t-8.5 -21.5t8 -21t22 -9h266q-26 -95 -113.5 -184t-181.5 -140q-8 -5 -10 -16.5t3 -17.5q10 -13 35 -4q99 37 195 122.5t139 183.5h231v-157h-231q-11 0 -18.5 -8.5t-7.5 -21.5q0 -14 7.5 -22.5t17.5 -8.5h232v-232h19q55 0 55 94v534 q0 19 -11.5 32t-28.5 13h-94q-32 0 -32 -22q0 -18 38 -25q29 -5 41.5 -15.5t12.5 -38.5v-60h-210q0 2 1 5.5t1 5.5q2 16 -8.5 30t-29.5 14h-316zM288 -72q-1 -49 23 -67.5t78 -18.5h332q15 0 23.5 10t8.5 22q0 11 -9 20.5t-24 9.5h-337q-22 0 -22 22v179q0 19 -11 32t-29 13 h-82q-33 0 -33 -22q0 -12 7 -17.5t29 -9.5q27 -7 36.5 -16.5t9.5 -35.5v-121z" />
<glyph unicode="&#xacaf;" horiz-adv-x="850" d="M103 665q-15 0 -23.5 -9.5t-8.5 -21.5t8 -20.5t22 -8.5h266q-27 -90 -116.5 -173t-181.5 -130q-8 -4 -10 -15t3 -18q10 -14 34 -5q97 35 198 117.5t144 181.5q8 -11 19 -11h207v-133h-211q-11 0 -18.5 -8.5t-7.5 -21.5t7.5 -22t17.5 -9h212v-131h19q25 0 40 23.5t15 69.5 v400q0 18 -11.5 31.5t-28.5 13.5h-94q-32 0 -32 -23q0 -17 38 -24q29 -5 41.5 -15.5t12.5 -38.5v-51h-209q1 1 1 4t1 4q3 15 -8 29.5t-30 14.5h-316zM698 120q9 0 16 9t7 20q0 12 -7 21.5t-17 9.5h-432q-28 0 -28 -21q0 -20 26 -25q22 -4 27.5 -16.5t5.5 -48.5v-166 q0 -37 22 -51.5t49 -14.5h335q14 0 22 9t8 22q0 11 -8.5 20.5t-21.5 9.5h-311q-12 0 -17 4.5t-5 19.5v198h329z" />
<glyph unicode="&#xacb0;" horiz-adv-x="850" d="M102 675q-15 0 -23.5 -9.5t-8.5 -21.5t8 -21t22 -9h266q-29 -87 -119 -171.5t-175 -126.5q-7 -4 -10 -15t2 -17q10 -15 31 -7q90 31 189.5 110t146.5 174q9 -7 16 -7h217v-111h-221q-11 0 -18.5 -8t-7.5 -22q0 -13 7.5 -21.5t17.5 -8.5h222v-104h19q55 0 55 93v346 q0 19 -11.5 32t-28.5 13h-94q-32 0 -32 -22q0 -17 38 -25q29 -5 41.5 -15.5t12.5 -38.5v-48h-212q1 3 2.5 8.5t1.5 8.5q3 16 -8 30t-30 14h-316zM273 63q-26 0 -26 -20q0 -18 22 -24q20 -5 27 -13.5t7 -30.5v-67q0 -31 18 -51t50 -20h350q14 0 21.5 9t7.5 22q0 11 -8 20.5 t-21 9.5h-319q-26 0 -26 26v80h304q37 0 37 47v134q0 40 -37 40h-378q-30 0 -30 -30q0 -11 8 -20.5t22 -9.5h341v-102h-370z" />
<glyph unicode="&#xacb8;" horiz-adv-x="850" d="M103 665q-15 0 -23.5 -9.5t-8.5 -21.5t8 -20.5t22 -8.5h266q-27 -90 -116.5 -173t-181.5 -130q-8 -4 -10 -15t3 -18q10 -14 34 -5q97 35 198 117.5t144 181.5q8 -11 19 -11h207v-133h-211q-11 0 -18.5 -8.5t-7.5 -21.5t7.5 -22t17.5 -9h212v-131h19q25 0 40 23.5t15 69.5 v400q0 18 -11.5 31.5t-28.5 13.5h-94q-32 0 -32 -23q0 -17 38 -24q29 -5 41.5 -15.5t12.5 -38.5v-51h-209q1 1 1 4t1 4q3 15 -8 29.5t-30 14.5h-316zM648 117v-212h-282q3 21 3 27v185h279zM717 -157q11 0 17.5 9.5t6.5 20.5t-6 20.5t-17 9.5h-6q9 23 9 71v166q0 38 -33 38 h-420q-31 0 -31 -20q0 -19 26 -26q20 -5 26.5 -14.5t6.5 -35.5v-266h25q8 0 17.5 8.5t13.5 18.5h365z" />
<glyph unicode="&#xacb9;" horiz-adv-x="850" d="M102 675q-15 0 -23.5 -9.5t-8.5 -21.5t8 -21t22 -9h266q-29 -87 -119 -171.5t-175 -126.5q-7 -4 -10 -15t2 -17q10 -15 31 -7q90 31 189.5 110t146.5 174q9 -7 16 -7h217v-111h-221q-11 0 -18.5 -8t-7.5 -22q0 -13 7.5 -21.5t17.5 -8.5h222v-104h19q55 0 55 93v346 q0 19 -11.5 32t-28.5 13h-94q-32 0 -32 -22q0 -17 38 -25q29 -5 41.5 -15.5t12.5 -38.5v-48h-212q1 3 2.5 8.5t1.5 8.5q3 16 -8 30t-30 14h-316zM369 18h279v-112h-279v112zM717 -155q12 0 18 9t6 20q0 31 -23 31h-6q9 22 9 66v216q0 42 -39 42h-68q-31 0 -31 -21 q0 -17 31 -24q21 -5 27.5 -11.5t6.5 -29.5v-64h-279v79q0 41 -36 41h-70q-30 0 -30 -19q0 -20 26 -25q22 -5 29.5 -13.5t7.5 -32.5v-290h18q30 0 40 26h363z" />
<glyph unicode="&#xacbb;" horiz-adv-x="850" d="M103 665q-15 0 -23.5 -9.5t-8.5 -21.5t8 -20.5t22 -8.5h266q-27 -90 -116.5 -173t-181.5 -130q-8 -4 -10 -15t3 -18q10 -14 34 -5q93 34 191.5 112t144.5 172q1 -1 5 -1h227v-127h-231q-11 0 -18.5 -8.5t-7.5 -21.5q0 -14 7.5 -22.5t17.5 -8.5h232v-175h19q55 0 55 94 v442q0 18 -11.5 31.5t-28.5 13.5h-94q-32 0 -32 -23q0 -17 38 -24q29 -6 41.5 -16.5t12.5 -37.5v-56h-210q0 2 1 6.5t2 6.5q3 15 -8 29.5t-30 14.5h-316zM510 71q25 42 31 79q9 63 -43 63h-77q-30 0 -30 -22q0 -16 26 -22q26 -4 32 -8.5t4 -15.5q-14 -68 -84.5 -148 t-135.5 -122q-12 -8 -12 -19.5t10 -16t25 0.5q50 22 112.5 73t108.5 109l209 -167q19 -14 40 -7q20 9 23 37q2 20 -22 38z" />
<glyph unicode="&#xacbc;" horiz-adv-x="850" d="M102 671q-15 0 -23.5 -9.5t-8.5 -21.5t8 -21t22 -9h266q-26 -90 -121.5 -179t-177.5 -125q-8 -4 -9.5 -15t3.5 -18q9 -12 35 -4q93 31 191 110t144 175q2 -1 6 -1h227v-122h-231q-11 0 -18.5 -8.5t-7.5 -22.5q0 -13 7.5 -21.5t17.5 -8.5h232v-133h19q25 0 40 24t15 70 v389q0 18 -11.5 31.5t-28.5 13.5h-94q-32 0 -32 -23q0 -17 38 -24q28 -5 41 -16t13 -38v-51h-211q1 2 2 7t1 7q3 16 -8 30t-30 14h-316zM443 -98q-24 -29 -44 -45q-12 -10 -10 -21t13.5 -14t26.5 5q43 27 87.5 74t78.5 101l158 -145q16 -15 37 -9q27 9 27 37q0 22 -23 39 l-169 129q27 55 31 98q3 27 -5.5 42t-38.5 15h-77q-30 0 -30 -23q0 -5 1.5 -8t4.5 -5t5.5 -3t7.5 -2t7 -2q27 -8 33 -12t5 -13q-9 -75 -83 -183l-107 86q26 48 30 87q6 56 -45 56h-78q-30 0 -30 -20q0 -3 0.5 -5.5t1.5 -4.5t2 -3t3 -2.5t3.5 -2t4 -1.5t4 -1t5 -1t4.5 -1 q20 -4 29 -11.5t7 -16.5q-7 -51 -57 -127.5t-101 -113.5q-20 -15 -10 -30.5t32 -4.5q37 18 83 61t82 95z" />
<glyph unicode="&#xacbd;" horiz-adv-x="850" d="M103 665q-15 0 -23.5 -9.5t-8.5 -21.5t8 -20.5t22 -8.5h266q-27 -90 -116.5 -173t-181.5 -130q-8 -4 -10 -15t3 -18q10 -14 34 -5q97 35 198 117.5t144 181.5q8 -11 19 -11h207v-133h-211q-11 0 -18.5 -8.5t-7.5 -21.5t7.5 -22t17.5 -9h212v-131h19q25 0 40 23.5t15 69.5 v400q0 18 -11.5 31.5t-28.5 13.5h-94q-32 0 -32 -23q0 -17 38 -24q29 -5 41.5 -15.5t12.5 -38.5v-51h-209q1 1 1 4t1 4q3 15 -8 29.5t-30 14.5h-316zM304 32q0 -79 61.5 -137t147.5 -58q85 0 147 58.5t62 136.5q0 79 -62 137.5t-147 58.5q-87 0 -148 -58t-61 -138zM379 32 q0 53 40.5 93.5t93.5 40.5t93.5 -40.5t40.5 -93.5t-40.5 -93t-93.5 -40t-93.5 40t-40.5 93z" />
<glyph unicode="&#xacc1;" horiz-adv-x="850" d="M102 675q-15 0 -23.5 -9.5t-8.5 -21.5t8 -21t22 -9h266q-29 -87 -119 -171.5t-175 -126.5q-7 -4 -10 -15t2 -17q10 -15 31 -7q90 31 189.5 110t146.5 174q9 -7 16 -7h217v-111h-221q-11 0 -18.5 -8t-7.5 -22q0 -13 7.5 -21.5t17.5 -8.5h222v-104h19q55 0 55 93v346 q0 19 -11.5 32t-28.5 13h-94q-32 0 -32 -22q0 -17 38 -25q29 -5 41.5 -15.5t12.5 -38.5v-48h-212q1 3 2.5 8.5t1.5 8.5q3 16 -8 30t-30 14h-316zM697 162q10 0 17 9.5t7 21.5t-7.5 21t-17.5 9h-416q-29 0 -29 -21q0 -20 27 -25q22 -4 27.5 -16.5t5.5 -48.5v-199 q0 -37 21.5 -51.5t49.5 -14.5h321q13 0 21 9t8 21t-8 21.5t-22 9.5h-297q-11 0 -16 4.5t-5 19.5v76h298q15 0 22 9t7 21q0 11 -7.5 20.5t-21.5 9.5h-298v94h313z" />
<glyph unicode="&#xacc4;" horiz-adv-x="890" d="M88 620q-15 0 -23.5 -9.5t-8.5 -20.5q0 -31 30 -31h231q-20 -94 -99.5 -196.5t-158.5 -156.5q-7 -5 -9.5 -17t1.5 -18q10 -16 35 -3q85 45 170.5 136.5t125.5 192.5h140v-168h-149q-11 0 -18 -8t-7 -21q0 -14 7 -22.5t17 -8.5h150v-319h18q54 0 54 94v633q0 19 -11 32.5 t-28 13.5h-94q-31 0 -31 -23q0 -18 38 -25q29 -5 41.5 -15.5t12.5 -37.5v-64h-121q1 3 2 8.5t1 8.5q3 17 -8 31t-32 14h-276zM793 720q0 19 -11 32t-28 13h-94q-32 0 -32 -23q0 -17 38 -24q28 -5 40.5 -16t12.5 -38v-764h20q54 0 54 94v726z" />
<glyph unicode="&#xacc8;" horiz-adv-x="890" d="M88 648q-15 0 -23.5 -9.5t-8.5 -21.5t8 -20.5t22 -8.5h229q-19 -83 -96.5 -173.5t-160.5 -142.5q-9 -6 -10.5 -16.5t3.5 -16.5q11 -14 36 -3q87 41 172.5 122.5t124.5 171.5h148v-149h-159q-11 0 -18.5 -8.5t-7.5 -22.5q0 -12 7.5 -20.5t16.5 -8.5h161v-209h18 q54 0 54 95v471q0 20 -11 33t-28 13h-94q-31 0 -31 -22q0 -19 39 -26q28 -5 40.5 -15t12.5 -38v-33h-129q1 3 2 7t1 7q2 16 -9 30t-31 14h-278zM793 720q0 19 -10.5 32t-28.5 13h-94q-32 0 -32 -22q0 -18 39 -25q28 -5 40.5 -15.5t12.5 -38.5v-573h19q54 0 54 95v534z M319 -72q-1 -49 23 -67.5t78 -18.5h332q15 0 23.5 10t8.5 22q0 11 -9 20.5t-24 9.5h-337q-22 0 -22 22v179q0 19 -11 32t-29 13h-82q-33 0 -33 -22q0 -12 7 -17.5t29 -9.5q27 -7 36.5 -16.5t9.5 -35.5v-121z" />
<glyph unicode="&#xaccc;" horiz-adv-x="890" d="M88 660q-15 0 -23.5 -10t-8.5 -21q0 -13 8 -22t22 -9h229q-21 -83 -96.5 -167.5t-160.5 -132.5q-8 -4 -10 -15t3 -17q11 -14 36 -3q89 41 174 118t124 167h147v-112h-149q-11 0 -18.5 -8t-7.5 -22q0 -13 7.5 -22t16.5 -9h151v-96h18q54 0 54 93v304q0 20 -11 33t-28 13 h-94q-31 0 -31 -22q0 -18 39 -26q28 -5 40.5 -15t12.5 -38v-12h-128q0 1 0.5 3t0.5 3q2 16 -9 30.5t-31 14.5h-277zM793 719q0 19 -10.5 32t-28.5 13h-94q-32 0 -32 -22q0 -17 39 -25q28 -5 40.5 -15.5t12.5 -38.5v-384h19q54 0 54 93v347zM318 61q-25 0 -25 -20 q0 -18 21 -24q21 -5 27.5 -13.5t6.5 -30.5v-65q0 -31 18.5 -51t49.5 -20h351q13 0 21 9t8 22q0 11 -8 20.5t-21 9.5h-319q-27 0 -27 26v78h305q37 0 37 47v134q0 40 -37 40h-379q-14 0 -22 -8.5t-8 -21.5q0 -12 8.5 -21.5t21.5 -9.5h342v-101h-371z" />
<glyph unicode="&#xacd5;" horiz-adv-x="890" d="M88 660q-15 0 -23.5 -10t-8.5 -21q0 -13 8 -22t22 -9h229q-21 -83 -96.5 -167.5t-160.5 -132.5q-8 -4 -10 -15t3 -17q11 -14 36 -3q89 41 174 118t124 167h147v-112h-149q-11 0 -18.5 -8t-7.5 -22q0 -13 7.5 -22t16.5 -9h151v-96h18q54 0 54 93v304q0 20 -11 33t-28 13 h-94q-31 0 -31 -22q0 -18 39 -26q28 -5 40.5 -15t12.5 -38v-12h-128q0 1 0.5 3t0.5 3q2 16 -9 30.5t-31 14.5h-277zM793 719q0 19 -10.5 32t-28.5 13h-94q-32 0 -32 -22q0 -17 39 -25q28 -5 40.5 -15.5t12.5 -38.5v-384h19q54 0 54 93v347zM421 17h279v-111h-279v111z M769 -155q11 0 17 9t6 20q0 31 -23 31h-6q10 20 10 66v215q0 42 -39 42h-68q-31 0 -31 -21q0 -18 31 -24q20 -5 27 -12t7 -30v-63h-279v77q0 41 -36 41h-69q-32 0 -32 -19q0 -11 5.5 -16.5t21.5 -8.5q22 -5 29.5 -13.5t7.5 -32.5v-287h17q30 0 40 26h364z" />
<glyph unicode="&#xacd7;" horiz-adv-x="890" d="M88 655q-15 0 -23.5 -9.5t-8.5 -20.5q0 -13 8 -21.5t22 -8.5h229q-20 -85 -97 -175.5t-161 -140.5q-7 -4 -9 -14.5t3 -17.5q12 -14 36 -3q89 41 173 120.5t124 174.5h148v-124h-149q-11 0 -18.5 -8.5t-7.5 -22.5q0 -12 7.5 -20.5t16.5 -8.5h151v-107h18q54 0 54 94v335 q0 20 -11 33t-28 13h-94q-31 0 -31 -22q0 -18 39 -26q28 -5 40.5 -15t12.5 -38v-21h-128q0 1 1 5t1 5q3 16 -8 30t-32 14h-278zM793 721q0 19 -10.5 31.5t-28.5 12.5h-94q-32 0 -32 -22q0 -17 39 -25q28 -5 40.5 -15.5t12.5 -38.5v-469h19q54 0 54 94v432zM548 71 q25 44 30 78q9 63 -44 63h-77q-29 0 -29 -22q0 -16 26 -22q25 -4 31 -8.5t4 -15.5q-14 -68 -83 -148t-134 -122q-12 -8 -12 -19t10 -16t26 0q51 23 113 74t106 110l208 -168q19 -15 39 -7q22 11 24 37q2 20 -23 38z" />
<glyph unicode="&#xace0;" d="M689 613q0 48 -44 48h-427q-14 0 -23 -9t-9 -20q0 -13 9 -22.5t23 -9.5h394v-29q0 -228 -17 -318q-3 -14 -6 -27q-7 -29 14 -34q9 -2 18.5 3t14.5 17q53 122 53 401zM67 84q-13 0 -22 -9t-9 -20q0 -13 8.5 -22.5t22.5 -9.5h782q15 0 23 9t8 22q0 11 -8 20.5t-23 9.5h-393 v247q0 20 -11 32.5t-29 12.5h-83q-33 0 -33 -21q0 -20 29 -26q30 -6 42 -15.5t12 -36.5v-193h-316z" />
<glyph unicode="&#xace1;" d="M689 670q0 47 -44 47h-417q-14 0 -22.5 -8.5t-8.5 -19.5q0 -13 8.5 -22.5t22.5 -9.5h384q0 -9 0.5 -56t0 -64t-2 -52t-5 -61t-8.5 -51q0 -2 -0.5 -5.5t-1.5 -5.5h-138v134q0 19 -11 32t-29 13h-83q-33 0 -33 -22q0 -19 29 -25q30 -6 42 -15.5t12 -37.5v-79h-317 q-14 0 -22.5 -9t-8.5 -20q0 -13 8.5 -22t22.5 -9h782q15 0 23 8.5t8 21.5q0 12 -8 21t-23 9h-203q43 121 43 308zM683 157q0 41 -40 41h-423q-9 0 -16 -9.5t-7 -21.5q0 -11 7 -20t16 -9h390v-287h20q22 0 37.5 24.5t15.5 68.5v213z" />
<glyph unicode="&#xace4;" d="M689 649q0 19 -10 33t-34 14h-417q-14 0 -22.5 -9t-8.5 -21t8.5 -22t22.5 -10h384v-47.5v-49.5t-0.5 -44.5t-1.5 -47t-2.5 -41.5t-4.5 -44t-7 -40q-2 -11 -1 -16h-138v153q0 20 -11 33t-29 13h-84q-13 0 -22.5 -6t-9.5 -16q0 -19 29 -26q30 -6 42 -15.5t12 -37.5v-98 h-317q-13 0 -22 -9t-9 -19q0 -13 8.5 -22.5t22.5 -9.5h782q15 0 23 9t8 22q0 11 -8 20t-23 9h-206q2 2 2 4q42 123 44 341zM247 -67q-1 -49 23 -67.5t78 -18.5h342q14 0 23 10t9 22t-9.5 21t-23.5 9h-348q-21 0 -21 23v172q0 19 -11.5 31.5t-28.5 12.5h-83q-33 0 -33 -21 q0 -11 7.5 -17t28.5 -10q27 -7 37 -16.5t10 -35.5v-115z" />
<glyph unicode="&#xace7;" d="M689 670q0 47 -44 47h-417q-14 0 -22.5 -8.5t-8.5 -19.5q0 -13 8.5 -22.5t22.5 -9.5h384q0 -9 0.5 -56t0 -64t-2 -52t-5 -61t-8.5 -51q0 -2 -0.5 -5.5t-1.5 -5.5h-138v134q0 19 -11 32t-29 13h-83q-33 0 -33 -22q0 -19 29 -25q30 -6 42 -15.5t12 -37.5v-79h-317 q-14 0 -22.5 -9t-8.5 -20q0 -13 8.5 -22t22.5 -9h782q15 0 23 8.5t8 21.5q0 12 -8 21t-23 9h-203q43 121 43 308zM670 127q10 0 17 9t7 20q0 12 -7.5 21.5t-17.5 9.5h-458q-29 0 -29 -21q0 -20 27 -25q22 -4 27.5 -16.5t5.5 -48.5v-163q0 -37 21.5 -51.5t49.5 -14.5h362 q14 0 21.5 9t7.5 22q0 12 -8 21t-22 9h-338q-12 0 -16.5 4.5t-4.5 20.5v194h355z" />
<glyph unicode="&#xace8;" d="M689 675q0 48 -44 48h-417q-14 0 -22.5 -9t-8.5 -20q0 -13 8.5 -22.5t22.5 -9.5h384v-43v-41.5t-0.5 -33.5t-1 -36t-2 -32t-3.5 -37.5t-5 -37.5q-2 -13 -1 -19h-142v129q0 19 -11 32t-29 13h-83q-33 0 -33 -23q0 -18 29 -24q15 -4 23 -6.5t16.5 -8.5t11.5 -15t3 -24v-73 h-317q-14 0 -22.5 -9t-8.5 -20q0 -13 8.5 -22.5t22.5 -9.5h782q15 0 23 9t8 22q0 11 -8 20.5t-23 9.5h-204q1 1 1 3t1 3q42 126 42 287zM218 68q-27 0 -27 -21q0 -16 23 -24q20 -6 27 -14t7 -30v-65q0 -31 18 -51t50 -20h381q13 0 21.5 9.5t8.5 21.5q0 11 -8.5 20.5 t-21.5 9.5h-351q-25 0 -25 27v77h335q37 0 37 47v134q0 40 -37 40h-409q-30 0 -30 -29q0 -12 8 -21.5t22 -9.5h372v-101h-401z" />
<glyph unicode="&#xacea;" d="M689 675q0 48 -44 48h-417q-14 0 -22.5 -9t-8.5 -20q0 -13 8.5 -22.5t22.5 -9.5h384v-43v-41.5t-0.5 -33.5t-1 -36t-2 -32t-3.5 -37.5t-5 -37.5q-2 -13 -1 -19h-142v129q0 19 -11 32t-29 13h-83q-33 0 -33 -23q0 -18 29 -24q15 -4 23 -6.5t16.5 -8.5t11.5 -15t3 -24v-73 h-317q-14 0 -22.5 -9t-8.5 -20q0 -13 8.5 -22.5t22.5 -9.5h782q15 0 23 9t8 22q0 11 -8 20.5t-23 9.5h-204q1 1 1 3t1 3q42 126 42 287zM148 68q-25 0 -25 -20q0 -19 20 -28q17 -6 21.5 -12.5t4.5 -26.5v-63q0 -30 23 -50.5t56 -20.5h181q13 0 20.5 9.5t7.5 21.5 q0 11 -7.5 20.5t-20.5 9.5h-161q-25 0 -25 28v72h144q37 0 37 47v128q0 40 -36 40h-217q-29 0 -29 -30q0 -11 8 -20.5t21 -9.5h181v-95h-204zM675 163v-239h-121q1 7 1 28v211h120zM745 -136q22 0 22 31q0 11 -6 19.5t-16 8.5h-6q9 21 9 68v195q0 15 -8.5 26t-25.5 11h-243 q-33 0 -33 -19q0 -16 20 -24q15 -7 19.5 -15t4.5 -33v-295h25q9 0 18 8t12 19h208z" />
<glyph unicode="&#xacec;" d="M689 675q0 48 -44 48h-417q-14 0 -22.5 -9t-8.5 -20q0 -13 8.5 -22.5t22.5 -9.5h384v-43v-41.5t-0.5 -33.5t-1 -36t-2 -32t-3.5 -37.5t-5 -37.5q-2 -13 -1 -19h-142v129q0 19 -11 32t-29 13h-83q-33 0 -33 -23q0 -18 29 -24q15 -4 23 -6.5t16.5 -8.5t11.5 -15t3 -24v-73 h-317q-14 0 -22.5 -9t-8.5 -20q0 -13 8.5 -22.5t22.5 -9.5h782q15 0 23 9t8 22q0 11 -8 20.5t-23 9.5h-204q1 1 1 3t1 3q42 126 42 287zM169 73q-24 0 -24 -20q0 -15 18 -22q17 -7 22 -15.5t5 -30.5v-67q0 -31 18.5 -51t49.5 -20h182q14 0 23 11q10 -14 30 0q76 54 139 157 l131 -142q14 -15 39 -7q23 10 23 37q0 18 -18 35l-145 131q28 59 31 103q4 56 -46 56h-72q-32 0 -32 -22q0 -7 4.5 -11.5t8.5 -5.5t14 -3q27 -6 34.5 -11.5t6.5 -14.5q-5 -51 -49 -135t-95 -135q-7 18 -27 18h-150q-27 0 -27 27v78h146q37 0 37 47v126q0 40 -37 40h-217 q-14 0 -22 -8.5t-8 -21.5q0 -11 8.5 -20.5t21.5 -9.5h180v-93h-203z" />
<glyph unicode="&#xacef;" d="M689 675q0 48 -44 48h-417q-14 0 -22.5 -9t-8.5 -20q0 -13 8.5 -22.5t22.5 -9.5h384v-43v-41.5t-0.5 -33.5t-1 -36t-2 -32t-3.5 -37.5t-5 -37.5q-2 -12 -2 -16h-141v128q0 19 -11 32t-29 13h-83q-33 0 -33 -23q0 -18 29 -24q15 -4 23 -6.5t16.5 -8.5t11.5 -15t3 -24v-72 h-317q-14 0 -22.5 -9t-8.5 -20q0 -12 8.5 -22t22.5 -10h782q15 0 23 9t8 22q0 12 -8 21t-23 9h-203v1l1 2q42 126 42 287zM138 70q-24 0 -24 -20q0 -15 19 -22q16 -7 21 -15.5t5 -30.5v-64q0 -31 18.5 -51.5t49.5 -20.5h193q13 0 21 10t8 22q0 11 -8 20.5t-21 9.5h-161 q-27 0 -27 27v75h136q37 0 37 47v129q0 41 -37 41h-206q-30 0 -30 -29q0 -12 8 -21.5t22 -9.5h169v-97h-193zM530 163q22 -13 61 -13h82q14 0 23.5 7t9.5 20q0 33 -35 33q-54 0 -85.5 6t-71.5 25q-23 8 -37 -8q-6 -9 -3.5 -21t10.5 -17zM442 96q-13 0 -22 -10t-9 -21 q0 -12 8.5 -21t22.5 -9h45q-30 -30 -30 -74q0 -56 39.5 -90.5t102.5 -34.5t103.5 34.5t40.5 91.5q0 41 -30 73h45q14 0 22.5 9t8.5 21t-8.5 21.5t-22.5 9.5h-316zM526 -35q0 29 20 48.5t53 19.5t53.5 -19t20.5 -49q0 -32 -20.5 -52.5t-53.5 -20.5q-34 0 -53.5 21t-19.5 52z " />
<glyph unicode="&#xacf0;" d="M689 670q0 47 -44 47h-417q-14 0 -22.5 -8.5t-8.5 -19.5q0 -13 8.5 -22.5t22.5 -9.5h384q0 -9 0.5 -56t0 -64t-2 -52t-5 -61t-8.5 -51q0 -2 -0.5 -5.5t-1.5 -5.5h-138v134q0 19 -11 32t-29 13h-83q-33 0 -33 -22q0 -19 29 -25q30 -6 42 -15.5t12 -37.5v-79h-317 q-14 0 -22.5 -9t-8.5 -20q0 -13 8.5 -22t22.5 -9h782q15 0 23 8.5t8 21.5q0 12 -8 21t-23 9h-203q43 121 43 308zM612 129v-214h-299q3 21 3 27v187h296zM681 -147q10 0 16.5 9.5t6.5 20.5q0 12 -6 21.5t-16 9.5h-7q10 21 10 70v167q0 38 -33 38h-438q-31 0 -31 -20 q0 -19 27 -26q20 -6 26.5 -14.5t6.5 -34.5v-267h24q9 0 18 8t13 18h383z" />
<glyph unicode="&#xacf1;" d="M689 675q0 48 -44 48h-417q-14 0 -22.5 -9t-8.5 -20q0 -13 8.5 -22.5t22.5 -9.5h384v-43v-41.5t-0.5 -33.5t-1 -36t-2 -32t-3.5 -37.5t-5 -37.5q-2 -13 -1 -19h-142v129q0 19 -11 32t-29 13h-83q-33 0 -33 -23q0 -18 29 -24q15 -4 23 -6.5t16.5 -8.5t11.5 -15t3 -24v-73 h-317q-14 0 -22.5 -9t-8.5 -20q0 -13 8.5 -22.5t22.5 -9.5h782q15 0 23 9t8 22q0 11 -8 20.5t-23 9.5h-204q1 1 1 3t1 3q42 126 42 287zM311 20h299v-105h-299v105zM679 -145q11 0 17.5 9t6.5 21q0 11 -6.5 20t-17.5 9h-6q10 20 10 66v200q0 42 -39 42h-68q-31 0 -31 -21 q0 -17 31 -24q21 -5 27.5 -11.5t6.5 -29.5v-56h-299v85q0 41 -37 41h-69q-32 0 -32 -20q0 -19 28 -24q21 -5 29 -14t8 -33v-287h17q30 0 40 27h384z" />
<glyph unicode="&#xacf3;" d="M689 670q0 47 -44 47h-417q-14 0 -22.5 -8.5t-8.5 -19.5q0 -13 8.5 -22.5t22.5 -9.5h384q0 -9 0.5 -56t0 -64t-2 -52t-5 -61t-8.5 -51q0 -2 -0.5 -5.5t-1.5 -5.5h-138v134q0 19 -11 32t-29 13h-83q-33 0 -33 -22q0 -19 29 -25q30 -6 42 -15.5t12 -37.5v-79h-317 q-14 0 -22.5 -9t-8.5 -20q0 -13 8.5 -22t22.5 -9h782q15 0 23 8.5t8 21.5q0 12 -8 21t-23 9h-203q43 121 43 308zM483 77q21 35 28 67q5 25 -5 44.5t-39 19.5h-77q-30 0 -30 -22q0 -19 26 -23t32 -8t4 -15q-12 -60 -89 -140.5t-139 -108.5q-21 -9 -12.5 -26t32.5 -10 q54 17 121.5 66t114.5 109l225 -157q18 -13 37 -6q21 8 24 37q2 20 -23 35z" />
<glyph unicode="&#xacf5;" d="M689 670q0 47 -44 47h-417q-14 0 -22.5 -8.5t-8.5 -19.5q0 -13 8.5 -22.5t22.5 -9.5h384q0 -9 0.5 -56t0 -64t-2 -52t-5 -61t-8.5 -51q0 -2 -0.5 -5.5t-1.5 -5.5h-138v134q0 19 -11 32t-29 13h-83q-33 0 -33 -22q0 -19 29 -25q30 -6 42 -15.5t12 -37.5v-79h-317 q-14 0 -22.5 -9t-8.5 -20q0 -13 8.5 -22t22.5 -9h782q15 0 23 8.5t8 21.5q0 12 -8 21t-23 9h-203q43 121 43 308zM248 32q0 -80 61.5 -133.5t147.5 -53.5q85 0 147 53.5t62 133.5q0 83 -61.5 135.5t-147.5 52.5q-85 0 -147 -54t-62 -134zM323 32q0 54 40 90.5t94 36.5 t94 -37t40 -90t-40 -89t-94 -36q-55 0 -94.5 35.5t-39.5 89.5z" />
<glyph unicode="&#xacf6;" d="M689 675q0 48 -44 48h-417q-14 0 -22.5 -9t-8.5 -20q0 -13 8.5 -22.5t22.5 -9.5h384v-43v-41.5t-0.5 -33.5t-1 -36t-2 -32t-3.5 -37.5t-5 -37.5q-6 -30 13 -34q10 -3 20 2t14 19q42 126 42 287zM67 364q-13 0 -22 -9t-9 -19q0 -13 8.5 -22.5t22.5 -9.5h782q31 0 31 31 q0 11 -8 20t-23 9h-392v134q0 19 -11 32.5t-29 13.5h-84q-32 0 -32 -23q0 -18 29 -25q30 -6 42 -15.5t12 -37.5v-79h-317zM543 19q69 69 89 135q6 18 -3.5 35t-28.5 17h-331q-9 0 -16.5 -9t-7.5 -21t7 -21.5t16 -9.5h270q-33 -72 -128 -150t-176 -112q-25 -10 -15 -34 q7 -10 31 -6q48 11 115.5 47t126.5 84l204 -124q20 -11 37 -2q22 11 23 37q2 26 -23 38z" />
<glyph unicode="&#xacfc;" horiz-adv-x="910" d="M483 608q0 19 -10.5 33t-33.5 14h-342q-14 0 -23.5 -9t-9.5 -20q0 -13 9.5 -22.5t24.5 -9.5h307v-67.5v-64.5t-1 -49.5t-2.5 -53t-4.5 -41t-7 -46.5q-6 -29 13 -34q9 -3 19 3t16 18q41 106 45 349zM718 720q0 18 -11 31.5t-28 13.5h-95q-32 0 -32 -23q0 -17 39 -24 q28 -5 40.5 -16t12.5 -38v-763h20q54 0 54 94v385h163q10 0 17.5 9t7.5 22q0 14 -7.5 22.5t-18.5 8.5h-162v278zM215 140h-167q-14 0 -23 -9t-9 -21q0 -13 8.5 -21.5t22.5 -8.5h289q73 0 149 11t113 30q21 10 18.5 26.5t-28.5 11.5q-80 -19 -255 -19h-45v226q0 20 -11 32.5 t-29 12.5h-83q-33 0 -33 -21q0 -20 29 -26t41.5 -15.5t12.5 -36.5v-172z" />
<glyph unicode="&#xacfd;" horiz-adv-x="910" d="M484 653q0 19 -10.5 33t-33.5 14h-343q-15 0 -24 -8.5t-9 -20.5q0 -13 9.5 -22.5t23.5 -9.5h311q0 -9 0.5 -57.5t0 -68.5t-3.5 -58t-9 -70q-7 -30 11 -34q9 -3 20 2.5t15 17.5q42 112 42 282zM217 327h-169q-14 0 -23 -9t-9 -20q0 -13 8.5 -21.5t22.5 -8.5h289 q72 0 148.5 11t113.5 29q21 10 18.5 26.5t-28.5 11.5q-80 -19 -255 -19h-43v140q0 19 -11 32t-29 13h-84q-32 0 -32 -22q0 -18 29 -25q20 -4 29.5 -8t17 -15t7.5 -30v-85zM718 720q0 18 -11 31.5t-28 13.5h-95q-32 0 -32 -23q0 -17 39 -24q29 -5 41 -15.5t12 -38.5v-438h20 q54 0 54 94v132h163q10 0 17.5 8.5t7.5 21.5t-7.5 21.5t-18.5 8.5h-162v208zM701 118q0 42 -40 42h-411q-9 0 -16.5 -10t-7.5 -21t7.5 -20.5t17.5 -9.5h377v-262h20q22 0 37.5 24.5t15.5 68.5v188z" />
<glyph unicode="&#xad00;" horiz-adv-x="910" d="M485 645q0 46 -44 46h-345q-14 0 -23.5 -8.5t-9.5 -19.5q0 -13 9.5 -22.5t24.5 -9.5h312v-65v-54.5t-0.5 -39t-2 -38.5t-3.5 -31t-6 -37q-5 -29 11 -33q9 -3 19.5 2.5t15.5 17.5q40 96 42 292zM718 720q0 19 -11 32t-28 13h-95q-32 0 -32 -22q0 -18 39 -25 q29 -5 41 -15.5t12 -38.5v-571h20q54 0 54 94v224h163q10 0 17.5 8.5t7.5 21.5t-7.5 21t-18.5 8h-162v250zM227 304h-179q-14 0 -23 -9t-9 -21q0 -13 8.5 -21.5t22.5 -8.5h289q73 0 149 11t113 30q21 10 18.5 25.5t-28.5 10.5q-80 -17 -255 -17h-33v141q0 19 -11 32t-29 13 h-83q-33 0 -33 -23q0 -18 29 -24t41.5 -16t12.5 -37v-86zM262 -67q-1 -49 23 -67t78 -18h332q15 0 23.5 9.5t8.5 21.5q0 13 -9 21.5t-24 8.5h-337q-22 0 -22 23v159q0 20 -11 32.5t-29 12.5h-82q-33 0 -33 -20q0 -12 7 -18.5t28 -10.5q28 -6 37.5 -15t9.5 -36v-103z" />
<glyph unicode="&#xad04;" horiz-adv-x="910" d="M485 656q0 47 -44 47h-345q-15 0 -24 -8.5t-9 -20.5q0 -13 9.5 -22t24.5 -9h311q0 -12 0.5 -50t0 -60t-1.5 -55t-3.5 -61t-6.5 -53q-1 -2 -1 -4.5t-1 -3.5h-102v136q0 19 -11 31.5t-29 12.5h-83q-33 0 -33 -22q0 -18 29 -24t41.5 -16.5t12.5 -37.5v-80h-172q-14 0 -23 -9 t-9 -21q0 -13 8.5 -21.5t22.5 -8.5h289q73 0 149 11t113 30q21 10 18.5 26.5t-28.5 11.5q-55 -13 -142 -17q19 49 29 137t10 161zM718 720q0 18 -11 31t-28 13h-95q-32 0 -32 -22q0 -17 39 -24q29 -6 41 -16.5t12 -38.5v-394h20q54 0 54 92v122h163q10 0 17.5 8.5t7.5 21.5 t-7.5 21.5t-18.5 8.5h-162v177zM250 52q-26 0 -26 -20q0 -18 22 -24q20 -5 27 -14t7 -30v-56q0 -31 18 -51t50 -20h361q13 0 21 9t8 22q0 11 -8 20.5t-21 9.5h-329q-27 0 -27 27v67h315q37 0 37 48v123q0 41 -37 41h-389q-30 0 -30 -29q0 -12 8 -21.5t22 -9.5h352v-92h-381z " />
<glyph unicode="&#xad06;" horiz-adv-x="910" d="M485 656q0 47 -44 47h-345q-15 0 -24 -8.5t-9 -20.5q0 -13 9.5 -22t24.5 -9h311q0 -12 0.5 -50t0 -60t-1.5 -55t-3.5 -61t-6.5 -53q-1 -2 -1 -4.5t-1 -3.5h-102v136q0 19 -11 31.5t-29 12.5h-83q-33 0 -33 -22q0 -18 29 -24t41.5 -16.5t12.5 -37.5v-80h-172q-14 0 -23 -9 t-9 -21q0 -13 8.5 -21.5t22.5 -8.5h289q73 0 149 11t113 30q21 10 18.5 26.5t-28.5 11.5q-55 -13 -142 -17q19 49 29 137t10 161zM718 720q0 18 -11 31t-28 13h-95q-32 0 -32 -22q0 -17 39 -24q29 -6 41 -16.5t12 -38.5v-394h20q54 0 54 92v122h163q10 0 17.5 8.5t7.5 21.5 t-7.5 21.5t-18.5 8.5h-162v177zM107 53q-25 0 -25 -19q0 -16 20 -23q16 -6 21 -14.5t5 -29.5v-57q0 -30 18.5 -50.5t49.5 -20.5h202q14 0 21.5 9.5t7.5 22.5q0 11 -8 20t-21 9h-171q-26 0 -26 27v66h156q37 0 37 48v122q0 41 -37 41h-227q-29 0 -29 -29q0 -12 8 -21.5 t21 -9.5h191v-91h-214zM644 144v-228h-120q1 7 1 28v200h119zM714 -145q11 0 17 10t6 21q0 29 -23 29h-6q9 21 9 68v184q0 15 -8.5 26t-25.5 11h-243q-33 0 -33 -19q0 -14 20 -25q16 -6 20.5 -14t4.5 -34v-283h24q10 0 19 8t12 18h207z" />
<glyph unicode="&#xad0c;" horiz-adv-x="910" d="M484 653q0 19 -10.5 33t-33.5 14h-343q-15 0 -24 -8.5t-9 -20.5q0 -13 9.5 -22.5t23.5 -9.5h311q0 -9 0.5 -57.5t0 -68.5t-3.5 -58t-9 -70q-7 -30 11 -34q9 -3 20 2.5t15 17.5q42 112 42 282zM217 327h-169q-14 0 -23 -9t-9 -20q0 -13 8.5 -21.5t22.5 -8.5h289 q72 0 148.5 11t113.5 29q21 10 18.5 26.5t-28.5 11.5q-80 -19 -255 -19h-43v140q0 19 -11 32t-29 13h-84q-32 0 -32 -22q0 -18 29 -25q20 -4 29.5 -8t17 -15t7.5 -30v-85zM718 720q0 18 -11 31.5t-28 13.5h-95q-32 0 -32 -23q0 -17 39 -24q29 -5 41 -15.5t12 -38.5v-438h20 q54 0 54 94v132h163q10 0 17.5 8.5t7.5 21.5t-7.5 21.5t-18.5 8.5h-162v208zM628 105v-199h-282q3 21 3 27v172h279zM697 -156q10 0 16.5 9.5t6.5 20.5t-6 21t-16 10h-7q10 20 10 70v153q0 15 -8 26.5t-25 11.5h-421q-31 0 -31 -21q0 -18 27 -26q20 -5 26.5 -14t6.5 -35 v-253h24q9 0 18 8.5t13 18.5h366z" />
<glyph unicode="&#xad0d;" horiz-adv-x="910" d="M485 656q0 47 -44 47h-345q-15 0 -24 -8.5t-9 -20.5q0 -13 9.5 -22t24.5 -9h311q0 -12 0.5 -50t0 -60t-1.5 -55t-3.5 -61t-6.5 -53q-1 -2 -1 -4.5t-1 -3.5h-102v136q0 19 -11 31.5t-29 12.5h-83q-33 0 -33 -22q0 -18 29 -24t41.5 -16.5t12.5 -37.5v-80h-172q-14 0 -23 -9 t-9 -21q0 -13 8.5 -21.5t22.5 -8.5h289q73 0 149 11t113 30q21 10 18.5 26.5t-28.5 11.5q-55 -13 -142 -17q19 49 29 137t10 161zM718 720q0 18 -11 31t-28 13h-95q-32 0 -32 -22q0 -17 39 -24q29 -6 41 -16.5t12 -38.5v-394h20q54 0 54 92v122h163q10 0 17.5 8.5t7.5 21.5 t-7.5 21.5t-18.5 8.5h-162v177zM349 11h279v-105h-279v105zM697 -155q23 0 23 30t-23 30h-6q10 20 10 66v206q0 42 -39 42h-68q-31 0 -31 -21q0 -18 31 -24q20 -5 27 -12.5t7 -29.5v-61h-279v87q0 41 -36 41h-70q-31 0 -31 -19q0 -20 27 -25q22 -5 29.5 -13.5t7.5 -32.5 v-290h17q30 0 40 26h364z" />
<glyph unicode="&#xad0f;" horiz-adv-x="910" d="M484 653q0 19 -10.5 33t-33.5 14h-343q-15 0 -24 -8.5t-9 -20.5q0 -13 9.5 -22.5t23.5 -9.5h311q0 -9 0.5 -57.5t0 -68.5t-3.5 -58t-9 -70q-7 -30 11 -34q9 -3 20 2.5t15 17.5q42 112 42 282zM718 721q0 18 -11 31t-28 13h-95q-32 0 -32 -22q0 -17 39 -25q29 -5 41 -15.5 t12 -38.5v-489h20q54 0 54 94v183h163q10 0 17.5 8.5t7.5 21.5t-7.5 21.5t-18.5 8.5h-162v209zM598 313q21 10 18.5 26.5t-28.5 11.5q-80 -18 -255 -18h-33v138q0 19 -11 32t-29 13h-84q-32 0 -32 -22q0 -18 29 -25q20 -4 29.5 -8t17 -15t7.5 -30v-83h-179q-14 0 -23 -9.5 t-9 -20.5q0 -12 8.5 -21t22.5 -9h289q71 0 148 11t114 29zM499 62q21 35 28 67q5 24 -5 43.5t-39 19.5h-77q-30 0 -30 -21q0 -19 26 -23t32 -8t4 -16q-15 -63 -88.5 -141t-131.5 -107q-20 -10 -11 -26q10 -17 34 -9q49 19 113 67.5t111 105.5l208 -158q17 -14 38 -7 q20 9 23 37q2 20 -22 38z" />
<glyph unicode="&#xad11;" horiz-adv-x="910" d="M484 653q0 19 -10.5 33t-33.5 14h-343q-15 0 -24 -8.5t-9 -20.5q0 -13 9.5 -22.5t23.5 -9.5h311q0 -9 0.5 -57.5t0 -68.5t-3.5 -58t-9 -70q-7 -30 11 -34q9 -3 20 2.5t15 17.5q42 112 42 282zM217 327h-169q-14 0 -23 -9t-9 -20q0 -13 8.5 -21.5t22.5 -8.5h289 q72 0 148.5 11t113.5 29q21 10 18.5 26.5t-28.5 11.5q-80 -19 -255 -19h-43v140q0 19 -11 32t-29 13h-84q-32 0 -32 -22q0 -18 29 -25q20 -4 29.5 -8t17 -15t7.5 -30v-85zM718 720q0 18 -11 31.5t-28 13.5h-95q-32 0 -32 -23q0 -17 39 -24q29 -5 41 -15.5t12 -38.5v-438h20 q54 0 54 94v132h163q10 0 17.5 8.5t7.5 21.5t-7.5 21.5t-18.5 8.5h-162v208zM286 22q0 -79 58.5 -132t147.5 -53q87 0 147 54t60 131q0 78 -60 130.5t-147 52.5q-90 0 -148 -53.5t-58 -129.5zM360 22q0 51 38 86t94 36q56 -1 94.5 -36.5t38.5 -85.5q0 -49 -38.5 -86.5 t-94.5 -36.5q-58 -1 -95 35.5t-37 87.5z" />
<glyph unicode="&#xad18;" horiz-adv-x="890" d="M405 597q0 47 -44 47h-285q-16 0 -24.5 -9t-8.5 -20q0 -12 9 -22t24 -10h251q0 -24 0.5 -78t0 -72t-1.5 -52t-4 -57t-8 -49q-5 -28 12 -34q9 -2 20 4.5t16 18.5q43 107 43 333zM792 720q0 19 -11 32t-28 13h-93q-33 0 -33 -23q0 -17 39 -24q28 -5 40.5 -16t12.5 -38v-253 h-127v266q0 19 -10.5 32.5t-28.5 13.5h-93q-32 0 -32 -23q0 -18 39 -25q28 -5 40.5 -15.5t12.5 -37.5v-672h18q54 0 54 94v305h127v-449h19q54 0 54 94v726zM184 150h-135q-14 0 -23 -9.5t-9 -20.5q0 -13 8.5 -22t22.5 -9h153q71 0 148.5 11.5t114.5 29.5q21 10 18.5 26.5 t-27.5 11.5q-71 -16 -198 -18v230q0 20 -11 33t-29 13h-84q-13 0 -22.5 -6t-9.5 -16q0 -19 29 -26q30 -6 42 -15.5t12 -36.5v-176z" />
<glyph unicode="&#xad1c;" horiz-adv-x="890" d="M405 626q0 48 -44 48h-286q-16 0 -24.5 -9t-8.5 -21q0 -13 8.5 -22t24.5 -9h252q0 -15 0.5 -53t0 -57.5t-1.5 -49t-3.5 -51.5t-6.5 -40q-7 -31 11 -35q17 -4 32 20q46 96 46 279zM796 720q0 19 -10.5 32t-28.5 13h-93q-33 0 -33 -22q0 -18 39 -25q28 -5 40.5 -15.5 t12.5 -38.5v-204h-127v217q0 20 -10.5 33t-28.5 13h-93q-32 0 -32 -22q0 -19 39 -26q28 -5 40.5 -15t12.5 -38v-511h18q54 0 54 95v195h127v-311h19q54 0 54 95v535zM183 289h-134q-14 0 -23 -9.5t-9 -20.5q0 -13 8.5 -22t22.5 -9h164q70 0 142.5 11t109.5 30q20 11 18.5 27 t-26.5 11q-72 -16 -200 -18v149q0 18 -11 31t-29 13h-83q-33 0 -33 -22q0 -18 29 -24q15 -4 23 -6.5t16.5 -8.5t11.5 -15t3 -24v-93zM314 -67q-1 -49 23 -67t78 -18h332q15 0 23.5 9.5t8.5 21.5q0 13 -9 21.5t-24 8.5h-337q-22 0 -22 23v157q0 20 -11 32.5t-29 12.5h-82 q-33 0 -33 -20q0 -12 7 -18.5t28 -10.5q27 -6 37 -15.5t10 -36.5v-100z" />
<glyph unicode="&#xad20;" horiz-adv-x="890" d="M405 648q0 47 -44 47h-286q-16 0 -24.5 -8.5t-8.5 -21.5q0 -12 8.5 -21t24.5 -9h252q0 -21 1 -63.5t1 -69t-2 -62t-7 -63.5q-5 -23 3 -30q-23 -1 -68 -1v132q0 20 -11 32.5t-29 12.5h-83q-33 0 -33 -21q0 -20 29 -26q30 -6 42 -15.5t12 -37.5v-77h-133q-14 0 -23 -9.5 t-9 -21.5t8.5 -20.5t22.5 -8.5h174q70 0 142.5 10.5t109.5 29.5q20 11 18.5 26.5t-26.5 10.5q-48 -11 -108 -14q6 4 9 14q38 100 38 285zM796 721q0 19 -10.5 31.5t-28.5 12.5h-93q-33 0 -33 -22q0 -17 39 -24q28 -6 40.5 -16.5t12.5 -38.5v-132h-127v146q0 19 -10.5 32 t-28.5 13h-93q-32 0 -32 -22q0 -18 39 -25q29 -6 41 -16t12 -38v-352h18q54 0 54 92v109h127v-202h19q54 0 54 92v360zM316 53q-26 0 -26 -20q0 -17 22 -24q20 -5 27 -14t7 -30v-56q0 -31 18.5 -51t49.5 -20h361q13 0 21 9t8 22q0 11 -8 20.5t-21 9.5h-329q-27 0 -27 27v67 h315q37 0 37 48v123q0 41 -37 41h-389q-30 0 -30 -29q0 -12 8 -21.5t22 -9.5h352v-92h-381z" />
<glyph unicode="&#xad29;" horiz-adv-x="890" d="M405 648q0 47 -44 47h-286q-16 0 -24.5 -8.5t-8.5 -21.5q0 -12 8.5 -21t24.5 -9h252q0 -21 1 -63.5t1 -69t-2 -62t-7 -63.5q-5 -23 3 -30q-23 -1 -68 -1v132q0 20 -11 32.5t-29 12.5h-83q-33 0 -33 -21q0 -20 29 -26q30 -6 42 -15.5t12 -37.5v-77h-133q-14 0 -23 -9.5 t-9 -21.5t8.5 -20.5t22.5 -8.5h174q70 0 142.5 10.5t109.5 29.5q20 11 18.5 26.5t-26.5 10.5q-48 -11 -108 -14q6 4 9 14q38 100 38 285zM796 721q0 19 -10.5 31.5t-28.5 12.5h-93q-33 0 -33 -22q0 -17 39 -24q28 -6 40.5 -16.5t12.5 -38.5v-132h-127v146q0 19 -10.5 32 t-28.5 13h-93q-32 0 -32 -22q0 -18 39 -25q29 -6 41 -16t12 -38v-352h18q54 0 54 92v109h127v-202h19q54 0 54 92v360zM421 10h279v-104h-279v104zM769 -155q23 0 23 30t-23 30h-6q10 20 10 66v206q0 42 -39 42h-68q-31 0 -31 -21q0 -18 31 -24q20 -5 27 -12.5t7 -29.5v-62 h-279v87q0 41 -36 41h-70q-31 0 -31 -19q0 -20 27 -25q22 -5 29.5 -13.5t7.5 -32.5v-289h17q30 0 40 26h364z" />
<glyph unicode="&#xad2c;" horiz-adv-x="890" d="M405 642q0 19 -10 33t-34 14h-286q-16 0 -24.5 -8.5t-8.5 -21.5q0 -12 8.5 -21.5t24.5 -9.5h252q0 -13 0.5 -57.5t0 -65.5t-2.5 -53.5t-6 -54.5q-4 -12 -2.5 -21.5t12.5 -13.5q10 -3 21.5 3t15.5 19q39 108 39 258zM186 320h-137q-14 0 -23 -9t-9 -21t8.5 -20.5 t22.5 -8.5h164q70 0 142.5 10.5t109.5 29.5q21 10 18.5 26.5t-27.5 10.5q-75 -16 -196 -18v140q0 20 -11 32.5t-29 12.5h-83q-33 0 -33 -21q0 -20 29 -26t41.5 -16t12.5 -38v-84zM793 720q0 19 -11 32t-28 13h-93q-33 0 -33 -23q0 -17 39 -24q28 -5 40.5 -16t12.5 -38v-163 h-127v176q0 19 -10.5 32.5t-28.5 13.5h-93q-32 0 -32 -23q0 -18 39 -25q28 -5 40.5 -15.5t12.5 -37.5v-386h18q54 0 54 94v111h127v-204h19q54 0 54 94v389zM457 -98q-22 -24 -46 -44q-12 -10 -10.5 -21t13 -14t26.5 4q90 52 166 162l158 -132q18 -14 37 -9q27 9 27 37 q0 23 -23 39l-168 117q27 51 30 92q3 27 -5.5 42t-38.5 15h-77q-30 0 -30 -23q0 -5 1.5 -8t4.5 -5t5.5 -3t7.5 -2t7 -2q27 -8 33 -12t5 -13q-7 -70 -78 -166l-108 85q22 44 26 77q8 56 -45 56h-78q-30 0 -30 -20q0 -3 0.5 -5.5t1.5 -4.5t2 -3t3 -2.5t3.5 -2t4 -1.5t4 -1 t5 -1t4.5 -1q38 -8 36 -28q-3 -42 -53 -118t-102 -111q-21 -14 -12.5 -29t31.5 -6q36 14 83.5 56.5t84.5 94.5z" />
<glyph unicode="&#xad2d;" horiz-adv-x="890" d="M405 636q0 48 -44 48h-286q-15 0 -24 -9t-9 -20q0 -13 8.5 -22.5t24.5 -9.5h254q0 -20 0.5 -79.5t0 -84.5t-3 -62.5t-7.5 -61.5q-1 -3 -1 -8q-42 -2 -63 -2v134q0 20 -11 33t-29 13h-84q-13 0 -22.5 -6t-9.5 -16q0 -20 29 -26q30 -6 42 -15.5t12 -37.5v-79h-133 q-14 0 -23 -9.5t-9 -20.5q0 -12 8.5 -21t22.5 -9h164q69 0 142 11t110 29q20 11 18.5 26.5t-26.5 10.5q-45 -9 -88 -12q18 48 27.5 138t9.5 168zM793 720q0 19 -11 32t-28 13h-93q-33 0 -33 -23q0 -17 39 -24q28 -5 40.5 -15.5t12.5 -38.5v-168h-127v181q0 19 -10.5 32.5 t-28.5 13.5h-93q-32 0 -32 -23q0 -18 39 -25q28 -5 40.5 -15t12.5 -38v-386h18q54 0 54 94v106h127v-210h19q54 0 54 94v400zM346 21q0 -79 58.5 -132t147.5 -53q87 0 147 54t60 131q0 78 -60 130.5t-147 52.5q-90 0 -148 -53.5t-58 -129.5zM420 21q0 51 38 86t94 36 q56 -1 94.5 -36.5t38.5 -85.5q0 -49 -38.5 -86.5t-94.5 -36.5q-58 -1 -95 35.5t-37 87.5z" />
<glyph unicode="&#xad34;" horiz-adv-x="850" d="M483 608q0 19 -10.5 33t-33.5 14h-342q-14 0 -23.5 -9t-9.5 -20q0 -13 9.5 -22.5t24.5 -9.5h307v-67.5v-64.5t-1 -49.5t-2.5 -53t-4.5 -41t-7 -46.5q-6 -29 13 -34q9 -3 19 3t16 18q41 106 45 349zM600 122q21 10 19 26.5t-28 11.5q-81 -19 -246 -19h-47v230 q0 19 -11.5 32t-28.5 13h-84q-32 0 -32 -21q0 -20 28 -26q30 -6 42 -15.5t12 -36.5v-176h-174q-15 0 -24 -9t-9 -21q0 -13 8.5 -22t23.5 -9h299q70 0 143 11.5t109 30.5zM735 720q0 18 -11.5 31.5t-28.5 13.5h-94q-14 0 -23.5 -6t-9.5 -17q0 -17 39 -24q28 -5 41 -16t13 -38 v-764h19q55 0 55 94v726z" />
<glyph unicode="&#xad35;" horiz-adv-x="850" d="M484 653q0 19 -10.5 33t-33.5 14h-343q-15 0 -24 -8.5t-9 -20.5q0 -13 9.5 -22.5t23.5 -9.5h311q0 -9 0.5 -57.5t0 -68.5t-3.5 -58t-9 -70q-7 -30 11 -34q9 -3 20 2.5t15 17.5q42 112 42 282zM227 325h-177q-15 0 -24 -9t-9 -20q0 -13 8.5 -21.5t23.5 -8.5h299 q72 0 149 11t113 29q21 10 19 26.5t-28 10.5q-81 -18 -256 -18h-44v142q0 19 -10.5 32t-28.5 13h-84q-32 0 -32 -22q0 -20 27 -25q30 -6 42 -15.5t12 -37.5v-87zM735 720q0 18 -11.5 31.5t-28.5 13.5h-94q-33 0 -33 -23q0 -17 39 -24q29 -5 41.5 -15.5t12.5 -38.5v-438h19 q25 0 40 24t15 70v400zM721 126q0 41 -40 41h-410q-9 0 -16.5 -9.5t-7.5 -20.5t7 -20.5t17 -9.5h377v-270h21q22 0 37 24.5t15 68.5v196z" />
<glyph unicode="&#xad38;" horiz-adv-x="850" d="M485 645q0 46 -44 46h-345q-14 0 -23.5 -8.5t-9.5 -19.5q0 -13 9.5 -22.5t24.5 -9.5h312v-65v-54.5t-0.5 -39t-2 -38.5t-3.5 -31t-6 -37q-5 -29 11 -33q9 -3 19.5 2.5t15.5 17.5q40 96 42 292zM735 720q0 19 -11.5 32t-28.5 13h-94q-33 0 -33 -22q0 -18 39 -25 q29 -5 41.5 -15.5t12.5 -38.5v-571h19q55 0 55 94v533zM610 283q21 11 19 26.5t-28 10.5q-81 -17 -256 -17h-51v138q0 18 -11.5 31.5t-29.5 13.5h-83q-32 0 -32 -23q0 -19 28 -24q30 -7 42 -16.5t12 -36.5v-83h-170q-15 0 -24 -9.5t-9 -21.5t8.5 -20.5t23.5 -8.5h299 q72 0 149 11t113 29zM281 -67q-1 -49 23 -67t77 -18h333q14 0 23 10t9 21q0 12 -9 21t-24 9h-338q-21 0 -21 23v154q0 20 -11.5 32.5t-28.5 12.5h-83q-33 0 -33 -20q0 -12 7 -18.5t28 -10.5q28 -6 38 -15t10 -36v-98z" />
<glyph unicode="&#xad3c;" horiz-adv-x="850" d="M485 656q0 47 -44 47h-345q-15 0 -24 -8.5t-9 -20.5q0 -13 9.5 -22t24.5 -9h311q0 -12 0.5 -50t0 -60t-1.5 -55t-3.5 -61t-6.5 -53q-1 -2 -1 -4.5t-1 -3.5h-97v133q0 19 -10.5 31.5t-28.5 12.5h-83q-33 0 -33 -22q0 -19 27 -24q21 -5 30 -9.5t16.5 -15t7.5 -29.5v-77 h-174q-15 0 -24 -9t-9 -21q0 -13 8.5 -21.5t23.5 -8.5h299q72 0 149 11t113 30q21 10 19 26.5t-28 11.5q-59 -14 -155 -18q19 49 29 137.5t10 161.5zM735 721q0 18 -11.5 31t-28.5 13h-94q-33 0 -33 -22q0 -17 39 -24q29 -6 41.5 -16.5t12.5 -38.5v-395h19q55 0 55 92v360z M267 51q-26 0 -26 -20q0 -18 21 -24q20 -5 27 -14t7 -30v-55q0 -31 18.5 -51t49.5 -20h361q14 0 21.5 9t7.5 22q0 12 -8 21t-21 9h-329q-27 0 -27 27v66h315q37 0 37 48v122q0 41 -37 41h-389q-29 0 -29 -29q0 -12 8 -21.5t21 -9.5h352v-91h-380z" />
<glyph unicode="&#xad44;" horiz-adv-x="850" d="M484 653q0 19 -10.5 33t-33.5 14h-343q-15 0 -24 -8.5t-9 -20.5q0 -13 9.5 -22.5t23.5 -9.5h311q0 -9 0.5 -57.5t0 -68.5t-3.5 -58t-9 -70q-7 -30 11 -34q9 -3 20 2.5t15 17.5q42 112 42 282zM227 325h-177q-15 0 -24 -9t-9 -20q0 -13 8.5 -21.5t23.5 -8.5h299 q72 0 149 11t113 29q21 10 19 26.5t-28 10.5q-81 -18 -256 -18h-44v142q0 19 -10.5 32t-28.5 13h-84q-32 0 -32 -22q0 -20 27 -25q30 -6 42 -15.5t12 -37.5v-87zM735 720q0 18 -11.5 31.5t-28.5 13.5h-94q-33 0 -33 -23q0 -17 39 -24q29 -5 41.5 -15.5t12.5 -38.5v-438h19 q25 0 40 24t15 70v400zM648 106v-201h-282q3 21 3 27v174h279zM717 -157q11 0 17.5 9.5t6.5 20.5t-6 21t-17 10h-6q9 22 9 70v155q0 38 -33 38h-420q-31 0 -31 -21q0 -19 26 -26q20 -5 26.5 -14t6.5 -35v-255h25q8 0 17.5 8.5t13.5 18.5h365z" />
<glyph unicode="&#xad45;" horiz-adv-x="850" d="M485 656q0 47 -44 47h-345q-15 0 -24 -8.5t-9 -20.5q0 -13 9.5 -22t24.5 -9h311q0 -12 0.5 -50t0 -60t-1.5 -55t-3.5 -61t-6.5 -53q-1 -2 -1 -4.5t-1 -3.5h-97v133q0 19 -10.5 31.5t-28.5 12.5h-83q-33 0 -33 -22q0 -19 27 -24q21 -5 30 -9.5t16.5 -15t7.5 -29.5v-77 h-174q-15 0 -24 -9t-9 -21q0 -13 8.5 -21.5t23.5 -8.5h299q72 0 149 11t113 30q21 10 19 26.5t-28 11.5q-59 -14 -155 -18q19 49 29 137.5t10 161.5zM735 721q0 18 -11.5 31t-28.5 13h-94q-33 0 -33 -22q0 -17 39 -24q29 -6 41.5 -16.5t12.5 -38.5v-395h19q55 0 55 92v360z M369 8h279v-102h-279v102zM717 -155q24 0 24 30t-23 30h-6q9 22 9 66v210q0 42 -39 42h-68q-31 0 -31 -21q0 -17 31 -24q21 -5 27.5 -11.5t6.5 -29.5v-69h-279v85q0 41 -36 41h-70q-30 0 -30 -19q0 -11 5.5 -16.5t20.5 -8.5q22 -5 29.5 -13.5t7.5 -32.5v-285h18q30 0 40 26 h363z" />
<glyph unicode="&#xad47;" horiz-adv-x="850" d="M484 653q0 19 -10.5 33t-33.5 14h-343q-15 0 -24 -8.5t-9 -20.5q0 -13 9.5 -22.5t23.5 -9.5h311q0 -9 0.5 -57.5t0 -68.5t-3.5 -58t-9 -70q-7 -30 11 -34q9 -3 20 2.5t15 17.5q42 112 42 282zM735 720q0 18 -11.5 31.5t-28.5 13.5h-94q-14 0 -23.5 -6t-9.5 -17 q0 -17 39 -24q29 -6 41.5 -16.5t12.5 -37.5v-479h19q55 0 55 94v441zM225 333h-175q-15 0 -24 -9.5t-9 -20.5q0 -12 8.5 -21t23.5 -9h299q70 0 148 11t114 29q21 11 19 27t-28 11q-81 -18 -256 -18h-47v144q0 19 -11 31.5t-29 12.5h-82q-33 0 -33 -21q0 -20 27 -25 q20 -4 30 -8t17.5 -15t7.5 -30v-89zM498 54q22 38 29 70q5 25 -4.5 44t-38.5 19h-77q-30 0 -30 -21q0 -19 26 -23t32.5 -8.5t2.5 -14.5q-19 -69 -85 -136t-135 -108q-12 -7 -12 -18t10.5 -16.5t25.5 -0.5q51 20 113 65.5t108 99.5l208 -150q20 -14 40 -7q21 9 24 37 q2 20 -23 38z" />
<glyph unicode="&#xad49;" horiz-adv-x="850" d="M484 653q0 19 -10.5 33t-33.5 14h-343q-15 0 -24 -8.5t-9 -20.5q0 -13 9.5 -22.5t23.5 -9.5h311q0 -9 0.5 -57.5t0 -68.5t-3.5 -58t-9 -70q-7 -30 11 -34q9 -3 20 2.5t15 17.5q42 112 42 282zM227 325h-177q-15 0 -24 -9t-9 -20q0 -13 8.5 -21.5t23.5 -8.5h299 q72 0 149 11t113 29q21 10 19 26.5t-28 10.5q-81 -18 -256 -18h-44v142q0 19 -10.5 32t-28.5 13h-84q-32 0 -32 -22q0 -20 27 -25q30 -6 42 -15.5t12 -37.5v-87zM735 720q0 18 -11.5 31.5t-28.5 13.5h-94q-33 0 -33 -23q0 -17 39 -24q29 -5 41.5 -15.5t12.5 -38.5v-438h19 q25 0 40 24t15 70v400zM306 22q0 -79 58.5 -132t147.5 -53q87 0 147 54t60 131q0 78 -60 130.5t-147 52.5q-90 0 -148 -53.5t-58 -129.5zM380 22q0 51 38 86t94 36q56 -1 94.5 -36.5t38.5 -85.5q0 -49 -38.5 -86.5t-94.5 -36.5q-58 -1 -95 35.5t-37 87.5z" />
<glyph unicode="&#xad50;" d="M689 613q0 48 -44 48h-427q-14 0 -23 -9t-9 -20q0 -13 9 -22.5t23 -9.5h394v-29q0 -228 -17 -318q-3 -14 -6 -27q-7 -29 14 -34q9 -2 18.5 3t14.5 17q53 122 53 401zM67 85q-14 0 -22.5 -9t-8.5 -20q0 -13 8.5 -22.5t22.5 -9.5h782q15 0 23 9t8 22q0 11 -8 20.5t-23 9.5 h-293v276q0 20 -10.5 32.5t-27.5 12.5h-72q-32 0 -32 -21q0 -20 28 -26q26 -6 34.5 -15t8.5 -37v-222h-115v245q0 19 -11 31.5t-29 12.5h-72q-33 0 -33 -21q0 -18 28 -25q27 -5 35 -14.5t8 -38.5v-190h-229z" />
<glyph unicode="&#xad54;" d="M689 649q0 19 -10 33t-34 14h-417q-14 0 -22.5 -9t-8.5 -21t8.5 -22t22.5 -10h384v-47.5v-49.5t-0.5 -44.5t-1.5 -47t-2.5 -41.5t-4.5 -44t-7 -40q-2 -10 -1 -15h-49v156q0 20 -10.5 32.5t-28.5 12.5h-71q-33 0 -33 -21q0 -20 29 -26q26 -5 34 -14.5t8 -38.5v-101h-104 v136q0 18 -11 31.5t-28 13.5h-73q-33 0 -33 -23q0 -19 28 -24q26 -6 34.5 -16t8.5 -38v-80h-229q-13 0 -22 -8.5t-9 -19.5q0 -13 8.5 -22.5t22.5 -9.5h782q31 0 31 31q0 11 -8 20t-23 9h-205v1l1 2q42 123 44 341zM247 -67q-1 -49 23 -67.5t78 -18.5h342q14 0 23 10t9 22 t-9.5 21t-23.5 9h-348q-21 0 -21 23v172q0 19 -11.5 31.5t-28.5 12.5h-83q-33 0 -33 -21q0 -11 7.5 -17t28.5 -10q27 -7 37 -16.5t10 -35.5v-115z" />
<glyph unicode="&#xad58;" d="M689 675q0 48 -44 48h-417q-14 0 -22.5 -9t-8.5 -20q0 -13 8.5 -22.5t22.5 -9.5h384v-43v-41.5t-0.5 -33.5t-1 -36t-2 -32t-3.5 -37.5t-5 -37.5q-2 -14 -2 -18h-52v136q0 20 -10.5 32.5t-28.5 12.5h-71q-33 0 -33 -22q0 -19 29 -25q26 -5 34 -15t8 -38v-81h-104v121 q0 19 -11 32.5t-28 13.5h-73q-33 0 -33 -23q0 -18 28 -25q26 -5 34.5 -15t8.5 -38v-66h-229q-14 0 -22.5 -9t-8.5 -20q0 -13 8.5 -22.5t22.5 -9.5h782q15 0 23 9t8 22q0 11 -8 20.5t-23 9.5h-204q1 1 1 2.5t1 2.5q42 126 42 287zM218 68q-27 0 -27 -21q0 -16 23 -24 q20 -6 27 -14t7 -30v-65q0 -31 18 -51t50 -20h381q13 0 21.5 9.5t8.5 21.5q0 11 -8.5 20.5t-21.5 9.5h-351q-25 0 -25 27v77h335q37 0 37 47v134q0 40 -37 40h-409q-30 0 -30 -29q0 -12 8 -21.5t22 -9.5h372v-101h-401z" />
<glyph unicode="&#xad61;" d="M689 675q0 48 -44 48h-417q-14 0 -22.5 -9t-8.5 -20q0 -13 8.5 -22.5t22.5 -9.5h384v-43v-41.5t-0.5 -33.5t-1 -36t-2 -32t-3.5 -37.5t-5 -37.5q-2 -14 -2 -18h-52v136q0 20 -10.5 32.5t-28.5 12.5h-71q-33 0 -33 -22q0 -19 29 -25q26 -5 34 -15t8 -38v-81h-104v121 q0 19 -11 32.5t-28 13.5h-73q-33 0 -33 -23q0 -18 28 -25q26 -5 34.5 -15t8.5 -38v-66h-229q-14 0 -22.5 -9t-8.5 -20q0 -13 8.5 -22.5t22.5 -9.5h782q15 0 23 9t8 22q0 11 -8 20.5t-23 9.5h-204q1 1 1 2.5t1 2.5q42 126 42 287zM311 20h299v-105h-299v105zM679 -145 q11 0 17.5 9t6.5 21q0 11 -6.5 20t-17.5 9h-6q10 20 10 66v200q0 42 -39 42h-68q-31 0 -31 -21q0 -17 31 -24q21 -5 27.5 -11.5t6.5 -29.5v-56h-299v85q0 41 -37 41h-69q-32 0 -32 -20q0 -19 28 -24q21 -5 29 -14t8 -33v-287h17q30 0 40 27h384z" />
<glyph unicode="&#xad63;" d="M689 670q0 47 -44 47h-417q-14 0 -22.5 -8.5t-8.5 -19.5q0 -13 8.5 -22.5t22.5 -9.5h384q0 -9 0.5 -56t0 -64t-2 -52t-5 -61t-8.5 -51q-3 -12 -0.5 -16t14.5 -7q27 -7 34 10q44 120 44 310zM67 346q-14 0 -22.5 -9t-8.5 -20q0 -13 8.5 -22t22.5 -9h782q15 0 23 8.5 t8 20.5t-8 21.5t-23 9.5h-302v157q0 19 -10.5 32t-26.5 13h-73q-33 0 -33 -22q0 -19 29 -25q26 -6 34 -15.5t8 -38.5v-101h-105v136q0 19 -11 32t-29 13h-72q-33 0 -33 -22q0 -20 28 -25q26 -5 34.5 -15t8.5 -38v-81h-229zM483 77q21 35 28 67q5 25 -5 44.5t-39 19.5h-77 q-30 0 -30 -22q0 -19 26 -23t32 -8t4 -15q-12 -60 -89 -140.5t-139 -108.5q-21 -9 -12.5 -26t32.5 -10q54 17 121.5 66t114.5 109l225 -157q18 -13 37 -6q21 8 24 37q2 20 -23 35z" />
<glyph unicode="&#xad6c;" d="M689 649q0 19 -10 33t-34 14h-417q-14 0 -22.5 -9t-8.5 -21t8.5 -22t22.5 -10h384v-54v-57.5t-1 -49t-2.5 -54t-4.5 -45.5t-7 -49h-530q-13 0 -22 -8.5t-9 -19.5q0 -13 8.5 -22t22.5 -9h356v-376h20q23 0 37.5 24t14.5 71v281h354q15 0 23 8.5t8 21.5q0 11 -8 20t-23 9 h-199q37 126 39 324z" />
<glyph unicode="&#xad6d;" d="M689 670q0 47 -44 47h-417q-14 0 -22.5 -8.5t-8.5 -19.5q0 -13 8.5 -22.5t22.5 -9.5h384q0 -196 -10 -258h-535q-14 0 -22.5 -9t-8.5 -21t8.5 -21t22.5 -9h356v-141h-203q-9 0 -16 -9.5t-7 -21.5q0 -11 7 -20t16 -9h390v-287h20q22 0 37.5 24.5t15.5 68.5v213 q0 41 -40 41h-160q12 24 12 66v75h354q15 0 23 8.5t8 20.5t-8 21.5t-23 9.5h-191q31 114 31 271z" />
<glyph unicode="&#xad70;" d="M689 649q0 19 -10 33t-34 14h-417q-14 0 -22.5 -9t-8.5 -21t8.5 -22t22.5 -10h384v-53v-55.5t-0.5 -47.5t-2 -52t-4.5 -45t-7 -48h-531q-13 0 -22 -9.5t-9 -20.5q0 -12 8.5 -21.5t22.5 -9.5h389v-240h21q22 0 37 25t15 72v143h320q15 0 23 9t8 21q0 11 -8.5 21t-22.5 10 h-196q34 128 36 316zM247 -67q-1 -49 23 -67.5t78 -18.5h342q14 0 23 10t9 22t-9.5 21t-23.5 9h-348q-21 0 -21 23v172q0 19 -11.5 31.5t-28.5 12.5h-83q-33 0 -33 -21q0 -11 7.5 -17t28.5 -10q27 -7 37 -16.5t10 -35.5v-115z" />
<glyph unicode="&#xad73;" d="M689 670q0 47 -44 47h-417q-14 0 -22.5 -8.5t-8.5 -19.5q0 -13 8.5 -22.5t22.5 -9.5h384q0 -196 -10 -258h-535q-14 0 -22.5 -9t-8.5 -21t8.5 -21t22.5 -9h356v-152h-212q-29 0 -29 -21q0 -20 27 -25q22 -4 27.5 -16.5t5.5 -48.5v-163q0 -37 21.5 -51.5t49.5 -14.5h362 q14 0 21.5 9t7.5 22q0 12 -8 21t-22 9h-338q-12 0 -16.5 4.5t-4.5 20.5v194h355q10 0 17 9t7 20q0 12 -7.5 21.5t-17.5 9.5h-192q18 26 18 77v75h354q15 0 23 8.5t8 20.5t-8 21.5t-23 9.5h-191q31 114 31 271z" />
<glyph unicode="&#xad74;" d="M689 675q0 48 -44 48h-417q-14 0 -22.5 -9t-8.5 -20q0 -13 8.5 -22.5t22.5 -9.5h384q0 -177 -10 -250h-535q-13 0 -22 -9.5t-9 -20.5q0 -13 8.5 -22t22.5 -9h356v-122h-176q-30 0 -30 -29q0 -12 8 -21.5t22 -9.5h372v-101h-401q-27 0 -27 -21q0 -16 23 -24q20 -6 27 -14 t7 -30v-65q0 -31 18 -51t50 -20h381q13 0 21.5 9.5t8.5 21.5q0 11 -8.5 20.5t-21.5 9.5h-351q-25 0 -25 27v77h335q37 0 37 47v134q0 40 -37 40h-174q13 26 13 68v54h354q15 0 23 8.5t8 21.5q0 11 -8.5 21t-22.5 10h-194q34 114 34 263z" />
<glyph unicode="&#xad75;" d="M689 675q0 48 -44 48h-417q-14 0 -22.5 -9t-8.5 -20q0 -13 8.5 -22.5t22.5 -9.5h384q0 -177 -10 -250h-535q-13 0 -22 -9.5t-9 -20.5q0 -13 8.5 -22t22.5 -9h356v-126h-220q-14 0 -22 -8.5t-8 -21.5q0 -11 8.5 -20.5t21.5 -9.5h180v-96h-203q-24 0 -24 -20q0 -15 18 -22 q17 -7 22 -15.5t5 -30.5v-63q0 -31 18 -51t50 -20h191q13 0 21 9.5t8 21.5q0 11 -8 20.5t-21 9.5h-159q-27 0 -27 27v74h146q36 0 36 47v129q0 7 -2 17q41 12 41 95v54h354q15 0 23 8.5t8 21.5q0 11 -8.5 21t-22.5 10h-194q34 114 34 263zM727 185q0 40 -40 40h-190 q-10 0 -17.5 -9.5t-7.5 -20.5t8 -20.5t18 -9.5h155v-318h22q22 0 37 24t15 68v246z" />
<glyph unicode="&#xad76;" d="M689 675q0 48 -44 48h-417q-14 0 -22.5 -9t-8.5 -20q0 -13 8.5 -22.5t22.5 -9.5h384q0 -177 -10 -250h-535q-13 0 -22 -9.5t-9 -20.5q0 -13 8.5 -22t22.5 -9h356v-151h15q1 -13 20 -20q15 -7 19.5 -15t4.5 -33v-295h25q9 0 18 8t12 19h208q22 0 22 31q0 11 -6 19.5 t-16 8.5h-6q9 21 9 68v195q0 15 -8.5 26t-25.5 11h-235q16 26 16 74v54h354q15 0 23 8.5t8 21.5q0 11 -8.5 21t-22.5 10h-194q34 114 34 263zM148 68q-25 0 -25 -20q0 -19 20 -28q17 -6 21.5 -12.5t4.5 -26.5v-63q0 -30 23 -50.5t56 -20.5h181q13 0 20.5 9.5t7.5 21.5 q0 11 -7.5 20.5t-20.5 9.5h-161q-25 0 -25 28v72h144q37 0 37 47v128q0 40 -36 40h-217q-29 0 -29 -30q0 -11 8 -20.5t21 -9.5h181v-95h-204zM675 163v-239h-121q1 7 1 28v211h120z" />
<glyph unicode="&#xad7b;" d="M689 675q0 48 -44 48h-417q-14 0 -22.5 -9t-8.5 -20q0 -13 8.5 -22.5t22.5 -9.5h384q0 -178 -11 -257h-534q-13 0 -22 -9.5t-9 -20.5q0 -12 8.5 -22t22.5 -10h356v-145h20q18 0 30 15q1 -12 11 -18l46 -32q22 -13 61 -13h82q14 0 23.5 7t9.5 20q0 33 -35 33 q-54 0 -85.5 6t-71.5 25q-14 5 -26 0q7 24 7 53v49h354q15 0 23 9.5t8 21.5q0 11 -8.5 21t-22.5 10h-197q37 117 37 270zM138 70q-24 0 -24 -20q0 -15 19 -22q16 -7 21 -15.5t5 -30.5v-64q0 -31 18.5 -51.5t49.5 -20.5h193q13 0 21 10t8 22q0 11 -8 20.5t-21 9.5h-161 q-27 0 -27 27v75h136q37 0 37 47v129q0 41 -37 41h-206q-30 0 -30 -29q0 -12 8 -21.5t22 -9.5h169v-97h-193zM442 96q-13 0 -22 -10t-9 -21q0 -12 8.5 -21t22.5 -9h45q-30 -30 -30 -74q0 -56 39.5 -90.5t102.5 -34.5t103.5 34.5t40.5 91.5q0 41 -30 73h45q14 0 22.5 9 t8.5 21t-8.5 21.5t-22.5 9.5h-316zM526 -35q0 29 20 48.5t53 19.5t53.5 -19t20.5 -49q0 -32 -20.5 -52.5t-53.5 -20.5q-34 0 -53.5 21t-19.5 52z" />
<glyph unicode="&#xad7c;" d="M689 670q0 47 -44 47h-417q-14 0 -22.5 -8.5t-8.5 -19.5q0 -13 8.5 -22.5t22.5 -9.5h384q0 -196 -10 -258h-535q-14 0 -22.5 -9t-8.5 -21t8.5 -21t22.5 -9h356v-150h-209q-31 0 -31 -20q0 -19 27 -26q20 -6 26.5 -14.5t6.5 -34.5v-267h24q9 0 18 8t13 18h383 q10 0 16.5 9.5t6.5 20.5q0 12 -6 21.5t-16 9.5h-7q10 21 10 70v167q0 38 -33 38h-174q17 25 17 75v75h354q15 0 23 8.5t8 20.5t-8 21.5t-23 9.5h-191q31 114 31 271zM612 129v-214h-299q3 21 3 27v187h296z" />
<glyph unicode="&#xad7d;" d="M689 675q0 48 -44 48h-417q-14 0 -22.5 -9t-8.5 -20q0 -13 8.5 -22.5t22.5 -9.5h384q0 -177 -10 -250h-535q-13 0 -22 -9.5t-9 -20.5q0 -13 8.5 -22t22.5 -9h356v-151h20q22 0 37 25t15 72v54h354q15 0 23 8.5t8 21.5q0 11 -8.5 21t-22.5 10h-194q34 114 34 263zM311 20 h299v-105h-299v105zM679 -145q11 0 17.5 9t6.5 21q0 11 -6.5 20t-17.5 9h-6q10 20 10 66v200q0 42 -39 42h-68q-31 0 -31 -21q0 -17 31 -24q21 -5 27.5 -11.5t6.5 -29.5v-56h-299v85q0 41 -37 41h-69q-32 0 -32 -20q0 -19 28 -24q21 -5 29 -14t8 -33v-287h17q30 0 40 27h384 z" />
<glyph unicode="&#xad7f;" d="M689 670q0 47 -44 47h-417q-14 0 -22.5 -8.5t-8.5 -19.5q0 -13 8.5 -22.5t22.5 -9.5h384q0 -196 -10 -258h-535q-14 0 -22.5 -9t-8.5 -21t8.5 -21t22.5 -9h356v-131h-33q-30 0 -30 -22q0 -19 26 -23t32 -8t4 -15q-12 -60 -89 -140.5t-139 -108.5q-21 -9 -12.5 -26 t32.5 -10q54 17 121.5 66t114.5 109l225 -157q18 -13 37 -6q21 8 24 37q2 20 -23 35l-230 138q21 35 28 67q4 20 -1.5 37.5t-23.5 23.5q9 23 9 59v75h354q15 0 23 8.5t8 20.5t-8 21.5t-23 9.5h-191q31 114 31 271z" />
<glyph unicode="&#xad81;" d="M689 670q0 47 -44 47h-417q-14 0 -22.5 -8.5t-8.5 -19.5q0 -13 8.5 -22.5t22.5 -9.5h384q0 -196 -10 -258h-535q-14 0 -22.5 -9t-8.5 -21t8.5 -21t22.5 -9h356v-121q-75 -12 -125 -63.5t-50 -122.5q0 -80 61.5 -133.5t147.5 -53.5q85 0 147 53.5t62 133.5q0 74 -50.5 125 t-125.5 61q5 22 5 46v75h354q15 0 23 8.5t8 20.5t-8 21.5t-23 9.5h-191q31 114 31 271zM323 32q0 54 40 90.5t94 36.5t94 -37t40 -90t-40 -89t-94 -36q-55 0 -94.5 35.5t-39.5 89.5z" />
<glyph unicode="&#xad82;" d="M689 675q0 48 -44 48h-417q-14 0 -22.5 -9t-8.5 -20q0 -13 8.5 -22.5t22.5 -9.5h384v-43v-41.5t-0.5 -33.5t-1 -36t-2 -32t-3.5 -37.5t-5 -37.5q0 -3 -1 -4h-532q-14 0 -22.5 -9t-8.5 -20q0 -13 8.5 -22t22.5 -9h356v-131h-154q-9 0 -16.5 -9t-7.5 -21t7 -21.5t16 -9.5 h270q-33 -72 -128 -150t-176 -112q-25 -10 -15 -34q7 -10 31 -6q48 11 115.5 47t126.5 84l204 -124q20 -11 37 -2q22 11 23 37q2 26 -23 38l-190 96q69 69 89 135q6 18 -3.5 35t-28.5 17h-114q9 22 9 60v71h354q15 0 23 8.5t8 20.5t-8 21.5t-23 9.5h-199q39 121 39 278z" />
<glyph unicode="&#xad88;" horiz-adv-x="850" d="M485 645q0 46 -44 46h-345q-14 0 -23.5 -8.5t-9.5 -19.5q0 -13 9.5 -22.5t24.5 -9.5h312v-65v-54.5t-0.5 -39t-2 -38.5t-3.5 -31t-6 -37q-3 -16 -1 -23h-346q-15 0 -24 -9t-9 -20q0 -12 8.5 -20.5t23.5 -8.5h201v-364h20q23 0 38 24.5t15 71.5v268h25q71 0 148 10.5 t114 28.5q20 10 17.5 26t-27.5 11q-65 -15 -162 -17q3 3 5 9q40 96 42 292zM738 720q0 18 -11.5 31.5t-28.5 13.5h-94q-14 0 -23.5 -6t-9.5 -17q0 -17 39 -24q28 -5 41 -16t13 -38v-465h-192q-10 0 -17.5 -8t-7.5 -21q0 -14 7.5 -22.5t16.5 -8.5h193v-239h19q55 0 55 94v726 z" />
<glyph unicode="&#xad89;" horiz-adv-x="850" d="M481 658q0 19 -10.5 33.5t-33.5 14.5h-332q-14 0 -23.5 -9t-9.5 -21q0 -13 9.5 -22t24.5 -9h297q0 -154 -16 -225h-337q-15 0 -24 -9.5t-9 -21.5t8.5 -21t23.5 -9h207v-177h21q23 0 38 24.5t15 72.5v80h18q70 0 147.5 11.5t114.5 29.5q20 10 17.5 26.5t-27.5 11.5 q-70 -15 -159 -17q40 107 40 237zM740 720q0 19 -11.5 32t-28.5 13h-94q-33 0 -33 -22q0 -17 39 -25q29 -5 41.5 -15.5t12.5 -38.5v-340h-194q-10 0 -17.5 -8.5t-7.5 -21.5q0 -12 7.5 -21t16.5 -9h195v-79h19q55 0 55 95v440zM721 100q0 41 -40 41h-410q-9 0 -16.5 -10 t-7.5 -21q0 -12 7 -21.5t17 -9.5h377v-232h21q22 0 37 24.5t15 68.5v160z" />
<glyph unicode="&#xad8c;" horiz-adv-x="850" d="M484 653q0 19 -10.5 33t-33.5 14h-344q-15 0 -24 -8.5t-9 -20.5q0 -13 9.5 -22.5t23.5 -9.5h310q0 -17 0.5 -56.5t0.5 -63t-2 -58t-7 -64.5h-348q-15 0 -24 -9.5t-9 -21.5t8.5 -21t23.5 -9h199v-184h20q23 0 38 25t15 72v87h26q70 0 148 11.5t115 29.5q20 11 17.5 27 t-27.5 11q-63 -14 -147 -17q31 95 31 255zM740 720q0 19 -11.5 32t-28.5 13h-94q-33 0 -33 -22q0 -18 39 -25q29 -5 41.5 -15.5t12.5 -38.5v-383h-194q-10 0 -17.5 -8.5t-7.5 -21.5t7.5 -22t16.5 -9h195v-124h19q55 0 55 95v529zM283 -66q-1 -50 23 -68t78 -18h332 q14 0 23 10t9 21q0 12 -9 21t-24 9h-338q-21 0 -21 24v134q0 19 -11.5 32t-28.5 13h-83q-33 0 -33 -21q0 -12 7 -18t29 -10q27 -7 37 -16t10 -36v-77z" />
<glyph unicode="&#xad90;" horiz-adv-x="850" d="M481 666q0 18 -10.5 32.5t-33.5 14.5h-332q-14 0 -23.5 -9.5t-9.5 -20.5q0 -12 9.5 -22t23.5 -10h298q0 -10 0.5 -39.5t0 -45t-1.5 -40t-3.5 -45t-7.5 -40.5h-341q-15 0 -24 -9.5t-9 -20.5q0 -12 8.5 -21.5t23.5 -9.5h197v-150h20q23 0 38 24.5t15 70.5v55h29 q69 0 147 11.5t115 29.5q20 11 17.5 27.5t-27.5 10.5q-58 -13 -153 -17q14 37 24 104t10 120zM741 720q0 18 -11.5 31.5t-28.5 13.5h-94q-33 0 -33 -23q0 -17 39 -24q29 -5 41.5 -15.5t12.5 -38.5v-319h-195q-10 0 -17.5 -8.5t-7.5 -22.5q0 -12 7.5 -21t16.5 -9h196v-54h19 q55 0 55 90v400zM267 42q-26 0 -26 -21q0 -17 21 -23q20 -5 27 -14t7 -30v-46q0 -30 18.5 -50.5t49.5 -20.5h361q14 0 21.5 9.5t7.5 22.5q0 11 -8 20t-21 9h-329q-27 0 -27 27v57h315q37 0 37 48v109q0 41 -37 41h-389q-29 0 -29 -31q0 -11 8 -20t21 -9h352v-78h-380z" />
<glyph unicode="&#xad9c;" horiz-adv-x="850" d="M481 658q0 19 -10.5 33.5t-33.5 14.5h-332q-14 0 -23.5 -9.5t-9.5 -20.5q0 -13 9.5 -22t24.5 -9h297q0 -161 -15 -222h-338q-15 0 -24 -9.5t-9 -20.5q0 -13 8.5 -22t23.5 -9h207v-165h21q23 0 38 24.5t15 71.5v69h28q70 0 142.5 11t109.5 30q20 10 17.5 26.5t-27.5 11.5 q-66 -15 -159 -17q16 40 28 108.5t12 125.5zM740 720q0 19 -11.5 32t-28.5 13h-94q-33 0 -33 -22q0 -18 39 -25q29 -5 41.5 -15.5t12.5 -38.5v-338h-194q-10 0 -17.5 -8t-7.5 -21q0 -12 7.5 -21t16.5 -9h195v-75h19q55 0 55 95v433zM436 -102q-24 -24 -46 -40 q-12 -9 -12 -20t10.5 -14t26.5 3q44 21 91 62.5t81 90.5l154 -123q18 -15 38 -9q25 8 27 39q2 19 -23 37l-164 109q24 44 25 82q2 27 -6 42t-38 15h-77q-30 0 -30 -23q0 -5 1.5 -8t4.5 -5t5.5 -3t7.5 -2t7 -2q27 -8 33 -12t5 -13q-7 -68 -74 -153l-112 76q20 38 26 73 q10 56 -45 56h-78q-30 0 -30 -20q0 -3 0.5 -5.5t1.5 -4.5t2 -3t3 -2.5t3.5 -2t4 -1.5t4 -1t5 -1t4.5 -1q38 -8 36 -28q-3 -41 -55 -112t-99 -97q-21 -12 -13 -27.5t31 -8.5q34 10 82.5 48.5t85.5 88.5z" />
<glyph unicode="&#xad9d;" horiz-adv-x="850" d="M481 658q0 19 -10.5 33.5t-33.5 14.5h-332q-14 0 -23.5 -9t-9.5 -21q0 -13 9.5 -22t24.5 -9h297q0 -154 -16 -225h-337q-15 0 -24 -9.5t-9 -21.5t8.5 -21t23.5 -9h207v-177h21q23 0 38 24.5t15 72.5v80h18q70 0 147.5 11.5t114.5 29.5q20 10 17.5 26.5t-27.5 11.5 q-70 -15 -159 -17q40 107 40 237zM740 720q0 19 -11.5 32t-28.5 13h-94q-33 0 -33 -22q0 -17 39 -25q29 -5 41.5 -15.5t12.5 -38.5v-340h-194q-10 0 -17.5 -8.5t-7.5 -21.5q0 -12 7.5 -21t16.5 -9h195v-79h19q55 0 55 95v440zM304 22q0 -79 58.5 -132t147.5 -53q87 0 147 54 t60 131q0 78 -60 130.5t-147 52.5q-90 0 -148 -53.5t-58 -129.5zM378 22q0 51 38 86t94 36q56 -1 94.5 -36.5t38.5 -85.5q0 -49 -38.5 -86.5t-94.5 -36.5q-58 -1 -95 35.5t-37 87.5z" />
<glyph unicode="&#xada4;" horiz-adv-x="890" d="M405 626q0 48 -44 48h-286q-16 0 -24.5 -9t-8.5 -21q0 -13 8.5 -22t24.5 -9h252q0 -15 0.5 -53t0 -57.5t-1.5 -49t-3.5 -51.5t-6.5 -40q-3 -13 -2 -20q-32 -1 -95 -1h-170q-14 0 -23 -9.5t-9 -20.5q0 -12 8.5 -20.5t22.5 -8.5h160v-332h20q23 0 38 24.5t15 71.5v238 q144 7 203 37q21 10 18.5 26.5t-27.5 10.5q-49 -11 -118 -14q1 0 1 1t1 2q46 96 46 279zM793 720q0 19 -11 32t-28 13h-93q-33 0 -33 -23q0 -17 39 -24q28 -5 40.5 -16t12.5 -38v-764h19q54 0 54 94v726zM606 677q0 19 -11 32.5t-28 13.5h-94q-32 0 -32 -23q0 -18 39 -25 q29 -5 41 -15.5t12 -37.5v-407h-162q-10 0 -18 -8.5t-8 -22.5q0 -12 8 -21.5t17 -9.5h163v-203h18q55 0 55 94v633z" />
<glyph unicode="&#xadb7;" horiz-adv-x="890" d="M411 646q0 46 -44 46h-276q-16 0 -24.5 -8.5t-8.5 -19.5q0 -13 8.5 -22.5t24.5 -9.5h242q0 -150 -12 -203q0 -2 -1 -3q-34 -1 -101 -1h-170q-14 0 -23 -9t-9 -22q0 -12 8.5 -21t22.5 -9h160v-205h20q23 0 38 24.5t15 71.5v111q147 10 203 39q13 7 17.5 17.5t-3 17 t-23.5 2.5q-44 -10 -102 -13q17 36 27.5 98t10.5 119zM793 720q0 19 -10.5 32t-28.5 13h-93q-33 0 -33 -22q0 -18 39 -25q28 -5 40.5 -15.5t12.5 -38.5v-536h19q54 0 54 95v497zM604 677q0 20 -11 33t-28 13h-94q-32 0 -32 -22q0 -19 39 -26q29 -5 41 -15t12 -38v-292h-150 q-10 0 -18 -8t-8 -21t7.5 -21.5t17.5 -8.5h151v-90h18q55 0 55 95v401zM549 35q22 33 29 63q6 23 -4.5 42.5t-39.5 19.5h-76q-30 0 -30 -22q0 -18 27 -22q26 -4 32 -8.5t3 -15.5q-18 -54 -86 -119t-133 -98q-13 -6 -14 -16.5t9 -16.5t25 -2q46 14 110.5 55.5t111.5 92.5 l211 -134q21 -14 39 -5q20 9 23 36q2 22 -23 36z" />
<glyph unicode="&#xadc0;" horiz-adv-x="850" d="M485 645q0 46 -44 46h-345q-14 0 -23.5 -8.5t-9.5 -19.5q0 -13 9.5 -22.5t24.5 -9.5h312v-65v-54.5t-0.5 -39t-2 -38.5t-3.5 -31t-6 -37q-3 -16 -1 -23h-346q-15 0 -24 -9t-9 -20q0 -12 8.5 -20.5t23.5 -8.5h203v-365h20q23 0 38 24.5t15 71.5v269h23q71 0 148 10.5 t114 28.5q20 10 17.5 26t-27.5 11q-65 -15 -162 -17q3 3 5 9q40 96 42 292zM735 720q0 18 -11.5 31.5t-28.5 13.5h-94q-14 0 -23.5 -6t-9.5 -17q0 -17 39 -24q28 -5 41 -16t13 -38v-764h19q55 0 55 94v726z" />
<glyph unicode="&#xadc1;" horiz-adv-x="850" d="M481 658q0 19 -10.5 33.5t-33.5 14.5h-332q-14 0 -23.5 -9t-9.5 -21q0 -13 9.5 -22t24.5 -9h297q0 -157 -17 -227h-336q-15 0 -24 -9t-9 -21q0 -13 8.5 -22t23.5 -9h192v-176h21q23 0 37.5 24.5t14.5 72.5v79h34q71 0 148 11.5t114 30.5q20 10 17.5 26.5t-27.5 11.5 q-68 -16 -160 -18q41 103 41 239zM735 720q0 19 -11.5 32t-28.5 13h-94q-33 0 -33 -22q0 -18 39 -25q29 -5 41.5 -15.5t12.5 -38.5v-479h19q55 0 55 95v440zM721 100q0 41 -40 41h-410q-9 0 -16.5 -10t-7.5 -21q0 -12 7 -21.5t17 -9.5h377v-232h21q22 0 37 24.5t15 68.5v160 z" />
<glyph unicode="&#xadc4;" horiz-adv-x="850" d="M484 653q0 19 -10.5 33t-33.5 14h-344q-15 0 -24 -8.5t-9 -20.5q0 -13 9.5 -22.5t23.5 -9.5h310q0 -18 1 -58t1 -64t-2.5 -59t-8.5 -65h-347q-15 0 -24 -9.5t-9 -21.5t8.5 -21.5t23.5 -9.5h199v-166h20q23 0 38 25t15 72v69h27q69 0 147 11.5t115 29.5q20 12 17.5 28 t-27.5 10q-59 -12 -148 -16q32 96 32 259zM735 720q0 19 -11.5 32t-28.5 13h-94q-33 0 -33 -22q0 -17 39 -25q29 -5 41.5 -15.5t12.5 -38.5v-575h19q55 0 55 95v536zM283 -66q-1 -50 23 -68t78 -18h332q14 0 23 10t9 21q0 12 -9 21t-24 9h-338q-21 0 -21 24v134 q0 19 -11.5 32t-28.5 13h-83q-33 0 -33 -21q0 -12 7 -18t29 -10q27 -7 37 -16t10 -36v-77z" />
<glyph unicode="&#xadc8;" horiz-adv-x="850" d="M481 666q0 18 -10.5 32.5t-33.5 14.5h-332q-14 0 -23.5 -9.5t-9.5 -20.5q0 -12 9.5 -22t23.5 -10h298q0 -10 0.5 -40t0 -45.5t-1.5 -40.5t-3.5 -45.5t-7.5 -40.5q0 -1 -0.5 -3t-0.5 -3h-340q-15 0 -24 -9.5t-9 -21.5t8.5 -21.5t23.5 -9.5h197v-146h20q23 0 38 24.5 t15 71.5v50h29q69 0 147 11.5t115 29.5q20 11 17.5 27.5t-27.5 10.5q-64 -14 -157 -16q16 33 27 104t11 128zM735 720q0 18 -11.5 31.5t-28.5 13.5h-94q-33 0 -33 -23q0 -17 39 -24q29 -5 41.5 -15.5t12.5 -38.5v-439h19q25 0 40 23.5t15 69.5v402zM267 42q-26 0 -26 -21 q0 -17 21 -23q20 -5 27 -14t7 -30v-46q0 -30 18.5 -50.5t49.5 -20.5h361q14 0 21.5 9.5t7.5 22.5q0 11 -8 20t-21 9h-329q-27 0 -27 27v57h315q37 0 37 48v109q0 41 -37 41h-389q-29 0 -29 -31q0 -11 8 -20t21 -9h352v-78h-380z" />
<glyph unicode="&#xadd0;" horiz-adv-x="850" d="M481 658q0 19 -10.5 33.5t-33.5 14.5h-332q-14 0 -23.5 -9t-9.5 -21q0 -13 9.5 -22t24.5 -9h297q0 -157 -17 -227h-336q-15 0 -24 -9t-9 -21q0 -13 8.5 -22t23.5 -9h192v-176h21q23 0 37.5 24.5t14.5 72.5v79h34q71 0 148 11.5t114 30.5q20 10 17.5 26.5t-27.5 11.5 q-68 -16 -160 -18q41 103 41 239zM735 720q0 19 -11.5 32t-28.5 13h-94q-33 0 -33 -22q0 -18 39 -25q29 -5 41.5 -15.5t12.5 -38.5v-479h19q55 0 55 95v440zM648 87v-182h-282q3 21 3 27v155h279zM717 -156q11 0 17.5 9t6.5 20t-6 21t-17 10h-6q9 22 9 70v136q0 38 -33 38 h-420q-31 0 -31 -21q0 -18 26 -25q20 -5 26.5 -14.5t6.5 -35.5v-236h25q9 0 18 9t13 19h365z" />
<glyph unicode="&#xadd1;" horiz-adv-x="850" d="M481 666q0 18 -10.5 32.5t-33.5 14.5h-332q-14 0 -23.5 -9.5t-9.5 -20.5q0 -12 9.5 -22t23.5 -10h298q0 -10 0.5 -40t0 -45.5t-1.5 -40.5t-3.5 -45.5t-7.5 -40.5q0 -1 -0.5 -3t-0.5 -3h-340q-15 0 -24 -9.5t-9 -21.5t8.5 -21.5t23.5 -9.5h197v-146h20q23 0 38 24.5 t15 71.5v50h29q69 0 147 11.5t115 29.5q20 11 17.5 27.5t-27.5 10.5q-64 -14 -157 -16q16 33 27 104t11 128zM735 720q0 18 -11.5 31.5t-28.5 13.5h-94q-33 0 -33 -23q0 -17 39 -24q29 -5 41.5 -15.5t12.5 -38.5v-439h19q25 0 40 23.5t15 69.5v402zM369 5h279v-99h-279v99z M717 -155q24 0 24 30t-23 30h-6q9 23 9 67v188q0 42 -39 42h-68q-31 0 -31 -21q0 -15 30 -25q15 -4 21 -6.5t10 -10t4 -23.5v-50h-279v77q0 41 -36 41h-70q-30 0 -30 -20q0 -19 26 -24q22 -5 29.5 -13.5t7.5 -32.5v-274h18q30 0 40 25h363z" />
<glyph unicode="&#xadd3;" horiz-adv-x="850" d="M481 658q0 19 -10.5 33.5t-33.5 14.5h-332q-14 0 -23.5 -9t-9.5 -21q0 -13 9.5 -22t24.5 -9h297q0 -158 -17 -228q-1 -3 -1 -8h-335q-15 0 -24 -9.5t-9 -21.5q0 -13 8.5 -22t23.5 -9h197v-184h20q23 0 38 25t15 72v87h29q70 0 147.5 11.5t114.5 29.5q20 11 17.5 27 t-27.5 11q-67 -14 -163 -16q18 41 31 112t13 136zM735 720q0 18 -11.5 31.5t-28.5 13.5h-94q-33 0 -33 -23q0 -17 39 -24q29 -5 41.5 -15.5t12.5 -38.5v-511h19q25 0 40 24t15 71v472zM509 50q21 35 29 70q5 24 -4.5 43.5t-38.5 19.5h-77q-30 0 -30 -21q0 -19 26 -23t32 -8 t4 -16q-17 -67 -82.5 -134.5t-131.5 -105.5q-13 -7 -13.5 -18t10.5 -16.5t26 -0.5q52 19 112 63.5t104 98.5l205 -144q18 -14 39 -7q20 9 23 37q2 21 -23 36z" />
<glyph unicode="&#xaddc;" d="M689 649q0 19 -10 33t-34 14h-417q-14 0 -22.5 -9t-8.5 -21t8.5 -22t22.5 -10h384v-47.5v-49.5t-0.5 -44.5t-1.5 -47t-2.5 -41.5t-4.5 -44t-7 -40q0 -1 -0.5 -2.5t-0.5 -2.5h-528q-13 0 -22 -8.5t-9 -19.5q0 -13 8.5 -22t22.5 -9h209v-366h20q23 0 37.5 24t14.5 71v271 h220v-366h20q23 0 38 24t15 71v271h208q15 0 23 8.5t8 21.5q0 11 -8 20t-23 9h-202q40 124 42 334z" />
<glyph unicode="&#xade0;" d="M689 649q0 19 -10 33t-34 14h-417q-14 0 -22.5 -9t-8.5 -21t8.5 -22t22.5 -10h384v-52v-55t-0.5 -48t-2 -51.5t-4 -44.5t-6.5 -47h-532q-13 0 -22 -9t-9 -20q0 -12 8.5 -21.5t22.5 -9.5h298v-221h21q22 0 37 24.5t15 71.5v125h140v-221h21q23 0 37.5 24.5t14.5 71.5v125 h198q15 0 23 9t8 21q0 11 -8 20.5t-23 9.5h-196q34 128 36 313zM247 -67q-1 -49 23 -67.5t78 -18.5h342q14 0 23 10t9 22t-9.5 21t-23.5 9h-348q-21 0 -21 23v172q0 19 -11.5 31.5t-28.5 12.5h-83q-33 0 -33 -21q0 -11 7.5 -17t28.5 -10q27 -7 37 -16.5t10 -35.5v-115z" />
<glyph unicode="&#xade4;" d="M689 675q0 48 -44 48h-417q-14 0 -22.5 -9t-8.5 -20q0 -13 8.5 -22.5t22.5 -9.5h384q0 -176 -10 -249h-535q-13 0 -22 -9.5t-9 -20.5q0 -12 8.5 -22t22.5 -10h209v-122h-29q-30 0 -30 -29q0 -12 8 -21.5t22 -9.5h372v-101h-401q-27 0 -27 -21q0 -16 23 -24q20 -6 27 -14 t7 -30v-65q0 -31 18 -51t50 -20h381q13 0 21.5 9.5t8.5 21.5q0 11 -8.5 20.5t-21.5 9.5h-351q-25 0 -25 27v77h335q37 0 37 47v134q0 40 -37 40h-28q13 26 13 68v54h208q15 0 23 9t8 22q0 11 -8.5 21t-22.5 10h-194q34 114 34 262zM568 229h-233q13 26 13 68v54h220v-122z " />
<glyph unicode="&#xadf8;" d="M689 613q0 48 -44 48h-427q-14 0 -23 -9t-9 -20q0 -13 9 -22.5t23 -9.5h394v-29q0 -228 -17 -318q-3 -14 -6 -27q-7 -29 14 -34q9 -2 18.5 3t14.5 17q53 122 53 401zM67 84q-14 0 -22.5 -9t-8.5 -20q0 -12 8.5 -21.5t22.5 -9.5h782q15 0 23 9t8 21t-8 21t-23 9h-782z" />
<glyph unicode="&#xadf9;" d="M689 670q0 47 -44 47h-417q-14 0 -22.5 -8.5t-8.5 -19.5q0 -13 8.5 -22.5t22.5 -9.5h384q0 -14 0.5 -53.5t0 -58.5t-1.5 -50t-3.5 -56.5t-7.5 -49.5h-533q-13 0 -22 -9t-9 -20q0 -12 8.5 -21.5t22.5 -9.5h782q15 0 23 9t8 21q0 11 -8 20.5t-23 9.5h-194q34 118 34 281z M683 157q0 41 -40 41h-423q-9 0 -16 -9.5t-7 -21.5q0 -11 7 -20t16 -9h390v-287h20q22 0 37.5 24.5t15.5 68.5v213z" />
<glyph unicode="&#xadfc;" d="M689 649q0 19 -10 33t-34 14h-417q-14 0 -22.5 -9t-8.5 -21t8.5 -22t22.5 -10h384v-54v-57.5t-1 -48.5t-2.5 -54t-4.5 -45.5t-7 -48.5h-530q-13 0 -22 -9t-9 -19q0 -12 8.5 -21t22.5 -9h782q15 0 23 8.5t8 20.5q0 11 -8 20t-23 9h-198q36 129 38 323zM247 -67 q-1 -49 23 -67.5t78 -18.5h342q14 0 23 10t9 22t-9.5 21t-23.5 9h-348q-21 0 -21 23v172q0 19 -11.5 31.5t-28.5 12.5h-83q-33 0 -33 -21q0 -11 7.5 -17t28.5 -10q27 -7 37 -16.5t10 -35.5v-115z" />
<glyph unicode="&#xadff;" d="M689 670q0 47 -44 47h-417q-14 0 -22.5 -8.5t-8.5 -19.5q0 -13 8.5 -22.5t22.5 -9.5h384q0 -14 0.5 -53.5t0 -58.5t-1.5 -50t-3.5 -56.5t-7.5 -49.5h-533q-13 0 -22 -9t-9 -20q0 -12 8.5 -21.5t22.5 -9.5h782q15 0 23 9t8 21q0 11 -8 20.5t-23 9.5h-194q34 118 34 281z M670 127q10 0 17 9t7 20q0 12 -7.5 21.5t-17.5 9.5h-458q-29 0 -29 -21q0 -20 27 -25q22 -4 27.5 -16.5t5.5 -48.5v-163q0 -37 21.5 -51.5t49.5 -14.5h362q14 0 21.5 9t7.5 22q0 12 -8 21t-22 9h-338q-12 0 -16.5 4.5t-4.5 20.5v194h355z" />
<glyph unicode="&#xae00;" d="M689 675q0 48 -44 48h-417q-14 0 -22.5 -9t-8.5 -20q0 -13 8.5 -22.5t22.5 -9.5h384q0 -177 -11 -253h-534q-13 0 -22 -9t-9 -20q0 -13 8.5 -22t22.5 -9h782q15 0 23 8.5t8 21.5q0 11 -8 20.5t-23 9.5h-195q35 119 35 266zM218 68q-27 0 -27 -21q0 -16 23 -24 q20 -6 27 -14t7 -30v-65q0 -31 18 -51t50 -20h381q13 0 21.5 9.5t8.5 21.5q0 11 -8.5 20.5t-21.5 9.5h-351q-25 0 -25 27v77h335q37 0 37 47v134q0 40 -37 40h-409q-30 0 -30 -29q0 -12 8 -21.5t22 -9.5h372v-101h-401z" />
<glyph unicode="&#xae01;" d="M689 675q0 48 -44 48h-417q-14 0 -22.5 -9t-8.5 -20q0 -13 8.5 -22.5t22.5 -9.5h384q0 -177 -11 -253h-534q-13 0 -22 -9t-9 -20q0 -13 8.5 -22t22.5 -9h782q15 0 23 8.5t8 21.5q0 11 -8 20.5t-23 9.5h-195q35 119 35 266zM180 69q-24 0 -24 -20q0 -15 18 -22 q17 -7 22 -15.5t5 -30.5v-63q0 -31 18 -51t50 -20h191q13 0 21 9.5t8 21.5q0 11 -8 20.5t-21 9.5h-159q-27 0 -27 27v74h146q36 0 36 47v129q0 40 -36 40h-217q-14 0 -22 -8.5t-8 -21.5q0 -11 8.5 -20.5t21.5 -9.5h180v-96h-203zM727 185q0 40 -40 40h-190q-10 0 -17.5 -9.5 t-7.5 -20.5t8 -20.5t18 -9.5h155v-318h22q22 0 37 24t15 68v246z" />
<glyph unicode="&#xae08;" d="M689 670q0 47 -44 47h-417q-14 0 -22.5 -8.5t-8.5 -19.5q0 -13 8.5 -22.5t22.5 -9.5h384q0 -14 0.5 -53.5t0 -58.5t-1.5 -50t-3.5 -56.5t-7.5 -49.5h-533q-13 0 -22 -9t-9 -20q0 -12 8.5 -21.5t22.5 -9.5h782q15 0 23 9t8 21q0 11 -8 20.5t-23 9.5h-194q34 118 34 281z M612 129v-214h-299q3 21 3 27v187h296zM681 -147q10 0 16.5 9.5t6.5 20.5q0 12 -6 21.5t-16 9.5h-7q10 21 10 70v167q0 38 -33 38h-438q-31 0 -31 -20q0 -19 27 -26q20 -6 26.5 -14.5t6.5 -34.5v-267h24q9 0 18 8t13 18h383z" />
<glyph unicode="&#xae09;" d="M689 675q0 48 -44 48h-417q-14 0 -22.5 -9t-8.5 -20q0 -13 8.5 -22.5t22.5 -9.5h384q0 -177 -11 -253h-534q-13 0 -22 -9t-9 -20q0 -13 8.5 -22t22.5 -9h782q15 0 23 8.5t8 21.5q0 11 -8 20.5t-23 9.5h-195q35 119 35 266zM311 20h299v-105h-299v105zM679 -145 q11 0 17.5 9t6.5 21q0 11 -6.5 20t-17.5 9h-6q10 20 10 66v200q0 42 -39 42h-68q-31 0 -31 -21q0 -17 31 -24q21 -5 27.5 -11.5t6.5 -29.5v-56h-299v85q0 41 -37 41h-69q-32 0 -32 -20q0 -19 28 -24q21 -5 29 -14t8 -33v-287h17q30 0 40 27h384z" />
<glyph unicode="&#xae0b;" d="M689 670q0 47 -44 47h-417q-14 0 -22.5 -8.5t-8.5 -19.5q0 -13 8.5 -22.5t22.5 -9.5h384q0 -14 0.5 -53.5t0 -58.5t-1.5 -50t-3.5 -56.5t-7.5 -49.5h-533q-13 0 -22 -9t-9 -20q0 -12 8.5 -21.5t22.5 -9.5h782q15 0 23 9t8 21q0 11 -8 20.5t-23 9.5h-194q34 118 34 281z M483 77q21 35 28 67q5 25 -5 44.5t-39 19.5h-77q-30 0 -30 -22q0 -19 26 -23t32 -8t4 -15q-12 -60 -89 -140.5t-139 -108.5q-21 -9 -12.5 -26t32.5 -10q54 17 121.5 66t114.5 109l225 -157q18 -13 37 -6q21 8 24 37q2 20 -23 35z" />
<glyph unicode="&#xae0d;" d="M689 670q0 47 -44 47h-417q-14 0 -22.5 -8.5t-8.5 -19.5q0 -13 8.5 -22.5t22.5 -9.5h384q0 -14 0.5 -53.5t0 -58.5t-1.5 -50t-3.5 -56.5t-7.5 -49.5h-533q-13 0 -22 -9t-9 -20q0 -12 8.5 -21.5t22.5 -9.5h782q15 0 23 9t8 21q0 11 -8 20.5t-23 9.5h-194q34 118 34 281z M248 32q0 -80 61.5 -133.5t147.5 -53.5q85 0 147 53.5t62 133.5q0 83 -61.5 135.5t-147.5 52.5q-85 0 -147 -54t-62 -134zM323 32q0 54 40 90.5t94 36.5t94 -37t40 -90t-40 -89t-94 -36q-55 0 -94.5 35.5t-39.5 89.5z" />
<glyph unicode="&#xae14;" horiz-adv-x="850" d="M483 608q0 19 -10.5 33t-33.5 14h-342q-14 0 -23.5 -9t-9.5 -20q0 -13 9.5 -22.5t24.5 -9.5h307v-67.5v-64.5t-1 -49.5t-2.5 -53t-4.5 -41t-7 -46.5q-6 -29 13 -34q9 -3 19 3t16 18q41 106 45 349zM610 131q21 10 19 26.5t-28 11.5q-80 -19 -245 -19h-306q-15 0 -24 -9 t-9 -21q0 -13 8.5 -21.5t23.5 -8.5h310q70 0 142.5 11t108.5 30zM735 720q0 18 -11.5 31.5t-28.5 13.5h-94q-14 0 -23.5 -6t-9.5 -17q0 -17 39 -24q28 -5 41 -16t13 -38v-764h19q55 0 55 94v726z" />
<glyph unicode="&#xae30;" horiz-adv-x="850" d="M103 620q-15 0 -23.5 -9t-8.5 -21q0 -13 8 -22t22 -9h266q-26 -101 -113.5 -200t-180.5 -158q-8 -5 -9.5 -16t3.5 -17q12 -15 35 -4q116 56 221.5 169.5t133.5 242.5q3 16 -8 30t-30 14h-316zM735 720q0 19 -11 32t-29 13h-93q-32 0 -32 -23q0 -17 39 -24q28 -5 40.5 -16 t12.5 -38v-764h18q55 0 55 94v726z" />
<glyph unicode="&#xae31;" horiz-adv-x="850" d="M103 665q-15 0 -23.5 -9.5t-8.5 -21.5t8 -20.5t22 -8.5h266q-27 -90 -116.5 -173t-181.5 -130q-8 -4 -10 -15t3 -18q10 -14 34 -5q51 18 107 52.5t109 80t93 105t52 119.5q3 15 -8 29.5t-30 14.5h-316zM734 720q0 19 -11 32t-29 13h-93q-32 0 -32 -23q0 -17 39 -24 q28 -5 40.5 -15.5t12.5 -38.5v-427h18q55 0 55 93v390zM721 143q0 41 -40 41h-410q-10 0 -17 -9.5t-7 -21.5q0 -11 7.5 -20.5t16.5 -9.5h377v-286h21q22 0 37 24.5t15 68.5v213z" />
<glyph unicode="&#xae34;" horiz-adv-x="850" d="M102 660q-15 0 -23.5 -9.5t-8.5 -21.5t8 -21t22 -9h266q-26 -95 -113.5 -184t-181.5 -140q-8 -5 -10 -16.5t3 -17.5q10 -13 35 -4q119 44 227.5 153.5t129.5 225.5q2 16 -8.5 30t-29.5 14h-316zM734 720q0 19 -11 32t-29 13h-93q-32 0 -32 -22q0 -18 39 -25 q28 -5 40.5 -15.5t12.5 -38.5v-571h18q55 0 55 94v533zM288 -72q-1 -49 23 -67.5t78 -18.5h332q15 0 23.5 10t8.5 22q0 11 -9 20.5t-24 9.5h-337q-22 0 -22 22v179q0 19 -11 32t-29 13h-82q-33 0 -33 -22q0 -12 7 -17.5t29 -9.5q27 -7 36.5 -16.5t9.5 -35.5v-121z" />
<glyph unicode="&#xae37;" horiz-adv-x="850" d="M103 665q-15 0 -23.5 -9.5t-8.5 -21.5t8 -20.5t22 -8.5h266q-27 -90 -116.5 -173t-181.5 -130q-8 -4 -10 -15t3 -18q10 -14 34 -5q51 18 107 52.5t109 80t93 105t52 119.5q3 15 -8 29.5t-30 14.5h-316zM734 720q0 19 -11 32t-29 13h-93q-32 0 -32 -23q0 -17 39 -24 q28 -5 40.5 -15.5t12.5 -38.5v-427h18q55 0 55 93v390zM698 120q9 0 16 9t7 20q0 12 -7 21.5t-17 9.5h-432q-28 0 -28 -21q0 -20 26 -25q22 -4 27.5 -16.5t5.5 -48.5v-166q0 -37 22 -51.5t49 -14.5h335q14 0 22 9t8 22q0 11 -8.5 20.5t-21.5 9.5h-311q-12 0 -17 4.5t-5 19.5 v198h329z" />
<glyph unicode="&#xae38;" horiz-adv-x="850" d="M102 675q-15 0 -23.5 -9.5t-8.5 -21.5t8 -21t22 -9h266q-29 -87 -119 -171.5t-175 -126.5q-7 -4 -10 -15t2 -17q10 -15 31 -7q108 38 222 139t139 215q3 16 -8 30t-30 14h-316zM734 720q0 19 -11 32t-29 13h-93q-32 0 -32 -22q0 -17 39 -25q28 -5 40.5 -15.5t12.5 -38.5 v-385h18q55 0 55 93v348zM273 63q-26 0 -26 -20q0 -18 22 -24q20 -5 27 -13.5t7 -30.5v-67q0 -31 18 -51t50 -20h350q14 0 21.5 9t7.5 22q0 11 -8 20.5t-21 9.5h-319q-26 0 -26 26v80h304q37 0 37 47v134q0 40 -37 40h-378q-30 0 -30 -30q0 -11 8 -20.5t22 -9.5h341v-102 h-370z" />
<glyph unicode="&#xae3a;" horiz-adv-x="850" d="M102 675q-15 0 -23.5 -9.5t-8.5 -21.5t8 -21t22 -9h266q-29 -87 -119 -171.5t-175 -126.5q-7 -4 -10 -15t2 -17q10 -15 31 -7q108 38 222 139t139 215q3 16 -8 30t-30 14h-316zM734 720q0 19 -11 32t-29 13h-93q-32 0 -32 -22q0 -17 39 -25q28 -5 40.5 -15.5t12.5 -38.5 v-385h18q55 0 55 93v348zM128 61q-25 0 -25 -19q0 -16 20 -23q16 -6 20.5 -14.5t4.5 -30.5v-66q0 -31 18.5 -51t49.5 -20h203q13 0 20.5 9t7.5 22q0 11 -7.5 20.5t-20.5 9.5h-171q-27 0 -27 26v78h156q37 0 37 47v132q0 40 -36 40h-228q-28 0 -28 -30q0 -11 7.5 -21 t20.5 -10h192v-99h-214zM665 160v-246h-121q1 6 1 28v218h120zM735 -147q10 0 16 9.5t6 21.5q0 29 -22 29h-6q9 21 9 63v208q0 15 -8.5 26t-25.5 11h-243q-33 0 -33 -19q0 -16 20 -24q15 -7 19.5 -15t4.5 -33v-303h25q9 0 18 8t12 18h208z" />
<glyph unicode="&#xae40;" horiz-adv-x="850" d="M103 665q-15 0 -23.5 -9.5t-8.5 -21.5t8 -20.5t22 -8.5h266q-27 -90 -116.5 -173t-181.5 -130q-8 -4 -10 -15t3 -18q10 -14 34 -5q51 18 107 52.5t109 80t93 105t52 119.5q3 15 -8 29.5t-30 14.5h-316zM734 720q0 19 -11 32t-29 13h-93q-32 0 -32 -23q0 -17 39 -24 q28 -5 40.5 -15.5t12.5 -38.5v-427h18q55 0 55 93v390zM648 117v-212h-282q3 21 3 27v185h279zM717 -157q11 0 17.5 9.5t6.5 20.5t-6 20.5t-17 9.5h-6q9 23 9 71v166q0 38 -33 38h-420q-31 0 -31 -20q0 -19 26 -26q20 -5 26.5 -14.5t6.5 -35.5v-266h25q8 0 17.5 8.5 t13.5 18.5h365z" />
<glyph unicode="&#xae41;" horiz-adv-x="850" d="M102 675q-15 0 -23.5 -9.5t-8.5 -21.5t8 -21t22 -9h266q-29 -87 -119 -171.5t-175 -126.5q-7 -4 -10 -15t2 -17q10 -15 31 -7q108 38 222 139t139 215q3 16 -8 30t-30 14h-316zM734 720q0 19 -11 32t-29 13h-93q-32 0 -32 -22q0 -17 39 -25q28 -5 40.5 -15.5t12.5 -38.5 v-385h18q55 0 55 93v348zM369 18h279v-112h-279v112zM717 -155q12 0 18 9t6 20q0 31 -23 31h-6q9 22 9 66v216q0 42 -39 42h-68q-31 0 -31 -21q0 -17 31 -24q21 -5 27.5 -11.5t6.5 -29.5v-64h-279v79q0 41 -36 41h-70q-30 0 -30 -19q0 -20 26 -25q22 -5 29.5 -13.5 t7.5 -32.5v-290h18q30 0 40 26h363z" />
<glyph unicode="&#xae43;" horiz-adv-x="850" d="M103 665q-15 0 -23.5 -9.5t-8.5 -21.5t8 -20.5t22 -8.5h266q-27 -90 -116.5 -173t-181.5 -130q-8 -4 -10 -15t3 -18q10 -14 34 -5q51 18 107 52.5t109 80t93 105t52 119.5q3 15 -8 29.5t-30 14.5h-316zM734 720q0 19 -11 32t-29 13h-93q-32 0 -32 -23q0 -17 39 -24 q28 -6 40.5 -16.5t12.5 -37.5v-480h18q55 0 55 94v442zM510 71q25 42 31 79q9 63 -43 63h-77q-30 0 -30 -22q0 -16 26 -22q26 -4 32 -8.5t4 -15.5q-14 -68 -84.5 -148t-135.5 -122q-12 -8 -12 -19.5t10 -16t25 0.5q50 22 112.5 73t108.5 109l209 -167q19 -14 40 -7 q20 9 23 37q2 20 -22 38z" />
<glyph unicode="&#xae45;" horiz-adv-x="850" d="M103 665q-15 0 -23.5 -9.5t-8.5 -21.5t8 -20.5t22 -8.5h266q-27 -90 -116.5 -173t-181.5 -130q-8 -4 -10 -15t3 -18q10 -14 34 -5q51 18 107 52.5t109 80t93 105t52 119.5q3 15 -8 29.5t-30 14.5h-316zM734 720q0 19 -11 32t-29 13h-93q-32 0 -32 -23q0 -17 39 -24 q28 -5 40.5 -15.5t12.5 -38.5v-427h18q55 0 55 93v390zM304 32q0 -79 61.5 -137t147.5 -58q85 0 147 58.5t62 136.5q0 79 -62 137.5t-147 58.5q-87 0 -148 -58t-61 -138zM379 32q0 53 40.5 93.5t93.5 40.5t93.5 -40.5t40.5 -93.5t-40.5 -93t-93.5 -40t-93.5 40t-40.5 93z " />
<glyph unicode="&#xae46;" horiz-adv-x="850" d="M102 671q-15 0 -23.5 -9.5t-8.5 -21.5t8 -21t22 -9h266q-26 -90 -121.5 -179t-177.5 -125q-8 -4 -9.5 -15t3.5 -18q9 -12 35 -4q113 38 224.5 140t135.5 218q3 16 -8 30t-30 14h-316zM734 720q0 19 -11 32t-29 13h-93q-32 0 -32 -23q0 -17 39 -24q28 -5 40.5 -16 t12.5 -38v-407h18q55 0 55 94v369zM594 13q70 70 88 134q6 19 -3.5 36t-29.5 17h-330q-8 0 -16 -9t-8 -20q0 -13 7 -22.5t16 -9.5h270q-33 -72 -124 -146t-180 -113q-24 -11 -14 -34q8 -13 32 -7q118 31 240 128l189 -123q16 -12 39 -4q23 10 23 37t-24 40z" />
<glyph unicode="&#xae4a;" horiz-adv-x="850" d="M103 665q-15 0 -23.5 -9.5t-8.5 -21.5t8 -20.5t22 -8.5h266q-27 -90 -116.5 -173t-181.5 -130q-8 -4 -10 -15t3 -18q10 -14 34 -5q51 18 107 52.5t109 80t93 105t52 119.5q3 15 -8 29.5t-30 14.5h-316zM734 720q0 19 -11 32t-29 13h-93q-32 0 -32 -23q0 -17 39 -24 q28 -5 40.5 -15.5t12.5 -38.5v-427h18q55 0 55 93v390zM252 175q-12 0 -19.5 -10t-7.5 -21t7 -20.5t19 -9.5h79v-216h-80q-11 0 -18 -10t-7 -20q0 -12 6.5 -21.5t17.5 -9.5h469q13 0 20 9.5t7 21.5q0 9 -7.5 19.5t-20.5 10.5h-77v216h80q12 0 18.5 10t6.5 21t-7.5 20.5 t-18.5 9.5h-467zM567 114v-216h-165v216h165z" />
<glyph unicode="&#xae4c;" horiz-adv-x="920" d="M481 621h-412q-13 0 -22 -10t-9 -21q0 -12 8.5 -21.5t21.5 -9.5h155q-19 -81 -66 -168.5t-105 -144.5q-20 -22 -9 -37q5 -7 15.5 -7.5t18.5 5.5q73 50 140.5 155.5t85.5 196.5h129q-11 -83 -62 -186t-125 -192q-12 -17 -4 -29q6 -8 17 -8.5t19 6.5q90 78 157.5 196.5 t85.5 231.5q3 16 -7.5 29.5t-31.5 13.5zM728 719q0 19 -11.5 32t-29.5 13h-92q-33 0 -33 -23q0 -17 39 -24q28 -5 41 -16t13 -38v-762h18q55 0 55 94v386h152q11 0 18.5 8t7.5 21q0 31 -27 31h-151v278z" />
<glyph unicode="&#xae4d;" horiz-adv-x="920" d="M482 666h-413q-13 0 -22 -10t-9 -21q0 -12 8.5 -21t21.5 -9h151q-16 -68 -63 -142.5t-105 -119.5q-10 -8 -13.5 -19t1.5 -17q5 -7 15.5 -7t18.5 5q74 44 141.5 129.5t87.5 170.5h131q-15 -80 -72 -174t-122 -152q-6 -6 -7.5 -15t2.5 -14q13 -18 36 -3q88 61 160.5 165.5 t89.5 210.5q2 16 -8 29.5t-30 13.5zM728 720q0 19 -11.5 32t-29.5 13h-92q-33 0 -33 -23q0 -17 39 -24q28 -5 41 -15.5t13 -38.5v-427h18q55 0 55 93v133h152q11 0 18.5 8.5t7.5 21.5t-7.5 21.5t-19.5 8.5h-151v197zM711 140q0 41 -40 41h-411q-9 0 -16 -9.5t-7 -21.5 q0 -11 7 -20.5t16 -9.5h378v-271h20q22 0 37.5 24.5t15.5 68.5v198z" />
<glyph unicode="&#xae4e;" horiz-adv-x="920" d="M482 671h-414q-13 0 -22 -10t-9 -21q0 -12 8.5 -20.5t21.5 -8.5h154q-16 -66 -65.5 -139.5t-103.5 -114.5q-23 -20 -11 -36q5 -7 15.5 -7t18.5 5q74 45 139.5 126.5t87.5 165.5h130q-11 -72 -71 -169.5t-122 -147.5q-16 -13 -5 -31q6 -7 17.5 -8t18.5 5q89 60 161.5 162 t88.5 206q3 16 -7.5 29.5t-30.5 13.5zM728 720q0 19 -11.5 32t-29.5 13h-92q-33 0 -33 -23q0 -17 39 -24q28 -5 41 -16t13 -38v-407h18q55 0 55 94v121h152q11 0 18.5 8.5t7.5 21.5q0 30 -27 30h-151v188zM722 149q0 41 -40 41h-202q-9 0 -16 -9t-7 -20q0 -12 7 -21.5 t16 -9.5h169v-293h21q22 0 37 24.5t15 68.5v219zM430 149q0 41 -39 41h-224q-10 0 -17 -9t-7 -20q0 -12 7 -21.5t17 -9.5h190v-293h20q22 0 37.5 24.5t15.5 68.5v219z" />
<glyph unicode="&#xae50;" horiz-adv-x="920" d="M482 666h-415q-13 0 -22 -10t-9 -21q0 -12 8.5 -21t21.5 -9h154q-17 -77 -65.5 -153.5t-105.5 -128.5q-9 -8 -11.5 -19t2.5 -17q5 -7 16 -7.5t18 5.5q77 55 141.5 143.5t86.5 176.5h130q-13 -81 -69 -179t-124 -161q-6 -6 -7.5 -15.5t2.5 -14.5q6 -7 17.5 -8t18.5 5 q88 66 159 172.5t91 218.5q3 16 -7.5 29.5t-30.5 13.5zM728 720q0 19 -11.5 32t-29.5 13h-92q-33 0 -33 -22q0 -18 39 -25q28 -5 41 -15.5t13 -38.5v-561h18q55 0 55 94v234h152q11 0 18.5 8.5t7.5 21.5q0 31 -27 31h-151v228zM278 -72q-1 -49 23 -67.5t78 -18.5h332 q15 0 23.5 10t8.5 22q0 11 -9.5 20.5t-23.5 9.5h-338q-21 0 -21 22v179q0 19 -11.5 32t-28.5 13h-83q-13 0 -22.5 -6t-9.5 -16q0 -12 7 -17.5t28 -9.5q27 -7 37 -16.5t10 -35.5v-121z" />
<glyph unicode="&#xae54;" horiz-adv-x="920" d="M482 676h-414q-13 0 -22 -10t-9 -21q0 -12 8.5 -21t21.5 -9h153q-16 -65 -64.5 -137.5t-103.5 -113.5q-10 -8 -13 -18.5t2 -16.5q5 -7 15.5 -7t18.5 5q72 41 136 122t90 166h131q-13 -73 -71 -163.5t-122 -143.5q-7 -6 -8.5 -15t2.5 -15q6 -8 17.5 -9t18.5 5 q85 58 159 156.5t92 202.5q3 16 -7.5 29.5t-30.5 13.5zM728 719q0 19 -11.5 32t-29.5 13h-92q-33 0 -33 -22q0 -17 39 -25q28 -5 41 -15.5t13 -38.5v-384h18q55 0 55 93v111h152q11 0 18.5 8.5t7.5 21.5t-7.5 21.5t-19.5 8.5h-151v176zM267 61q-26 0 -26 -20q0 -18 21 -24 q21 -5 27.5 -13.5t6.5 -30.5v-65q0 -31 18.5 -51t49.5 -20h351q14 0 21.5 9t7.5 22q0 12 -8 21t-21 9h-319q-27 0 -27 26v78h305q37 0 37 47v134q0 40 -37 40h-379q-29 0 -29 -30q0 -12 8 -21.5t21 -9.5h342v-101h-370z" />
<glyph unicode="&#xae56;" horiz-adv-x="920" d="M482 676h-414q-13 0 -22 -10t-9 -21q0 -12 8.5 -21t21.5 -9h153q-16 -65 -64.5 -137.5t-103.5 -113.5q-10 -8 -13 -18.5t2 -16.5q5 -7 15.5 -7t18.5 5q72 41 136 122t90 166h131q-13 -73 -71 -163.5t-122 -143.5q-7 -6 -8.5 -15t2.5 -15q6 -8 17.5 -9t18.5 5 q85 58 159 156.5t92 202.5q3 16 -7.5 29.5t-30.5 13.5zM728 719q0 19 -11.5 32t-29.5 13h-92q-33 0 -33 -22q0 -17 39 -25q28 -5 41 -15.5t13 -38.5v-384h18q55 0 55 93v111h152q11 0 18.5 8.5t7.5 21.5t-7.5 21.5t-19.5 8.5h-151v176zM117 61q-24 0 -24 -19q0 -16 19 -23 q16 -6 21 -14.5t5 -30.5v-66q0 -31 18.5 -51t49.5 -20h202q14 0 21.5 9t7.5 22q0 12 -8 21t-21 9h-170q-27 0 -27 26v78h156q37 0 37 47v132q0 40 -37 40h-227q-29 0 -29 -30q0 -11 8 -21t21 -10h191v-99h-214zM655 160v-246h-121q1 6 1 28v218h120zM724 -147q11 0 17 9.5 t6 21.5q0 29 -23 29h-6q10 23 10 63v208q0 15 -9 26t-25 11h-243q-33 0 -33 -19q0 -16 19 -24q16 -7 20.5 -15t4.5 -33v-303h25q9 0 18 8t12 18h207z" />
<glyph unicode="&#xae5c;" horiz-adv-x="920" d="M482 666h-413q-13 0 -22 -10t-9 -21q0 -12 8.5 -21t21.5 -9h151q-16 -68 -63 -142.5t-105 -119.5q-10 -8 -13.5 -19t1.5 -17q5 -7 15.5 -7t18.5 5q74 44 141.5 129.5t87.5 170.5h131q-15 -80 -72 -174t-122 -152q-6 -6 -7.5 -15t2.5 -14q13 -18 36 -3q88 61 160.5 165.5 t89.5 210.5q2 16 -8 29.5t-30 13.5zM728 720q0 19 -11.5 32t-29.5 13h-92q-33 0 -33 -23q0 -17 39 -24q28 -5 41 -15.5t13 -38.5v-427h18q55 0 55 93v133h152q11 0 18.5 8.5t7.5 21.5t-7.5 21.5t-19.5 8.5h-151v197zM638 121v-216h-282q3 24 3 28v188h279zM707 -156 q10 0 16.5 9.5t6.5 20.5t-6 20.5t-16 9.5h-6q9 23 9 71v169q0 37 -33 37h-421q-31 0 -31 -20q0 -19 27 -26q20 -5 26.5 -14t6.5 -35v-269h25q17 0 31 27h365z" />
<glyph unicode="&#xae5d;" horiz-adv-x="920" d="M482 676h-414q-13 0 -22 -10t-9 -21q0 -12 8.5 -21t21.5 -9h153q-16 -65 -64.5 -137.5t-103.5 -113.5q-10 -8 -13 -18.5t2 -16.5q5 -7 15.5 -7t18.5 5q72 41 136 122t90 166h131q-13 -73 -71 -163.5t-122 -143.5q-7 -6 -8.5 -15t2.5 -15q6 -8 17.5 -9t18.5 5 q85 58 159 156.5t92 202.5q3 16 -7.5 29.5t-30.5 13.5zM728 719q0 19 -11.5 32t-29.5 13h-92q-33 0 -33 -22q0 -17 39 -25q28 -5 41 -15.5t13 -38.5v-384h18q55 0 55 93v111h152q11 0 18.5 8.5t7.5 21.5t-7.5 21.5t-19.5 8.5h-151v176zM359 17h279v-111h-279v111zM707 -155 q11 0 17 9t6 20q0 31 -23 31h-5q9 22 9 66v213q0 42 -39 42h-68q-31 0 -31 -21q0 -18 31 -24q21 -5 27.5 -11.5t6.5 -29.5v-62h-279v77q0 41 -36 41h-70q-31 0 -31 -19q0 -11 5.5 -16.5t21.5 -8.5q22 -5 29.5 -13.5t7.5 -32.5v-287h18q28 0 40 26h363z" />
<glyph unicode="&#xae5f;" horiz-adv-x="920" d="M482 666h-413q-13 0 -22 -10t-9 -21q0 -12 8.5 -21t21.5 -9h151q-16 -68 -63 -142.5t-105 -119.5q-10 -8 -13.5 -19t1.5 -17q5 -7 15.5 -7t18.5 5q74 44 141.5 129.5t87.5 170.5h131q-15 -80 -72 -174t-122 -152q-6 -6 -7.5 -15t2.5 -14q13 -18 36 -3q88 61 160.5 165.5 t89.5 210.5q2 16 -8 29.5t-30 13.5zM728 720q0 19 -11.5 32t-29.5 13h-92q-33 0 -33 -23q0 -17 39 -24q29 -6 41.5 -16.5t12.5 -37.5v-480h18q55 0 55 94v174h152q11 0 18.5 8.5t7.5 21.5t-7.5 21.5t-19.5 8.5h-151v208zM518 70q25 42 31 79q9 63 -43 63h-77q-30 0 -30 -22 q0 -16 26 -22q26 -4 32 -8.5t4 -15.5q-14 -68 -83.5 -147t-135.5 -122q-12 -8 -12 -19.5t10 -16t25 0.5q51 23 113 73.5t107 108.5l207 -167q20 -14 39 -7q21 10 24 37q2 20 -23 38z" />
<glyph unicode="&#xae60;" horiz-adv-x="920" d="M482 671h-414q-13 0 -22 -10t-9 -21q0 -12 8.5 -20.5t21.5 -8.5h154q-16 -66 -65.5 -139.5t-103.5 -114.5q-23 -20 -11 -36q5 -7 15.5 -7t18.5 5q74 45 139.5 126.5t87.5 165.5h130q-11 -72 -71 -169.5t-122 -147.5q-16 -13 -5 -31q6 -7 17.5 -8t18.5 5q89 60 161.5 162 t88.5 206q3 16 -7.5 29.5t-30.5 13.5zM728 720q0 19 -11.5 32t-29.5 13h-92q-33 0 -33 -23q0 -17 39 -24q28 -5 41 -16t13 -38v-407h18q55 0 55 94v121h152q11 0 18.5 8.5t7.5 21.5q0 30 -27 30h-151v188zM428 -98q-24 -29 -44 -45q-12 -10 -10 -21t13.5 -14t26.5 5 q43 27 87.5 74t78.5 101l159 -145q16 -15 37 -9q27 9 27 37q0 22 -23 39l-171 129q28 59 32 100q3 27 -5.5 42t-38.5 15h-77q-30 0 -30 -23q0 -5 1.5 -8t4.5 -5t5.5 -3t7.5 -2t7 -2q27 -8 33 -12t5 -13q-9 -75 -83 -185l-108 87q27 51 31 88q6 56 -45 56h-78q-30 0 -30 -20 q0 -3 0.5 -5.5t1.5 -4.5t2 -3t3 -2.5t3.5 -2t4 -1.5t4 -1t5 -1t4.5 -1q20 -4 29 -11.5t7 -16.5q-7 -51 -57 -128.5t-101 -114.5q-20 -15 -10 -30.5t32 -4.5q36 18 82.5 61.5t82.5 94.5z" />
<glyph unicode="&#xae61;" horiz-adv-x="920" d="M482 666h-413q-13 0 -22 -10t-9 -21q0 -12 8.5 -21t21.5 -9h151q-16 -68 -63 -142.5t-105 -119.5q-10 -8 -13.5 -19t1.5 -17q5 -7 15.5 -7t18.5 5q74 44 141.5 129.5t87.5 170.5h131q-15 -80 -72 -174t-122 -152q-6 -6 -7.5 -15t2.5 -14q13 -18 36 -3q88 61 160.5 165.5 t89.5 210.5q2 16 -8 29.5t-30 13.5zM728 720q0 19 -11.5 32t-29.5 13h-92q-33 0 -33 -23q0 -17 39 -24q28 -5 41 -15.5t13 -38.5v-427h18q55 0 55 93v133h152q11 0 18.5 8.5t7.5 21.5t-7.5 21.5t-19.5 8.5h-151v197zM294 32q0 -79 61 -137t148 -58q85 0 146 58t61 137 q0 80 -60 138t-147 58q-85 0 -147 -58.5t-62 -137.5zM369 32q0 53 40.5 93.5t93.5 40.5t93 -40.5t40 -93.5t-40 -93t-93 -40t-93.5 40t-40.5 93z" />
<glyph unicode="&#xae65;" horiz-adv-x="920" d="M482 676h-414q-13 0 -22 -10t-9 -21q0 -12 8.5 -21t21.5 -9h153q-16 -65 -64.5 -137.5t-103.5 -113.5q-10 -8 -13 -18.5t2 -16.5q5 -7 15.5 -7t18.5 5q72 41 136 122t90 166h131q-13 -73 -71 -163.5t-122 -143.5q-7 -6 -8.5 -15t2.5 -15q6 -8 17.5 -9t18.5 5 q85 58 159 156.5t92 202.5q3 16 -7.5 29.5t-30.5 13.5zM728 719q0 19 -11.5 32t-29.5 13h-92q-33 0 -33 -22q0 -17 39 -25q28 -5 41 -15.5t13 -38.5v-384h18q55 0 55 93v111h152q11 0 18.5 8.5t7.5 21.5t-7.5 21.5t-19.5 8.5h-151v176zM697 162q10 0 17 9.5t7 21.5t-7.5 21 t-17.5 9h-416q-29 0 -29 -21q0 -20 27 -25q22 -4 27.5 -16.5t5.5 -48.5v-199q0 -37 21.5 -51.5t49.5 -14.5h321q13 0 21 9t8 21t-8 21.5t-22 9.5h-297q-11 0 -16 4.5t-5 19.5v76h298q15 0 22 9t7 21q0 11 -7.5 20.5t-21.5 9.5h-298v94h313z" />
<glyph unicode="&#xae68;" d="M410 620h-353q-13 0 -22 -9.5t-9 -20.5q0 -13 8.5 -22t21.5 -9h124q-10 -73 -50.5 -165.5t-91.5 -150.5q-19 -22 -9 -37q6 -7 17 -7t18 7q67 61 121.5 160t73.5 193h105q-10 -90 -58.5 -200t-104.5 -176q-12 -15 -4 -28q6 -8 17 -8t19 8q82 79 141 194t75 228 q2 16 -8.5 29.5t-30.5 13.5zM803 720q0 19 -11 32t-29 13h-94q-32 0 -32 -23q0 -17 39 -24q28 -5 41 -16t13 -38v-223h-121v236q0 19 -11 32.5t-29 13.5h-93q-14 0 -23 -6.5t-9 -16.5q0 -18 39 -25q28 -5 40.5 -15.5t12.5 -37.5v-672h18q55 0 55 94v337h121v-481h18 q55 0 55 94v726z" />
<glyph unicode="&#xae69;" d="M411 655h-354q-14 0 -22.5 -9.5t-8.5 -20.5q0 -12 8.5 -21t21.5 -9h125q-11 -63 -54 -148t-88 -128q-21 -20 -10 -38q6 -7 17 -7t18 5q63 46 120 137.5t76 178.5h104q-10 -83 -59 -179.5t-104 -155.5q-13 -17 -4 -30q6 -7 17.5 -8t18.5 5q76 64 138.5 169t78.5 216 q2 16 -8.5 29.5t-30.5 13.5zM803 720q0 19 -11 32t-29 13h-94q-32 0 -32 -23q0 -17 39 -24q28 -5 41 -15.5t13 -38.5v-149h-121v162q0 19 -11 32.5t-29 13.5h-93q-32 0 -32 -23q0 -18 39 -25q28 -5 40.5 -15t12.5 -38v-375h18q55 0 55 94v114h121v-218h18q55 0 55 93v390z M785 136q0 41 -40 41h-411q-9 0 -16 -9.5t-7 -21.5q0 -11 7 -20.5t16 -9.5h378v-279h21q22 0 37 24.5t15 68.5v206z" />
<glyph unicode="&#xae6c;" d="M412 647h-354q-14 0 -22.5 -9.5t-8.5 -21.5t8.5 -20.5t21.5 -8.5h125q-11 -67 -54 -149t-90 -127q-10 -9 -12.5 -19.5t2.5 -16.5q6 -7 17 -7t18 5q61 45 121.5 136t76.5 178h104q-10 -83 -58.5 -178.5t-105.5 -155.5q-14 -14 -5 -30q6 -7 17.5 -8t18.5 5q77 65 140 169.5 t79 214.5q2 17 -8.5 30t-30.5 13zM803 719q0 19 -11 32t-29 13h-94q-32 0 -32 -22q0 -18 39 -25q28 -5 41 -15.5t13 -38.5v-193h-124v208q0 20 -11 33t-29 13h-93q-32 0 -32 -22q0 -19 39 -26q28 -5 40.5 -15t12.5 -38v-511h18q55 0 55 95v204h124v-320h18q55 0 55 95v533z M329 -72q-1 -49 23 -67.5t78 -18.5h332q15 0 23.5 10t8.5 22q0 11 -9 20.5t-24 9.5h-337q-22 0 -22 22v179q0 19 -11 32t-29 13h-82q-33 0 -33 -22q0 -12 7 -17.5t29 -9.5q27 -7 36.5 -16.5t9.5 -35.5v-121z" />
<glyph unicode="&#xae70;" d="M411 659h-353q-13 0 -22 -9.5t-9 -20.5q0 -12 8.5 -21t21.5 -9h124q-13 -65 -56 -141t-87 -115q-22 -20 -10 -36q6 -8 16.5 -8.5t18.5 6.5q64 45 120.5 127.5t76.5 166.5h104q-10 -79 -59.5 -170t-103.5 -145q-16 -13 -5 -28q6 -9 17.5 -10t18.5 6q75 60 139.5 159 t78.5 205q2 16 -8.5 29.5t-30.5 13.5zM803 719q0 19 -11 32t-29 13h-94q-32 0 -32 -22q0 -17 39 -25q28 -5 41 -15.5t13 -38.5v-131h-122v144q0 20 -11 33t-29 13h-93q-32 0 -32 -22q0 -18 39 -26q28 -5 40.5 -15t12.5 -38v-342h18q55 0 55 93v101h122v-194h18q55 0 55 93 v347zM329 62q-26 0 -26 -20q0 -18 22 -24q20 -5 27 -13.5t7 -30.5v-66q0 -31 18 -51t49 -20h351q14 0 21.5 9t7.5 22q0 12 -8 21t-21 9h-319q-27 0 -27 26v79h305q37 0 37 47v133q0 40 -37 40h-379q-29 0 -29 -30q0 -12 8 -21.5t21 -9.5h342v-100h-370z" />
<glyph unicode="&#xae78;" d="M411 655h-354q-14 0 -22.5 -9.5t-8.5 -20.5q0 -12 8.5 -21t21.5 -9h125q-11 -63 -54 -148t-88 -128q-21 -20 -10 -38q6 -7 17 -7t18 5q63 46 120 137.5t76 178.5h104q-10 -83 -59 -179.5t-104 -155.5q-13 -17 -4 -30q6 -7 17.5 -8t18.5 5q76 64 138.5 169t78.5 216 q2 16 -8.5 29.5t-30.5 13.5zM803 720q0 19 -11 32t-29 13h-94q-32 0 -32 -23q0 -17 39 -24q28 -5 41 -15.5t13 -38.5v-149h-121v162q0 19 -11 32.5t-29 13.5h-93q-32 0 -32 -23q0 -18 39 -25q28 -5 40.5 -15t12.5 -38v-375h18q55 0 55 94v114h121v-218h18q55 0 55 93v390z M700 120v-215h-282q3 21 3 27v188h279zM769 -157q11 0 17.5 9.5t6.5 20.5t-6.5 21t-16.5 10h-6q9 22 9 70v169q0 38 -33 38h-421q-31 0 -31 -20q0 -19 27 -26q20 -5 26.5 -14.5t6.5 -35.5v-269h25q8 0 17.5 8.5t13.5 18.5h365z" />
<glyph unicode="&#xae79;" d="M411 659h-353q-13 0 -22 -9.5t-9 -20.5q0 -12 8.5 -21t21.5 -9h124q-13 -65 -56 -141t-87 -115q-22 -20 -10 -36q6 -8 16.5 -8.5t18.5 6.5q64 45 120.5 127.5t76.5 166.5h104q-10 -79 -59.5 -170t-103.5 -145q-16 -13 -5 -28q6 -9 17.5 -10t18.5 6q75 60 139.5 159 t78.5 205q2 16 -8.5 29.5t-30.5 13.5zM803 719q0 19 -11 32t-29 13h-94q-32 0 -32 -22q0 -17 39 -25q28 -5 41 -15.5t13 -38.5v-131h-122v144q0 20 -11 33t-29 13h-93q-32 0 -32 -22q0 -18 39 -26q28 -5 40.5 -15t12.5 -38v-342h18q55 0 55 93v101h122v-194h18q55 0 55 93 v347zM431 17h279v-111h-279v111zM779 -155q11 0 17.5 9t6.5 20q0 12 -6.5 21.5t-17.5 9.5h-5q9 22 9 66v213q0 42 -39 42h-68q-31 0 -31 -21q0 -18 31 -24q21 -5 27.5 -11.5t6.5 -29.5v-62h-279v77q0 41 -36 41h-70q-31 0 -31 -19q0 -11 5.5 -16.5t21.5 -8.5 q22 -5 29.5 -13.5t7.5 -32.5v-287h18q30 0 40 26h363z" />
<glyph unicode="&#xae7b;" d="M411 655h-354q-14 0 -22.5 -9.5t-8.5 -20.5q0 -12 8.5 -21t21.5 -9h125q-11 -63 -54 -148t-88 -128q-21 -20 -10 -38q6 -7 17 -7t18 5q63 46 120 137.5t76 178.5h104q-10 -83 -59 -179.5t-104 -155.5q-13 -17 -4 -30q6 -7 17.5 -8t18.5 5q76 64 138.5 169t78.5 216 q2 16 -8.5 29.5t-30.5 13.5zM803 721q0 18 -11 31t-29 13h-94q-32 0 -32 -22q0 -17 39 -25q28 -5 41 -15.5t13 -38.5v-152h-120v165q0 20 -11 33t-29 13h-93q-32 0 -32 -22q0 -18 39 -26q28 -5 40.5 -15t12.5 -38v-374h18q55 0 55 94v110h120v-267h18q55 0 55 94v442z M560 70q24 40 30 79q9 63 -44 63h-76q-30 0 -30 -22q0 -16 26 -22q26 -4 32 -8.5t4 -15.5q-14 -68 -84 -146.5t-136 -121.5q-12 -8 -12.5 -19.5t10 -16t25.5 0.5q51 23 113.5 73t108.5 107l206 -166q19 -14 39 -6q21 9 24 37q2 20 -23 38z" />
<glyph unicode="&#xae7c;" d="M412 659h-354q-13 0 -22.5 -10t-9.5 -21q0 -12 9 -21t22 -9h125q-11 -65 -53 -136t-91 -119q-22 -21 -11 -37q13 -15 35 0q64 44 123 126.5t76 165.5h104q-10 -80 -59.5 -168t-105.5 -147q-14 -14 -5 -29q6 -8 17.5 -9t18.5 5q75 59 139 157.5t81 207.5q2 16 -8.5 30 t-30.5 14zM803 720q0 19 -11 32t-29 13h-94q-32 0 -32 -23q0 -17 39 -24q28 -5 41 -16t13 -38v-142h-121v155q0 19 -11 32.5t-29 13.5h-93q-14 0 -23 -6.5t-9 -16.5q0 -18 39 -25q28 -5 40.5 -15.5t12.5 -37.5v-353h18q55 0 55 92v101h121v-205h18q55 0 55 94v369zM500 -100 q-21 -25 -43 -43q-12 -10 -10 -21t13.5 -14t26.5 5q90 56 164 174l157 -144q16 -15 37 -9q27 9 27 37q0 22 -23 39l-169 129q27 55 31 99q3 27 -5.5 42t-38.5 15h-77q-30 0 -30 -23q0 -5 1.5 -8t4.5 -5t5.5 -3t7.5 -2t7 -2q27 -8 33 -12t5 -13q-10 -79 -82 -185l-108 87 q26 48 30 88q6 56 -45 56h-78q-30 0 -30 -20q0 -3 0.5 -5.5t1.5 -4.5t2 -3t3 -2.5t3.5 -2t4 -1.5t4 -1t5 -1t4.5 -1q20 -4 29 -11.5t7 -16.5q-7 -51 -55.5 -128t-99.5 -114q-20 -15 -10 -30.5t32 -4.5q36 17 81.5 60t81.5 95z" />
<glyph unicode="&#xae7d;" d="M411 655h-354q-14 0 -22.5 -9.5t-8.5 -20.5q0 -12 8.5 -21t21.5 -9h125q-11 -63 -54 -148t-88 -128q-21 -20 -10 -38q6 -7 17 -7t18 5q63 46 120 137.5t76 178.5h104q-10 -83 -59 -179.5t-104 -155.5q-13 -17 -4 -30q6 -7 17.5 -8t18.5 5q76 64 138.5 169t78.5 216 q2 16 -8.5 29.5t-30.5 13.5zM803 720q0 19 -11 32t-29 13h-94q-32 0 -32 -23q0 -17 39 -24q28 -5 41 -15.5t13 -38.5v-149h-121v162q0 19 -11 32.5t-29 13.5h-93q-32 0 -32 -23q0 -18 39 -25q28 -5 40.5 -15t12.5 -38v-375h18q55 0 55 94v114h121v-218h18q55 0 55 93v390z M364 32q0 -79 61.5 -137t147.5 -58q85 0 147 58.5t62 136.5q0 79 -62 137.5t-147 58.5q-87 0 -148 -58t-61 -138zM439 32q0 53 40.5 93.5t93.5 40.5t93.5 -40.5t40.5 -93.5t-40.5 -93t-93.5 -40t-93.5 40t-40.5 93z" />
<glyph unicode="&#xae84;" horiz-adv-x="920" d="M481 621h-412q-13 0 -22 -10t-9 -21q0 -12 8.5 -21.5t21.5 -9.5h155q-19 -81 -66 -168.5t-105 -144.5q-20 -22 -9 -37q5 -7 15.5 -7.5t18.5 5.5q73 50 140.5 155.5t85.5 196.5h129q-11 -83 -62 -186t-125 -192q-12 -17 -4 -29q6 -8 17 -8.5t19 6.5q90 78 157.5 196.5 t85.5 231.5q3 16 -7.5 29.5t-31.5 13.5zM728 720q0 19 -11 32t-29 13h-93q-33 0 -33 -23q0 -17 39 -24q28 -5 41 -16t13 -38v-764h18q55 0 55 94v228h152q11 0 18.5 8.5t7.5 21.5q0 15 -7.5 23t-19.5 8h-151v190h152q11 0 18.5 8t7.5 21q0 15 -7.5 23t-19.5 8h-151v187z" />
<glyph unicode="&#xae85;" horiz-adv-x="920" d="M482 666h-413q-13 0 -22 -10t-9 -21q0 -12 8.5 -21t21.5 -9h151q-16 -68 -63 -142.5t-105 -119.5q-10 -8 -13.5 -19t1.5 -17q5 -7 15.5 -7t18.5 5q74 44 141.5 129.5t87.5 170.5h131q-15 -80 -72 -174t-122 -152q-6 -6 -7.5 -15t2.5 -14q13 -18 36 -3q88 61 160.5 165.5 t89.5 210.5q2 16 -8 29.5t-30 13.5zM880 553q11 0 18.5 8.5t7.5 21.5t-8 22t-19 9h-151v106q0 19 -11 32t-29 13h-93q-33 0 -33 -23q0 -17 39 -24q29 -5 41.5 -15.5t12.5 -38.5v-427h18q55 0 55 93v35h152q11 0 18.5 8t7.5 21q0 15 -7.5 23t-19.5 8h-151v128h152zM711 140 q0 41 -40 41h-411q-9 0 -16 -9.5t-7 -21.5q0 -11 7 -20.5t16 -9.5h378v-271h20q22 0 37.5 24.5t15.5 68.5v198z" />
<glyph unicode="&#xae8c;" horiz-adv-x="920" d="M482 676h-414q-13 0 -22 -10t-9 -21q0 -12 8.5 -21t21.5 -9h153q-16 -65 -64.5 -137.5t-103.5 -113.5q-10 -8 -13 -18.5t2 -16.5q5 -7 15.5 -7t18.5 5q72 41 136 122t90 166h131q-13 -73 -71 -163.5t-122 -143.5q-7 -6 -8.5 -15t2.5 -15q6 -8 17.5 -9t18.5 5 q85 58 159 156.5t92 202.5q3 16 -7.5 29.5t-30.5 13.5zM880 562q11 0 18.5 9t7.5 22q0 14 -7.5 22.5t-19.5 8.5h-151v96q0 19 -11 32t-29 13h-93q-33 0 -33 -22q0 -17 39 -25q29 -5 41.5 -15.5t12.5 -38.5v-385h18q55 0 55 93v13h152q11 0 18.5 8.5t7.5 21.5q0 14 -7.5 22.5 t-19.5 8.5h-151v116h152zM267 61q-26 0 -26 -20q0 -18 21 -24q21 -5 27.5 -13.5t6.5 -30.5v-65q0 -31 18.5 -51t49.5 -20h351q14 0 21.5 9t7.5 22q0 12 -8 21t-21 9h-319q-27 0 -27 26v78h305q37 0 37 47v134q0 40 -37 40h-379q-29 0 -29 -30q0 -12 8 -21.5t21 -9.5h342 v-101h-370z" />
<glyph unicode="&#xaebc;" horiz-adv-x="860" d="M481 621h-412q-13 0 -22 -10t-9 -21q0 -12 8.5 -21.5t21.5 -9.5h155q-19 -81 -66 -168.5t-105 -144.5q-20 -22 -9 -37q5 -7 15.5 -7.5t18.5 5.5q73 50 140.5 155.5t85.5 196.5h129q-11 -83 -62 -186t-125 -192q-12 -17 -4 -29q6 -8 17 -8.5t19 6.5q115 100 189 257 q5 -22 22 -22h186v-485h19q54 0 54 94v726q0 19 -10.5 32t-27.5 13h-95q-32 0 -32 -23q0 -17 39 -24q28 -5 40.5 -16t12.5 -38v-218h-185q-5 0 -7 -1q28 69 38 133q3 16 -7.5 29.5t-31.5 13.5z" />
<glyph unicode="&#xaebd;" horiz-adv-x="860" d="M482 666h-413q-13 0 -22 -10t-9 -21q0 -12 8.5 -21t21.5 -9h151q-16 -68 -63 -142.5t-105 -119.5q-10 -8 -13.5 -19t1.5 -17q5 -7 15.5 -7t18.5 5q74 44 141.5 129.5t87.5 170.5h131q-15 -80 -72 -174t-122 -152q-6 -6 -7.5 -15t2.5 -14q13 -18 36 -3q59 41 113.5 104.5 t91.5 136.5q5 -21 23 -21h176v-230h19q55 0 55 93v390q0 18 -11 31.5t-28 13.5h-95q-32 0 -32 -23q0 -17 39 -24q29 -5 41 -15.5t12 -38.5v-137h-175q-5 0 -7 -1q21 51 28 97q2 16 -8 29.5t-30 13.5zM732 141q0 41 -41 41h-410q-9 0 -16.5 -9.5t-7.5 -21.5q0 -11 7.5 -20.5 t16.5 -9.5h378v-284h20q22 0 37.5 24.5t15.5 68.5v211z" />
<glyph unicode="&#xaebe;" horiz-adv-x="860" d="M482 671h-414q-13 0 -22 -10t-9 -21q0 -12 8.5 -20.5t21.5 -8.5h154q-16 -66 -65.5 -139.5t-103.5 -114.5q-23 -20 -11 -36q5 -7 15.5 -7t18.5 5q74 45 139.5 126.5t87.5 165.5h130q-11 -72 -71 -169.5t-122 -147.5q-16 -13 -5 -31q6 -7 17.5 -8t18.5 5q89 60 161.5 162 t88.5 206q3 16 -7.5 29.5t-30.5 13.5zM513 472h161v-215h19q55 0 55 94v369q0 18 -11 31.5t-28 13.5h-95q-32 0 -32 -23q0 -17 39 -24q28 -5 40.5 -16t12.5 -38v-132h-160q-10 0 -18 -8t-8 -22q0 -12 8 -21t17 -9zM743 150q0 41 -40 41h-202q-9 0 -16.5 -9t-7.5 -20 q0 -12 7.5 -21.5t17.5 -9.5h168v-294h20q22 0 37.5 24.5t15.5 68.5v220zM450 150q0 41 -39 41h-224q-9 0 -16 -9t-7 -20q0 -12 7 -21.5t16 -9.5h190v-294h21q22 0 37 24.5t15 68.5v220z" />
<glyph unicode="&#xaec0;" horiz-adv-x="860" d="M482 666h-415q-13 0 -22 -10t-9 -21q0 -12 8.5 -21t21.5 -9h154q-17 -77 -65.5 -153.5t-105.5 -128.5q-9 -8 -11.5 -19t2.5 -17q5 -7 16 -7.5t18 5.5q77 55 141.5 143.5t86.5 176.5h130q-13 -81 -69 -179t-124 -161q-6 -6 -7.5 -15.5t2.5 -14.5q6 -7 17.5 -8t18.5 5 q88 66 159 172.5t91 218.5q3 16 -7.5 29.5t-30.5 13.5zM518 443h156v-350h19q55 0 55 94v534q0 19 -11 32t-28 13h-95q-32 0 -32 -22q0 -18 39 -25q29 -5 41 -15.5t12 -38.5v-161h-155q-10 0 -18 -8.5t-8 -22.5q0 -12 8 -21t17 -9zM298 -72q-1 -49 23 -67.5t78 -18.5h333 q14 0 22.5 10t8.5 22q0 11 -9 20.5t-23 9.5h-338q-22 0 -22 22v180q0 19 -11 32t-29 13h-82q-13 0 -23 -6t-10 -16q0 -12 7 -17.5t29 -9.5q27 -7 36.5 -16.5t9.5 -35.5v-122z" />
<glyph unicode="&#xaec4;" horiz-adv-x="860" d="M482 676h-414q-13 0 -22 -10t-9 -21q0 -12 8.5 -21t21.5 -9h153q-16 -65 -64.5 -137.5t-103.5 -113.5q-10 -8 -13 -18.5t2 -16.5q5 -7 15.5 -7t18.5 5q72 41 136 122t90 166h131q-13 -73 -71 -163.5t-122 -143.5q-7 -6 -8.5 -15t2.5 -15q6 -8 17.5 -9t18.5 5 q85 58 159 156.5t92 202.5q3 16 -7.5 29.5t-30.5 13.5zM518 471h156v-192h19q55 0 55 93v348q0 19 -11 32t-28 13h-95q-32 0 -32 -22q0 -17 39 -25q29 -5 41 -15.5t12 -38.5v-132h-155q-10 0 -18 -8t-8 -22q0 -12 8 -21.5t17 -9.5zM287 62q-26 0 -26 -20q0 -17 22 -24 q21 -5 27.5 -13.5t6.5 -30.5v-66q0 -31 18.5 -51t49.5 -20h351q13 0 20.5 9t7.5 22q0 11 -7.5 20.5t-20.5 9.5h-319q-27 0 -27 26v79h304q38 0 38 47v133q0 40 -37 40h-379q-30 0 -30 -30q0 -12 8 -21.5t22 -9.5h342v-100h-371z" />
<glyph unicode="&#xaecc;" horiz-adv-x="860" d="M482 666h-413q-13 0 -22 -10t-9 -21q0 -12 8.5 -21t21.5 -9h151q-16 -68 -63 -142.5t-105 -119.5q-10 -8 -13.5 -19t1.5 -17q5 -7 15.5 -7t18.5 5q74 44 141.5 129.5t87.5 170.5h131q-15 -80 -72 -174t-122 -152q-6 -6 -7.5 -15t2.5 -14q13 -18 36 -3q59 41 113.5 104.5 t91.5 136.5q5 -21 23 -21h176v-230h19q55 0 55 93v390q0 18 -11 31.5t-28 13.5h-95q-32 0 -32 -23q0 -17 39 -24q29 -5 41 -15.5t12 -38.5v-137h-175q-5 0 -7 -1q21 51 28 97q2 16 -8 29.5t-30 13.5zM659 117v-212h-282q3 21 3 27v185h279zM727 -157q11 0 17.5 9.5t6.5 20.5 t-6 20.5t-17 9.5h-6q10 24 10 71v166q0 15 -8 26.5t-25 11.5h-421q-31 0 -31 -20q0 -19 27 -26q20 -6 26.5 -15t6.5 -35v-266h24q9 0 18 8.5t13 18.5h365z" />
<glyph unicode="&#xaecd;" horiz-adv-x="860" d="M482 676h-414q-13 0 -22 -10t-9 -21q0 -12 8.5 -21t21.5 -9h153q-16 -65 -64.5 -137.5t-103.5 -113.5q-10 -8 -13 -18.5t2 -16.5q5 -7 15.5 -7t18.5 5q72 41 136 122t90 166h131q-13 -73 -71 -163.5t-122 -143.5q-7 -6 -8.5 -15t2.5 -15q6 -8 17.5 -9t18.5 5 q85 58 159 156.5t92 202.5q3 16 -7.5 29.5t-30.5 13.5zM518 471h156v-192h19q55 0 55 93v348q0 19 -11 32t-28 13h-95q-32 0 -32 -22q0 -17 39 -25q29 -5 41 -15.5t12 -38.5v-132h-155q-10 0 -18 -8t-8 -22q0 -12 8 -21.5t17 -9.5zM380 18h279v-112h-279v112zM727 -155 q12 0 18 9t6 20q0 31 -23 31h-6q10 23 10 66v212q0 42 -40 42h-67q-31 0 -31 -21q0 -18 31 -24q20 -5 27 -12t7 -30v-59h-279v79q0 41 -36 41h-70q-31 0 -31 -19q0 -20 27 -25q22 -5 29.5 -13.5t7.5 -32.5v-290h17q30 0 40 26h363z" />
<glyph unicode="&#xaecf;" horiz-adv-x="860" d="M482 666h-413q-13 0 -22 -10t-9 -21q0 -12 8.5 -21t21.5 -9h151q-16 -68 -63 -142.5t-105 -119.5q-10 -8 -13.5 -19t1.5 -17q5 -7 15.5 -7t18.5 5q74 44 141.5 129.5t87.5 170.5h131q-15 -80 -72 -174t-122 -152q-6 -6 -7.5 -15t2.5 -14q13 -18 36 -3q88 61 160.5 165.5 t89.5 210.5q2 16 -8 29.5t-30 13.5zM508 464h166v-280h19q55 0 55 94v442q0 18 -11 31.5t-28 13.5h-95q-32 0 -32 -23q0 -17 39 -24q29 -6 41 -16.5t12 -37.5v-141h-165q-10 0 -18 -8t-8 -21t7.5 -21.5t17.5 -8.5zM523 73q24 42 30 77q4 26 -5.5 44.5t-38.5 18.5h-77 q-30 0 -30 -22q0 -16 27 -22q25 -4 31 -8.5t4 -15.5q-14 -68 -84.5 -148t-135.5 -122q-12 -8 -12 -19.5t10 -16t26 0.5q51 23 114 74.5t108 109.5l207 -170q18 -15 38 -7q20 9 23 37q2 20 -22 38z" />
<glyph unicode="&#xaed0;" horiz-adv-x="860" d="M482 671h-414q-13 0 -22 -10t-9 -21q0 -12 8.5 -20.5t21.5 -8.5h154q-16 -66 -65.5 -139.5t-103.5 -114.5q-23 -20 -11 -36q5 -7 15.5 -7t18.5 5q74 45 139.5 126.5t87.5 165.5h130q-11 -72 -71 -169.5t-122 -147.5q-16 -13 -5 -31q6 -7 17.5 -8t18.5 5q89 60 161.5 162 t88.5 206q3 16 -7.5 29.5t-30.5 13.5zM513 472h161v-215h19q55 0 55 94v369q0 18 -11 31.5t-28 13.5h-95q-32 0 -32 -23q0 -17 39 -24q28 -5 40.5 -16t12.5 -38v-132h-160q-10 0 -18 -8t-8 -22q0 -12 8 -21t17 -9zM453 -98q-24 -29 -44 -45q-12 -10 -10 -21t13.5 -14t26.5 5 q92 57 167 175l157 -145q16 -15 37 -9q27 9 27 37q0 22 -23 39l-169 130q26 53 31 97q3 27 -5.5 42t-38.5 15h-77q-30 0 -30 -23q0 -5 1.5 -8t4.5 -5t5.5 -3t7.5 -2t7 -2q27 -8 33 -12t5 -13q-9 -75 -83 -183l-107 86q26 48 30 87q6 56 -45 56h-78q-30 0 -30 -20 q0 -3 0.5 -5.5t1.5 -4.5t2 -3t3 -2.5t3.5 -2t4 -1.5t4 -1t5 -1t4.5 -1q20 -4 29 -11.5t7 -16.5q-7 -51 -57 -127.5t-101 -113.5q-20 -15 -10 -30.5t32 -4.5q37 18 83 61t82 95z" />
<glyph unicode="&#xaed1;" horiz-adv-x="860" d="M482 666h-413q-13 0 -22 -10t-9 -21q0 -12 8.5 -21t21.5 -9h151q-16 -68 -63 -142.5t-105 -119.5q-10 -8 -13.5 -19t1.5 -17q5 -7 15.5 -7t18.5 5q74 44 141.5 129.5t87.5 170.5h131q-15 -80 -72 -174t-122 -152q-6 -6 -7.5 -15t2.5 -14q13 -18 36 -3q59 41 113.5 104.5 t91.5 136.5q5 -21 23 -21h176v-230h19q55 0 55 93v390q0 18 -11 31.5t-28 13.5h-95q-32 0 -32 -23q0 -17 39 -24q29 -5 41 -15.5t12 -38.5v-137h-175q-5 0 -7 -1q21 51 28 97q2 16 -8 29.5t-30 13.5zM318 32q0 -79 61.5 -137t147.5 -58q85 0 147 58.5t62 136.5 q0 79 -62 137.5t-147 58.5q-87 0 -148 -58t-61 -138zM393 32q0 53 40.5 93.5t93.5 40.5t93.5 -40.5t40.5 -93.5t-40.5 -93t-93.5 -40t-93.5 40t-40.5 93z" />
<glyph unicode="&#xaed8;" d="M410 620h-353q-13 0 -22 -9.5t-9 -20.5q0 -13 8.5 -22t21.5 -9h124q-10 -73 -50.5 -165.5t-91.5 -150.5q-19 -22 -9 -37q6 -7 17 -7t18 7q67 61 121.5 160t73.5 193h105q-10 -90 -58.5 -200t-104.5 -176q-12 -15 -4 -28q6 -8 17 -8t19 8q107 103 171 259q1 -11 8.5 -18 t15.5 -7h123v-439h20q53 0 53 94v633q0 19 -10.5 32.5t-27.5 13.5h-95q-13 0 -21.5 -6.5t-8.5 -16.5q0 -18 38 -25q28 -5 40 -15.5t12 -37.5v-173h-122q-8 0 -13 -4q24 66 33 132q2 16 -8.5 29.5t-30.5 13.5zM804 720q0 18 -11.5 31.5t-28.5 13.5h-94q-33 0 -33 -23 q0 -17 39 -24q28 -5 41 -16t13 -38v-764h19q55 0 55 94v726z" />
<glyph unicode="&#xaed9;" d="M411 655h-354q-14 0 -22.5 -9.5t-8.5 -20.5q0 -12 8.5 -21t21.5 -9h125q-11 -63 -54 -148t-88 -128q-21 -20 -10 -38q6 -7 17 -7t18 5q63 46 120 137.5t76 178.5h104q-10 -83 -59 -179.5t-104 -155.5q-13 -17 -4 -30q6 -7 17.5 -8t18.5 5q104 87 168 226q9 -7 16 -7h134 v-199h20q53 0 53 94v336q0 19 -10.5 32.5t-27.5 13.5h-95q-30 0 -30 -23q0 -18 38 -25q28 -5 40 -15t12 -38v-116h-128q20 57 27 106q2 16 -8.5 29.5t-30.5 13.5zM804 720q0 18 -11.5 31.5t-28.5 13.5h-94q-33 0 -33 -23q0 -17 39 -24q29 -5 41.5 -15.5t12.5 -38.5v-427h19 q25 0 40 23.5t15 69.5v390zM785 136q0 41 -40 41h-411q-9 0 -16 -9.5t-7 -21.5q0 -11 7 -20.5t16 -9.5h378v-279h21q22 0 37 24.5t15 68.5v206z" />
<glyph unicode="&#xaedc;" d="M412 647h-354q-14 0 -22.5 -9.5t-8.5 -21.5t8.5 -20.5t21.5 -8.5h125q-11 -67 -54 -149t-90 -127q-10 -9 -12.5 -19.5t2.5 -16.5q6 -7 17 -7t18 5q61 45 121.5 136t76.5 178h104q-10 -83 -58.5 -178.5t-105.5 -155.5q-14 -14 -5 -30q6 -7 17.5 -8t18.5 5q100 85 165 215 q6 -4 12 -4h142v-319h20q53 0 53 95v471q0 20 -10.5 33t-27.5 13h-95q-30 0 -30 -22q0 -19 38 -26q28 -5 40 -15t12 -38v-133h-131q22 54 31 114q2 17 -8.5 30t-30.5 13zM804 720q0 19 -11.5 32t-28.5 13h-94q-33 0 -33 -22q0 -18 39 -25q29 -5 41.5 -15.5t12.5 -38.5v-573 h19q55 0 55 95v534zM329 -72q-1 -49 23 -67.5t78 -18.5h332q15 0 23.5 10t8.5 22q0 11 -9 20.5t-24 9.5h-337q-22 0 -22 22v179q0 19 -11 32t-29 13h-82q-33 0 -33 -22q0 -12 7 -17.5t29 -9.5q27 -7 36.5 -16.5t9.5 -35.5v-121z" />
<glyph unicode="&#xaee8;" d="M411 655h-354q-14 0 -22.5 -9.5t-8.5 -20.5q0 -12 8.5 -21t21.5 -9h125q-11 -63 -54 -148t-88 -128q-21 -20 -10 -38q6 -7 17 -7t18 5q63 46 120 137.5t76 178.5h104q-10 -83 -59 -179.5t-104 -155.5q-13 -17 -4 -30q6 -7 17.5 -8t18.5 5q104 87 168 226q9 -7 16 -7h134 v-199h20q53 0 53 94v336q0 19 -10.5 32.5t-27.5 13.5h-95q-30 0 -30 -23q0 -18 38 -25q28 -5 40 -15t12 -38v-116h-128q20 57 27 106q2 16 -8.5 29.5t-30.5 13.5zM804 720q0 18 -11.5 31.5t-28.5 13.5h-94q-33 0 -33 -23q0 -17 39 -24q29 -5 41.5 -15.5t12.5 -38.5v-427h19 q25 0 40 23.5t15 69.5v390zM700 120v-215h-282q3 21 3 27v188h279zM769 -157q11 0 17.5 9.5t6.5 20.5t-6.5 21t-16.5 10h-6q9 22 9 70v169q0 38 -33 38h-421q-31 0 -31 -20q0 -19 27 -26q20 -5 26.5 -14.5t6.5 -35.5v-269h25q8 0 17.5 8.5t13.5 18.5h365z" />
<glyph unicode="&#xaeeb;" d="M411 655h-354q-14 0 -22.5 -9.5t-8.5 -20.5q0 -12 8.5 -21t21.5 -9h125q-11 -63 -54 -148t-88 -128q-21 -20 -10 -38q6 -7 17 -7t18 5q63 46 120 137.5t76 178.5h104q-10 -83 -59 -179.5t-104 -155.5q-13 -17 -4 -30q6 -7 17.5 -8t18.5 5q104 89 169 227q6 -8 16 -8h123 v-198h20q53 0 53 94v335q0 20 -10.5 33t-27.5 13h-95q-30 0 -30 -22q0 -18 38 -26q28 -5 40 -15t12 -38v-116h-118q20 57 27 106q2 16 -8.5 29.5t-30.5 13.5zM804 721q0 18 -11.5 31t-28.5 13h-94q-33 0 -33 -22q0 -17 39 -25q29 -5 41.5 -15.5t12.5 -38.5v-469h19 q55 0 55 94v432zM560 70q24 40 30 79q9 63 -44 63h-76q-30 0 -30 -22q0 -16 26 -22q26 -4 32 -8.5t4 -15.5q-14 -68 -84 -146.5t-136 -121.5q-12 -8 -12.5 -19.5t10 -16t25.5 0.5q51 23 113.5 73t108.5 107l206 -166q19 -14 39 -6q21 9 24 37q2 20 -23 38z" />
<glyph unicode="&#xaeed;" d="M411 655h-354q-14 0 -22.5 -9.5t-8.5 -20.5q0 -12 8.5 -21t21.5 -9h125q-11 -63 -54 -148t-88 -128q-21 -20 -10 -38q6 -7 17 -7t18 5q63 46 120 137.5t76 178.5h104q-10 -83 -59 -179.5t-104 -155.5q-13 -17 -4 -30q6 -7 17.5 -8t18.5 5q104 87 168 226q9 -7 16 -7h134 v-199h20q53 0 53 94v336q0 19 -10.5 32.5t-27.5 13.5h-95q-30 0 -30 -23q0 -18 38 -25q28 -5 40 -15t12 -38v-116h-128q20 57 27 106q2 16 -8.5 29.5t-30.5 13.5zM804 720q0 18 -11.5 31.5t-28.5 13.5h-94q-33 0 -33 -23q0 -17 39 -24q29 -5 41.5 -15.5t12.5 -38.5v-427h19 q25 0 40 23.5t15 69.5v390zM364 32q0 -79 61.5 -137t147.5 -58q85 0 147 58.5t62 136.5q0 79 -62 137.5t-147 58.5q-87 0 -148 -58t-61 -138zM439 32q0 53 40.5 93.5t93.5 40.5t93.5 -40.5t40.5 -93.5t-40.5 -93t-93.5 -40t-93.5 40t-40.5 93z" />
<glyph unicode="&#xaef4;" horiz-adv-x="860" d="M481 621h-412q-13 0 -22 -10t-9 -21q0 -12 8.5 -21.5t21.5 -9.5h155q-19 -81 -66 -168.5t-105 -144.5q-20 -22 -9 -37q5 -7 15.5 -7.5t18.5 5.5q73 50 140.5 155.5t85.5 196.5h129q-11 -83 -62 -186t-125 -192q-12 -17 -4 -29q6 -8 17 -8.5t19 6.5q70 60 128 148t90 181 h179v-165h-176q-10 0 -17 -8t-7 -21t7 -22t16 -9h177v-354h19q54 0 54 94v726q0 19 -10.5 32t-27.5 13h-95q-32 0 -32 -23q0 -17 39 -24q28 -5 40.5 -16t12.5 -38v-125h-162q6 26 8 39q3 16 -7.5 29.5t-31.5 13.5z" />
<glyph unicode="&#xaef8;" horiz-adv-x="860" d="M482 666h-415q-13 0 -22 -10t-9 -21q0 -12 8.5 -21t21.5 -9h154q-17 -77 -65.5 -153.5t-105.5 -128.5q-9 -8 -11.5 -19t2.5 -17q5 -7 16 -7.5t18 5.5q77 55 141.5 143.5t86.5 176.5h130q-13 -81 -69 -179t-124 -161q-6 -6 -7.5 -15.5t2.5 -14.5q6 -7 17.5 -8t18.5 5 q69 51 129.5 130t94.5 167q6 -6 14 -6h166v-134h-170q-10 0 -17 -8.5t-7 -21.5q0 -14 7 -22.5t16 -8.5h171v-235h19q54 0 54 94v533q0 19 -10.5 32t-27.5 13h-95q-32 0 -32 -22q0 -18 39 -25q29 -5 41 -15.5t12 -38.5v-81h-163q6 18 9 40q3 16 -7.5 29.5t-30.5 13.5z M298 -72q-1 -49 23 -67.5t78 -18.5h333q14 0 22.5 10t8.5 22q0 11 -9 20.5t-23 9.5h-338q-22 0 -22 22v180q0 19 -11 32t-29 13h-82q-13 0 -23 -6t-10 -16q0 -12 7 -17.5t29 -9.5q27 -7 36.5 -16.5t9.5 -35.5v-122z" />
<glyph unicode="&#xaefc;" horiz-adv-x="860" d="M482 676h-414q-13 0 -22 -10t-9 -21q0 -12 8.5 -21t21.5 -9h153q-16 -65 -64.5 -137.5t-103.5 -113.5q-10 -8 -13 -18.5t2 -16.5q5 -7 15.5 -7t18.5 5q72 41 136 122t90 166h131q-13 -73 -71 -163.5t-122 -143.5q-7 -6 -8.5 -15t2.5 -15q6 -8 17.5 -9t18.5 5 q67 46 130.5 120t96.5 157h178v-111h-179q-11 0 -18 -8t-7 -22q0 -13 7 -21.5t17 -8.5h180v-101h19q54 0 54 93v348q0 19 -10.5 32t-27.5 13h-95q-32 0 -32 -22q0 -17 39 -25q29 -5 41 -15.5t12 -38.5v-53h-159q4 13 5 22q3 16 -7.5 29.5t-30.5 13.5zM287 62q-26 0 -26 -20 q0 -17 22 -24q21 -5 27.5 -13.5t6.5 -30.5v-66q0 -31 18.5 -51t49.5 -20h351q13 0 20.5 9t7.5 22q0 11 -7.5 20.5t-20.5 9.5h-319q-27 0 -27 26v79h304q38 0 38 47v133q0 40 -37 40h-379q-30 0 -30 -30q0 -12 8 -21.5t22 -9.5h342v-100h-371z" />
<glyph unicode="&#xaf07;" horiz-adv-x="860" d="M482 666h-413q-13 0 -22 -10t-9 -21q0 -12 8.5 -21t21.5 -9h151q-16 -68 -63 -142.5t-105 -119.5q-10 -8 -13.5 -19t1.5 -17q5 -7 15.5 -7t18.5 5q74 44 141.5 129.5t87.5 170.5h131q-15 -80 -72 -174t-122 -152q-6 -6 -7.5 -15t2.5 -14q13 -18 36 -3q69 47 131.5 126 t95.5 165h177v-133h-179q-11 0 -18 -8.5t-7 -21.5q0 -14 7 -22.5t17 -8.5h180v-160h19q54 0 54 94v442q0 19 -10.5 32t-27.5 13h-95q-32 0 -32 -23q0 -17 39 -24q29 -6 41 -16.5t12 -37.5v-65h-159q4 16 5 24q2 16 -8 29.5t-30 13.5zM523 73q24 42 30 77q4 26 -5.5 44.5 t-38.5 18.5h-77q-30 0 -30 -22q0 -16 27 -22q25 -4 31 -8.5t4 -15.5q-14 -68 -84.5 -148t-135.5 -122q-12 -8 -12 -19.5t10 -16t26 0.5q51 23 114 74.5t108 109.5l207 -170q18 -15 38 -7q20 9 23 37q2 20 -22 38z" />
<glyph unicode="&#xaf08;" horiz-adv-x="860" d="M482 671h-414q-13 0 -22 -10t-9 -21q0 -12 8.5 -20.5t21.5 -8.5h154q-16 -66 -65.5 -139.5t-103.5 -114.5q-23 -20 -11 -36q5 -7 15.5 -7t18.5 5q74 45 139.5 126.5t87.5 165.5h130q-11 -72 -71 -169.5t-122 -147.5q-16 -13 -5 -31q6 -7 17.5 -8t18.5 5q69 47 131 122.5 t95 159.5h177v-112h-178q-25 0 -25 -31q0 -13 7 -21t17 -8h179v-133h19q54 0 54 94v389q0 19 -10.5 32t-27.5 13h-95q-32 0 -32 -23q0 -17 39 -24q28 -5 40.5 -16t12.5 -38v-61h-158q4 15 5 25q3 16 -7.5 29.5t-30.5 13.5zM453 -98q-24 -29 -44 -45q-12 -10 -10 -21 t13.5 -14t26.5 5q92 57 167 175l157 -145q16 -15 37 -9q27 9 27 37q0 22 -23 39l-169 130q26 53 31 97q3 27 -5.5 42t-38.5 15h-77q-30 0 -30 -23q0 -5 1.5 -8t4.5 -5t5.5 -3t7.5 -2t7 -2q27 -8 33 -12t5 -13q-9 -75 -83 -183l-107 86q26 48 30 87q6 56 -45 56h-78 q-30 0 -30 -20q0 -3 0.5 -5.5t1.5 -4.5t2 -3t3 -2.5t3.5 -2t4 -1.5t4 -1t5 -1t4.5 -1q20 -4 29 -11.5t7 -16.5q-7 -51 -57 -127.5t-101 -113.5q-20 -15 -10 -30.5t32 -4.5q37 18 83 61t82 95z" />
<glyph unicode="&#xaf0d;" horiz-adv-x="860" d="M482 676h-414q-13 0 -22 -10t-9 -21q0 -12 8.5 -21t21.5 -9h153q-16 -65 -64.5 -137.5t-103.5 -113.5q-10 -8 -13 -18.5t2 -16.5q5 -7 15.5 -7t18.5 5q72 41 136 122t90 166h131q-13 -73 -71 -163.5t-122 -143.5q-7 -6 -8.5 -15t2.5 -15q6 -8 17.5 -9t18.5 5 q67 46 130.5 120t96.5 157h178v-111h-179q-11 0 -18 -8t-7 -22q0 -13 7 -21.5t17 -8.5h180v-101h19q54 0 54 93v348q0 19 -10.5 32t-27.5 13h-95q-32 0 -32 -22q0 -17 39 -25q29 -5 41 -15.5t12 -38.5v-53h-159q4 13 5 22q3 16 -7.5 29.5t-30.5 13.5zM707 162q10 0 17.5 10 t7.5 21q0 12 -8 21t-19 9h-415q-29 0 -29 -21q0 -20 27 -25q22 -4 27.5 -16.5t5.5 -48.5v-199q0 -37 21.5 -51.5t49.5 -14.5h321q13 0 21 9t8 21t-8 21.5t-22 9.5h-296q-12 0 -17 4.5t-5 19.5v76h298q15 0 22 9t7 21q0 11 -7.5 20.5t-21.5 9.5h-298v94h313z" />
<glyph unicode="&#xaf10;" d="M410 620h-353q-13 0 -22 -9.5t-9 -20.5q0 -13 8.5 -22t21.5 -9h124q-10 -73 -50.5 -165.5t-91.5 -150.5q-19 -22 -9 -37q6 -7 17 -7t18 7q67 61 121.5 160t73.5 193h105q-10 -90 -58.5 -200t-104.5 -176q-12 -15 -4 -28q6 -8 17 -8t19 8q65 62 116 148t78 177h114v-149 h-121q-11 0 -18.5 -8t-7.5 -21t7.5 -22t17.5 -9h122v-321h20q53 0 53 94v633q0 19 -10.5 32.5t-27.5 13.5h-95q-13 0 -21.5 -6.5t-8.5 -16.5q0 -18 38 -25q28 -5 40 -15.5t12 -37.5v-81h-98l6 36q2 16 -8.5 29.5t-30.5 13.5zM804 720q0 18 -11.5 31.5t-28.5 13.5h-94 q-33 0 -33 -23q0 -17 39 -24q28 -5 41 -16t13 -38v-764h18q56 0 56 94v726z" />
<glyph unicode="&#xaf2c;" d="M424 613q0 48 -44 48h-203q-16 0 -24.5 -9t-8.5 -21t8.5 -21.5t24.5 -9.5h170q0 -238 -29 -364q-7 -30 13 -35q23 -6 34 20q17 40 32 116q25 -5 35.5 -15t10.5 -35v-203h-376q-13 0 -22 -9t-9 -20q0 -13 8.5 -22.5t22.5 -9.5h782q15 0 23 9t8 22q0 11 -8 20.5t-23 9.5 h-333v257q0 20 -11 32.5t-29 12.5h-70q18 117 18 227zM711 613q0 48 -45 48h-181q-15 0 -23.5 -9t-8.5 -21t8.5 -21.5t24.5 -9.5h146q0 -24 0.5 -78.5t0 -82t-2 -69t-6 -73.5t-11.5 -61q-7 -30 12 -35q9 -2 19.5 3t15.5 17q51 115 51 392z" />
<glyph unicode="&#xaf2d;" d="M424 669q0 47 -44 47h-203q-16 0 -24.5 -8.5t-8.5 -19.5q0 -14 8.5 -23t24.5 -9h170q0 -177 -19 -245q-8 -30 12 -35q9 -2 19 3t15 17q19 43 32 104q32 -9 32 -48v-103h-371q-14 0 -22.5 -9t-8.5 -20q0 -13 8.5 -22t22.5 -9h782q15 0 23 8.5t8 21.5q0 12 -8 21t-23 9 h-338v158q0 20 -11 32.5t-29 12.5h-56q9 64 9 117zM711 669q0 47 -45 47h-181q-15 0 -23.5 -8.5t-8.5 -19.5q0 -14 8.5 -23t24.5 -9h146q0 -13 0.5 -56t0 -64t-3.5 -57t-9 -69q-5 -29 12 -34q26 -6 35 20q22 56 33 134t11 139zM683 157q0 41 -40 41h-423q-9 0 -16 -9.5 t-7 -21.5q0 -11 7 -20t16 -9h390v-287h20q22 0 37.5 24.5t15.5 68.5v213z" />
<glyph unicode="&#xaf30;" d="M424 649q0 19 -10.5 33t-33.5 14h-203q-15 0 -24 -9t-9 -20q0 -13 8.5 -22.5t24.5 -9.5h170q0 -216 -19 -283q-8 -31 12 -36q9 -2 19 3t15 17q17 37 31 114q18 -6 26 -16t8 -33v-109h-372q-13 0 -22 -9t-9 -19q0 -13 8.5 -22.5t22.5 -9.5h782q15 0 23 9t8 22q0 11 -8 20 t-23 9h-337v164q0 20 -11 32.5t-29 12.5h-59q11 90 11 148zM711 649q0 19 -10.5 33t-34.5 14h-181q-15 0 -23.5 -9t-8.5 -20q0 -13 8.5 -22.5t24.5 -9.5h146q0 -13 0.5 -62t0.5 -77t-3 -70.5t-10 -74.5q-5 -30 12 -35q21 -5 35 20q23 49 33.5 144t10.5 169zM247 -67 q-1 -49 23 -67.5t78 -18.5h342q14 0 23 10t9 22t-9.5 21t-23.5 9h-348q-21 0 -21 23v172q0 19 -11.5 31.5t-28.5 12.5h-83q-33 0 -33 -21q0 -11 7.5 -17t28.5 -10q27 -7 37 -16.5t10 -35.5v-115z" />
<glyph unicode="&#xaf32;" d="M424 675q0 48 -44 48h-203q-15 0 -24 -8.5t-9 -20.5q0 -14 8.5 -23t24.5 -9h170v-32v-36t-0.5 -33.5t-1.5 -37t-3 -33.5t-5 -35t-7 -31q-9 -31 12 -36q23 -6 34 21q18 39 31 101q31 -11 31 -48v-99h-371q-14 0 -22.5 -9t-8.5 -20q0 -12 8.5 -22t22.5 -10h782q15 0 23 9.5 t8 21.5t-8 21t-23 9h-338v155q0 18 -11 31.5t-28 13.5h-56q8 66 8 112zM711 675q0 48 -45 48h-181q-15 0 -23.5 -9t-8.5 -20q0 -14 8.5 -23t24.5 -9h146q0 -18 1 -56t1 -60t-3 -56t-10 -67q-5 -30 12 -35q23 -5 35 21q43 91 43 266zM205 -73q-1 -49 23 -67t78 -18h144 q14 0 22.5 9.5t8.5 21.5t-9 21t-23 9h-151q-20 0 -20 23v232q0 20 -11.5 33t-28.5 13h-83q-33 0 -33 -22q0 -11 7 -17t29 -11q26 -6 36.5 -15.5t10.5 -35.5v-176zM432 101q-15 0 -23.5 -9.5t-8.5 -21.5t8.5 -21t23.5 -9h58q-34 -34 -34 -79q0 -56 42.5 -93t105.5 -37t107 37 t44 94q0 45 -35 78h59q14 0 22 9t8 21t-8.5 21.5t-21.5 9.5h-347zM530 162q24 -14 61 -14h82q14 0 23.5 7.5t9.5 20.5q0 33 -35 33q-55 0 -87 6t-71 25q-22 9 -36 -8q-6 -10 -3.5 -21.5t10.5 -16.5zM525 -35q0 29 22 51.5t57 22.5q34 0 57.5 -22t23.5 -52q0 -31 -25 -54.5 t-56 -23.5q-33 0 -56 24t-23 54z" />
<glyph unicode="&#xaf34;" d="M424 675q0 48 -44 48h-203q-15 0 -24 -8.5t-9 -20.5q0 -14 8.5 -23t24.5 -9h170v-32v-36t-0.5 -33.5t-1.5 -37t-3 -33.5t-5 -35t-7 -31q-9 -31 12 -36q23 -6 34 21q18 39 32 106q30 -11 30 -48v-83h-371q-14 0 -22.5 -9t-8.5 -20q0 -13 8.5 -22.5t22.5 -9.5h782 q15 0 23 9t8 22q0 11 -8 20.5t-23 9.5h-338v139q0 18 -11 31.5t-28 13.5h-56q8 52 8 107zM711 675q0 48 -45 48h-181q-15 0 -23.5 -9t-8.5 -20q0 -14 8.5 -23t24.5 -9h146q0 -18 1 -56t1 -60t-3 -56t-10 -67q-5 -30 12 -35q23 -5 35 21q43 91 43 266zM218 68q-27 0 -27 -21 q0 -16 23 -24q20 -6 27 -14t7 -30v-65q0 -31 18 -51t50 -20h381q13 0 21.5 9.5t8.5 21.5q0 11 -8.5 20.5t-21.5 9.5h-351q-25 0 -25 27v77h335q37 0 37 47v134q0 40 -37 40h-409q-30 0 -30 -29q0 -12 8 -21.5t22 -9.5h372v-101h-401z" />
<glyph unicode="&#xaf3c;" d="M424 669q0 47 -44 47h-203q-16 0 -24.5 -8.5t-8.5 -19.5q0 -14 8.5 -23t24.5 -9h170q0 -177 -19 -245q-8 -30 12 -35q9 -2 19 3t15 17q19 43 32 104q32 -9 32 -48v-103h-371q-14 0 -22.5 -9t-8.5 -20q0 -13 8.5 -22t22.5 -9h782q15 0 23 8.5t8 21.5q0 12 -8 21t-23 9 h-338v158q0 20 -11 32.5t-29 12.5h-56q9 64 9 117zM711 669q0 47 -45 47h-181q-15 0 -23.5 -8.5t-8.5 -19.5q0 -14 8.5 -23t24.5 -9h146q0 -13 0.5 -56t0 -64t-3.5 -57t-9 -69q-5 -29 12 -34q26 -6 35 20q22 56 33 134t11 139zM612 129v-214h-299q3 21 3 27v187h296z M681 -147q10 0 16.5 9.5t6.5 20.5q0 12 -6 21.5t-16 9.5h-7q10 21 10 70v167q0 38 -33 38h-438q-31 0 -31 -20q0 -19 27 -26q20 -6 26.5 -14.5t6.5 -34.5v-267h24q9 0 18 8t13 18h383z" />
<glyph unicode="&#xaf3d;" d="M424 675q0 48 -44 48h-203q-15 0 -24 -8.5t-9 -20.5q0 -14 8.5 -23t24.5 -9h170v-32v-36t-0.5 -33.5t-1.5 -37t-3 -33.5t-5 -35t-7 -31q-9 -31 12 -36q23 -6 34 21q18 39 32 106q30 -11 30 -48v-83h-371q-14 0 -22.5 -9t-8.5 -20q0 -13 8.5 -22.5t22.5 -9.5h782 q15 0 23 9t8 22q0 11 -8 20.5t-23 9.5h-338v139q0 18 -11 31.5t-28 13.5h-56q8 52 8 107zM711 675q0 48 -45 48h-181q-15 0 -23.5 -9t-8.5 -20q0 -14 8.5 -23t24.5 -9h146q0 -18 1 -56t1 -60t-3 -56t-10 -67q-5 -30 12 -35q23 -5 35 21q43 91 43 266zM311 20h299v-105h-299 v105zM679 -145q11 0 17.5 9t6.5 21q0 11 -6.5 20t-17.5 9h-6q10 20 10 66v200q0 42 -39 42h-68q-31 0 -31 -21q0 -17 31 -24q21 -5 27.5 -11.5t6.5 -29.5v-56h-299v85q0 41 -37 41h-69q-32 0 -32 -20q0 -19 28 -24q21 -5 29 -14t8 -33v-287h17q30 0 40 27h384z" />
<glyph unicode="&#xaf3f;" d="M424 669q0 47 -44 47h-203q-16 0 -24.5 -8.5t-8.5 -19.5q0 -14 8.5 -23t24.5 -9h170q0 -177 -19 -245q-8 -30 12 -35q9 -2 19 3t15 17q19 43 32 104q32 -9 32 -48v-103h-371q-14 0 -22.5 -9t-8.5 -20q0 -13 8.5 -22t22.5 -9h782q15 0 23 8.5t8 21.5q0 12 -8 21t-23 9 h-338v158q0 20 -11 32.5t-29 12.5h-56q9 64 9 117zM711 669q0 47 -45 47h-181q-15 0 -23.5 -8.5t-8.5 -19.5q0 -14 8.5 -23t24.5 -9h146q0 -13 0.5 -56t0 -64t-3.5 -57t-9 -69q-5 -29 12 -34q26 -6 35 20q22 56 33 134t11 139zM483 77q21 35 28 67q5 25 -5 44.5t-39 19.5 h-77q-30 0 -30 -22q0 -19 26 -23t32 -8t4 -15q-12 -60 -89 -140.5t-139 -108.5q-21 -9 -12.5 -26t32.5 -10q54 17 121.5 66t114.5 109l225 -157q18 -13 37 -6q21 8 24 37q2 20 -23 35z" />
<glyph unicode="&#xaf41;" d="M424 669q0 47 -44 47h-203q-16 0 -24.5 -8.5t-8.5 -19.5q0 -14 8.5 -23t24.5 -9h170q0 -177 -19 -245q-8 -30 12 -35q9 -2 19 3t15 17q19 43 32 104q32 -9 32 -48v-103h-371q-14 0 -22.5 -9t-8.5 -20q0 -13 8.5 -22t22.5 -9h782q15 0 23 8.5t8 21.5q0 12 -8 21t-23 9 h-338v158q0 20 -11 32.5t-29 12.5h-56q9 64 9 117zM711 669q0 47 -45 47h-181q-15 0 -23.5 -8.5t-8.5 -19.5q0 -14 8.5 -23t24.5 -9h146q0 -13 0.5 -56t0 -64t-3.5 -57t-9 -69q-5 -29 12 -34q26 -6 35 20q22 56 33 134t11 139zM248 32q0 -80 61.5 -133.5t147.5 -53.5 q85 0 147 53.5t62 133.5q0 83 -61.5 135.5t-147.5 52.5q-85 0 -147 -54t-62 -134zM323 32q0 54 40 90.5t94 36.5t94 -37t40 -90t-40 -89t-94 -36q-55 0 -94.5 35.5t-39.5 89.5z" />
<glyph unicode="&#xaf42;" d="M424 675q0 48 -44 48h-203q-15 0 -24 -8.5t-9 -20.5q0 -14 8.5 -23t24.5 -9h170v-32v-36t-0.5 -33.5t-1.5 -37t-3 -33.5t-5 -35t-7 -31q-9 -31 12 -36q23 -6 34 21q18 41 29 95q18 -6 26 -16t8 -33v-93h-372q-13 0 -22 -9t-9 -20q0 -13 8.5 -22.5t22.5 -9.5h782 q31 0 31 31q0 11 -8 20.5t-23 9.5h-337v149q0 19 -11 32t-28 13h-58q9 64 9 119zM711 675q0 48 -45 48h-181q-15 0 -23.5 -9t-8.5 -20q0 -14 8.5 -23t24.5 -9h146q0 -18 1 -56t1 -60t-3 -56t-10 -67q-5 -30 12 -35q23 -5 35 21q43 91 43 266zM543 19q69 69 89 135 q6 18 -3.5 35t-28.5 17h-331q-9 0 -16.5 -9t-7.5 -21t7 -21.5t16 -9.5h270q-33 -72 -128 -150t-176 -112q-25 -10 -15 -34q7 -10 31 -6q48 11 115.5 47t126.5 84l204 -124q20 -11 37 -2q22 11 23 37q2 26 -23 38z" />
<glyph unicode="&#xaf43;" d="M424 675q0 48 -44 48h-203q-15 0 -24 -8.5t-9 -20.5q0 -14 8.5 -23t24.5 -9h170v-32v-36t-0.5 -33.5t-1.5 -37t-3 -33.5t-5 -35t-7 -31q-9 -31 12 -36q23 -6 34 21q18 39 31 101q31 -11 31 -48v-99h-371q-14 0 -22.5 -9t-8.5 -20q0 -12 8.5 -22t22.5 -10h782q15 0 23 9.5 t8 21.5t-8 21t-23 9h-338v155q0 18 -11 31.5t-28 13.5h-56q8 66 8 112zM711 675q0 48 -45 48h-181q-15 0 -23.5 -9t-8.5 -20q0 -14 8.5 -23t24.5 -9h146q0 -18 1 -56t1 -60t-3 -56t-10 -67q-5 -30 12 -35q23 -5 35 21q43 91 43 266zM392 197q25 -15 66 -15h83q14 0 23.5 8 t9.5 21q0 31 -35 31q-53 0 -85 6t-72 24q-7 3 -19 1t-18 -8q-8 -8 -6.5 -21t10.5 -19zM570 -36q83 60 100 114q6 19 -3.5 37.5t-31.5 18.5h-352q-9 0 -16.5 -8.5t-7.5 -20.5q0 -13 7 -22.5t16 -9.5h293q-36 -52 -132 -109t-195 -87q-25 -8 -15 -29q7 -14 31 -10 q119 19 240 85l195 -78q24 -8 41 -2q22 9 23 36q3 29 -29 39z" />
<glyph unicode="&#xaf48;" horiz-adv-x="920" d="M260 607q0 48 -44 48h-148q-16 0 -24.5 -8.5t-8.5 -20.5q0 -14 8.5 -23t24.5 -9h114q0 -101 -0.5 -140t-5.5 -96.5t-16 -101.5q-10 -33 12 -38q22 -6 33 22q20 46 33 117q27 -6 38 -15.5t11 -35.5v-167h-239q-14 0 -23.5 -9t-9.5 -21q0 -13 9 -22t23 -9h305 q71 0 145.5 11.5t110.5 30.5q21 10 19 26.5t-28 11.5q-81 -19 -239 -19v221q0 20 -11 33t-28 13h-75q12 92 14 201zM517 607q0 48 -43 48h-157q-15 0 -24 -8.5t-9 -20.5q0 -14 8.5 -23t24.5 -9h124q0 -9 0.5 -76.5t0 -100t-3 -83t-8.5 -81.5q-5 -31 13 -35q23 -6 33 22 q20 55 30.5 162.5t10.5 204.5zM729 719q0 18 -11.5 31.5t-29.5 13.5h-93q-32 0 -32 -23q0 -17 38 -24q28 -5 41 -16t13 -38v-762h19q55 0 55 94v374h152q10 0 17.5 9t7.5 22q0 14 -7.5 22.5t-18.5 8.5h-151v288z" />
<glyph unicode="&#xaf49;" horiz-adv-x="920" d="M258 653q0 19 -10.5 33t-33.5 14h-146q-16 0 -24.5 -8.5t-8.5 -20.5q0 -13 8.5 -22.5t24.5 -9.5h112q0 -15 0.5 -51t0 -51.5t-1.5 -42t-4.5 -49t-9.5 -46.5q-7 -29 13 -34t35 21q18 39 29 96q24 -5 35 -15t11 -36v-103h-240q-14 0 -23.5 -9t-9.5 -21t9 -21t23 -9h299 q72 0 149 11t113 30q13 6 17.5 16.5t-2.5 17t-24 2.5q-79 -17 -238 -17v158q0 19 -11 32t-28 13h-72q8 70 8 122zM515 653q0 47 -43 47h-155q-16 0 -24.5 -8.5t-8.5 -20.5q0 -13 8.5 -22.5t24.5 -9.5h122q0 -20 1 -59t1 -62.5t-2.5 -56.5t-7.5 -62q-9 -29 13 -34 q9 -2 19 3.5t15 17.5q37 86 37 267zM729 720q0 18 -11.5 31.5t-29.5 13.5h-93q-32 0 -32 -23q0 -17 38 -24q29 -5 41.5 -15.5t12.5 -38.5v-438h19q25 0 40 24t15 70v137h152q11 0 18 8.5t7 21.5t-7.5 21.5t-18.5 8.5h-151v203zM711 119q0 41 -40 41h-411q-9 0 -16 -9.5 t-7 -20.5t7 -20.5t16 -9.5h378v-263h20q22 0 37.5 24.5t15.5 68.5v189z" />
<glyph unicode="&#xaf50;" horiz-adv-x="920" d="M258 656q0 19 -10.5 33t-33.5 14h-146q-16 0 -24.5 -8.5t-8.5 -20.5q0 -13 8.5 -22.5t24.5 -9.5h112q0 -16 0.5 -50t0 -48.5t-1.5 -39.5t-4.5 -46t-9.5 -45q-7 -29 13 -34t35 21q16 33 28 90q26 -7 37 -17t11 -35v-84h-241q-14 0 -23.5 -9.5t-9.5 -21.5t9 -20.5t23 -8.5 h299q72 0 149 11t113 29q21 11 19 27t-28 10q-79 -17 -237 -17v140q0 18 -11 31t-28 13h-73q8 66 8 118zM515 656q0 47 -43 47h-155q-16 0 -24.5 -8.5t-8.5 -20.5q0 -13 8.5 -22.5t24.5 -9.5h122q0 -20 1 -57.5t1 -59t-2.5 -53t-7.5 -60.5q-9 -29 13 -34q9 -2 19 3.5 t15 17.5q37 86 37 257zM729 721q0 18 -11.5 31t-29.5 13h-93q-32 0 -32 -22q0 -17 38 -24q29 -6 41.5 -16.5t12.5 -38.5v-395h19q55 0 55 92v112h152q11 0 18 8t7 21q0 30 -26 30h-151v189zM256 52q-25 0 -25 -20q0 -18 21 -24q20 -5 27 -14t7 -30v-56q0 -31 18.5 -51 t49.5 -20h361q14 0 21.5 9t7.5 22q0 12 -8 21t-21 9h-329q-27 0 -27 27v67h315q37 0 37 48v123q0 41 -37 41h-389q-30 0 -30 -29q0 -12 8 -21.5t22 -9.5h352v-92h-381z" />
<glyph unicode="&#xaf5c;" horiz-adv-x="920" d="M258 654q0 19 -10.5 33t-33.5 14h-146q-16 0 -24.5 -8.5t-8.5 -20.5q0 -13 8.5 -22.5t24.5 -9.5h112q0 -16 0.5 -50.5t0 -49t-1.5 -40t-4.5 -47t-9.5 -45.5q-7 -29 13 -34t35 21q16 34 27 86q18 -5 26.5 -9t15 -14.5t6.5 -28.5v-98h-240q-14 0 -23.5 -9t-9.5 -21t9 -20.5 t23 -8.5h299q72 0 149 11t113 29q21 10 19 26t-28 11q-78 -18 -238 -18v153q0 19 -11 32t-28 13h-73q9 66 9 125zM515 654q0 47 -43 47h-155q-16 0 -24.5 -8.5t-8.5 -20.5q0 -13 8.5 -22.5t24.5 -9.5h122q0 -20 1 -58t1 -59.5t-2.5 -53.5t-7.5 -61q-9 -29 13 -34 q9 -2 19 3.5t15 17.5q37 86 37 259zM729 720q0 18 -11.5 31.5t-29.5 13.5h-93q-32 0 -32 -23q0 -17 38 -24q28 -5 41 -16t13 -38v-417h19q25 0 40 24t15 70v121h152q11 0 18 8.5t7 21.5q0 30 -26 30h-151v198zM430 -102q-28 -28 -42 -39q-12 -10 -10.5 -21t13 -14t26.5 4 q41 24 85.5 68t79.5 94l159 -132q16 -15 37 -9q27 9 27 37q0 23 -23 39l-169 117q28 55 31 94q3 27 -5.5 42t-38.5 15h-77q-30 0 -30 -23q0 -5 1.5 -8t4.5 -5t5.5 -3t7.5 -2t7 -2q27 -8 33 -12t5 -13q-9 -74 -82 -172l-107 86q23 43 29 82q8 56 -45 56h-78q-30 0 -30 -20 q0 -3 0.5 -5.5t1.5 -4.5t2 -3t3 -2.5t3.5 -2t4 -1.5t4 -1t5 -1t4.5 -1q38 -8 36 -28q-3 -42 -53.5 -119t-101.5 -112q-21 -14 -12.5 -29t31.5 -6q35 14 81.5 55.5t83.5 92.5z" />
<glyph unicode="&#xaf5d;" horiz-adv-x="920" d="M258 653q0 19 -10.5 33t-33.5 14h-146q-16 0 -24.5 -8.5t-8.5 -20.5q0 -13 8.5 -22.5t24.5 -9.5h112q0 -15 0.5 -51t0 -51.5t-1.5 -42t-4.5 -49t-9.5 -46.5q-7 -29 13 -34t35 21q18 39 29 96q24 -5 35 -15t11 -36v-103h-240q-14 0 -23.5 -9t-9.5 -21t9 -21t23 -9h299 q72 0 149 11t113 30q13 6 17.5 16.5t-2.5 17t-24 2.5q-79 -17 -238 -17v158q0 19 -11 32t-28 13h-72q8 70 8 122zM515 653q0 47 -43 47h-155q-16 0 -24.5 -8.5t-8.5 -20.5q0 -13 8.5 -22.5t24.5 -9.5h122q0 -20 1 -59t1 -62.5t-2.5 -56.5t-7.5 -62q-9 -29 13 -34 q9 -2 19 3.5t15 17.5q37 86 37 267zM729 720q0 18 -11.5 31.5t-29.5 13.5h-93q-32 0 -32 -23q0 -17 38 -24q29 -5 41.5 -15.5t12.5 -38.5v-438h19q25 0 40 24t15 70v137h152q11 0 18 8.5t7 21.5t-7.5 21.5t-18.5 8.5h-151v203zM296 22q0 -79 58.5 -132t147.5 -53 q87 0 147 54t60 131q0 78 -60 130.5t-147 52.5q-90 0 -148 -53.5t-58 -129.5zM370 22q0 51 38 86t94 36q56 -1 94.5 -36.5t38.5 -85.5q0 -49 -38.5 -86.5t-94.5 -36.5q-58 -1 -95 35.5t-37 87.5z" />
<glyph unicode="&#xaf64;" d="M226 597q0 19 -10 33t-34 14h-125q-15 0 -24 -9t-9 -21t8.5 -21.5t24.5 -9.5h91q0 -233 -24 -313q-8 -32 11 -37q10 -2 20 3.5t15 17.5q17 41 33 112q23 -5 33.5 -15t10.5 -35v-166h-198q-14 0 -23 -9.5t-9 -20.5q0 -13 8.5 -22t22.5 -9h174q71 0 148.5 11.5t113.5 29.5 q21 10 19 26.5t-28 11.5q-58 -13 -154 -17v219q0 20 -11 33t-28 13h-71q12 88 15 181zM453 597q1 18 -9.5 32.5t-33.5 14.5h-132q-15 0 -24 -9.5t-9 -20.5q0 -12 9 -21.5t24 -9.5h99q0 -13 0.5 -64t0 -71.5t-1.5 -59t-4.5 -66.5t-8.5 -54q-7 -30 13 -35q9 -2 19.5 4t14.5 18 q36 92 43 342zM803 720q0 18 -11 31.5t-28 13.5h-94q-33 0 -33 -23q0 -17 39 -24q28 -5 41 -16t13 -38v-253h-117v266q0 19 -11 32.5t-28 13.5h-94q-14 0 -23 -6.5t-9 -16.5q0 -18 39 -25q29 -5 41 -15.5t12 -37.5v-672h18q55 0 55 94v305h117v-449h18q55 0 55 94v726z" />
<glyph unicode="&#xaf65;" d="M232 628q0 19 -10 33t-34 14h-125q-14 0 -23.5 -9.5t-9.5 -20.5q0 -12 9.5 -22t23.5 -10h92q0 -150 -22 -217q-10 -32 13 -39q17 -5 33 22q15 27 28 70q33 -9 33 -48v-86h-191q-14 0 -23 -9.5t-9 -20.5q0 -13 8.5 -21.5t22.5 -8.5h174q71 0 143.5 10.5t108.5 29.5 q13 7 17.5 17t-3 16.5t-23.5 3.5q-65 -14 -152 -16v140q0 20 -10.5 33t-27.5 13h-55q12 63 12 126zM458 628q0 18 -10.5 32.5t-33.5 14.5h-131q-14 0 -23 -9.5t-9 -20.5q0 -12 9 -22t23 -10h97q0 -13 0.5 -46t0 -45.5t-1.5 -37t-4 -46t-8 -47.5q-5 -28 12 -34q9 -2 19.5 4 t15.5 18q44 96 44 249zM803 720q0 18 -11 31.5t-28 13.5h-94q-33 0 -33 -23q0 -17 39 -24q29 -5 41.5 -15.5t12.5 -38.5v-166h-117v179q0 19 -11 32.5t-28 13.5h-94q-32 0 -32 -23q0 -18 39 -25q29 -5 41 -15t12 -38v-396h18q55 0 55 94v118h117v-212h18q55 0 55 94v400z M779 122q0 41 -40 41h-411q-9 0 -16 -9.5t-7 -20.5t7 -20.5t16 -9.5h378v-266h21q22 0 37 24.5t15 68.5v192z" />
<glyph unicode="&#xaf79;" d="M232 628q0 19 -10 33t-34 14h-125q-14 0 -23.5 -9.5t-9.5 -20.5q0 -12 9.5 -22t23.5 -10h92q0 -150 -22 -217q-10 -32 13 -39q17 -5 33 22q15 27 28 70q33 -9 33 -48v-86h-191q-14 0 -23 -9.5t-9 -20.5q0 -13 8.5 -21.5t22.5 -8.5h174q71 0 143.5 10.5t108.5 29.5 q13 7 17.5 17t-3 16.5t-23.5 3.5q-65 -14 -152 -16v140q0 20 -10.5 33t-27.5 13h-55q12 63 12 126zM458 628q0 18 -10.5 32.5t-33.5 14.5h-131q-14 0 -23 -9.5t-9 -20.5q0 -12 9 -22t23 -10h97q0 -13 0.5 -46t0 -45.5t-1.5 -37t-4 -46t-8 -47.5q-5 -28 12 -34q9 -2 19.5 4 t15.5 18q44 96 44 249zM803 720q0 18 -11 31.5t-28 13.5h-94q-33 0 -33 -23q0 -17 39 -24q29 -5 41.5 -15.5t12.5 -38.5v-166h-117v179q0 19 -11 32.5t-28 13.5h-94q-32 0 -32 -23q0 -18 39 -25q29 -5 41 -15t12 -38v-396h18q55 0 55 94v118h117v-212h18q55 0 55 94v400z M368 21q0 -79 58.5 -132t147.5 -53q87 0 147 54t60 131q0 78 -60 130.5t-147 52.5q-90 0 -148 -53.5t-58 -129.5zM442 21q0 51 38 86t94 36q56 -1 94.5 -36.5t38.5 -85.5q0 -49 -38.5 -86.5t-94.5 -36.5q-58 -1 -95 35.5t-37 87.5z" />
<glyph unicode="&#xaf80;" horiz-adv-x="860" d="M260 607q0 48 -44 48h-148q-16 0 -24.5 -8.5t-8.5 -20.5q0 -14 8.5 -23t24.5 -9h114q0 -101 -0.5 -140t-5.5 -96.5t-16 -101.5q-10 -33 12 -38q22 -6 33 22q20 46 33 117q27 -6 38.5 -15.5t11.5 -35.5v-167h-238q-15 0 -24 -9t-9 -21q0 -13 8.5 -22t23.5 -9h310 q71 0 148 11.5t113 30.5q21 10 19 26.5t-28 11.5q-79 -19 -250 -19v221q0 20 -11 33t-29 13h-75q12 92 14 201zM517 607q0 48 -43 48h-157q-15 0 -24 -8.5t-9 -20.5q0 -14 8.5 -23t24.5 -9h124q0 -9 0.5 -76.5t0 -100t-3 -83t-8.5 -81.5q-5 -31 13 -35q23 -6 33 22 q20 55 30.5 162.5t10.5 204.5zM745 720q0 19 -11 32t-28 13h-95q-32 0 -32 -23q0 -17 39 -24q28 -5 40.5 -16t12.5 -38v-764h20q54 0 54 94v726z" />
<glyph unicode="&#xaf84;" horiz-adv-x="860" d="M258 645q0 19 -10.5 33t-33.5 14h-146q-16 0 -24.5 -8.5t-8.5 -20.5q0 -13 8.5 -22.5t24.5 -9.5h112q0 -14 0.5 -53.5t0 -58.5t-1.5 -50t-4.5 -56t-9.5 -49q-7 -29 13 -34t35 21q16 32 28 98q26 -6 37 -16t11 -36v-100h-239q-15 0 -24 -9.5t-9 -21.5t8.5 -21.5t23.5 -9.5 h310q70 0 147.5 11.5t113.5 30.5q21 11 19 26.5t-28 10.5q-79 -17 -249 -17v155q0 19 -11 32t-29 13h-74q10 77 10 148zM515 645q0 47 -43 47h-155q-16 0 -24.5 -8.5t-8.5 -20.5q0 -13 8.5 -22.5t24.5 -9.5h122q0 -19 1 -63t1 -72t-2.5 -65.5t-7.5 -66.5q-9 -29 13 -34 q9 -2 19 3.5t15 17.5q37 86 37 294zM745 720q0 19 -10.5 32t-28.5 13h-95q-32 0 -32 -22q0 -18 39 -25q29 -5 41 -15.5t12 -38.5v-571h20q54 0 54 94v533zM290 -67q-1 -49 23 -67t78 -18h332q15 0 23.5 9.5t8.5 21.5q0 13 -9 21.5t-24 8.5h-337q-22 0 -22 23v144 q0 20 -11.5 32.5t-28.5 12.5h-83q-32 0 -32 -20q0 -12 7 -18.5t28 -10.5q27 -6 37 -15.5t10 -36.5v-87z" />
<glyph unicode="&#xaf88;" horiz-adv-x="860" d="M258 656q0 19 -10.5 33t-33.5 14h-146q-16 0 -24.5 -8.5t-8.5 -20.5q0 -13 8.5 -22.5t24.5 -9.5h112q0 -16 0.5 -50t0 -48.5t-1.5 -39.5t-4.5 -46t-9.5 -45q-7 -29 13 -34t35 21q16 34 28 89q25 -6 36.5 -16.5t11.5 -35.5v-85h-239q-15 0 -24 -9.5t-9 -20.5 q0 -13 8.5 -21.5t23.5 -8.5h310q71 0 148 11t113 29q21 11 19 27t-28 10q-79 -17 -249 -17v141q0 18 -11 31t-29 13h-73q9 63 9 119zM515 656q0 47 -43 47h-155q-16 0 -24.5 -8.5t-8.5 -20.5q0 -13 8.5 -22.5t24.5 -9.5h122q0 -20 1 -57.5t1 -59t-2.5 -53t-7.5 -60.5 q-9 -29 13 -34q9 -2 19 3.5t15 17.5q37 86 37 257zM745 720q0 19 -11 32t-28 13h-95q-32 0 -32 -23q0 -17 39 -24q28 -5 40.5 -16t12.5 -38v-393h20q54 0 54 94v355zM267 53q-26 0 -26 -20q0 -18 22 -24q20 -5 27 -14t7 -30v-57q0 -31 18 -51t50 -20h361q13 0 20.5 9t7.5 22 q0 11 -7.5 20.5t-20.5 9.5h-330q-26 0 -26 27v68h314q38 0 38 48v122q0 41 -37 41h-389q-30 0 -30 -29q0 -12 8 -21.5t22 -9.5h352v-91h-381z" />
<glyph unicode="&#xaf90;" horiz-adv-x="860" d="M258 653q0 19 -10.5 33t-33.5 14h-146q-16 0 -24.5 -8.5t-8.5 -20.5q0 -13 8.5 -22.5t24.5 -9.5h112q0 -15 0.5 -51t0 -51.5t-1.5 -42t-4.5 -49t-9.5 -46.5q-7 -29 13 -34t35 21q16 34 28 94q26 -6 37 -16t11 -36v-101h-239q-15 0 -24 -9t-9 -21t8.5 -21t23.5 -9h310 q70 0 147.5 11.5t113.5 29.5q21 10 19 26.5t-28 10.5q-79 -18 -249 -18v156q0 19 -11 32t-29 13h-73q9 68 9 125zM515 653q0 47 -43 47h-155q-16 0 -24.5 -8.5t-8.5 -20.5q0 -13 8.5 -22.5t24.5 -9.5h122q0 -20 1 -59t1 -62.5t-2.5 -56.5t-7.5 -62q-9 -29 13 -34 q9 -2 19 3.5t15 17.5q37 86 37 267zM745 720q0 19 -11 32t-28 13h-95q-32 0 -32 -23q0 -17 39 -24q29 -5 41 -15.5t12 -38.5v-438h20q54 0 54 94v400zM659 102v-196h-282q3 21 3 27v169h279zM727 -156q11 0 17.5 9.5t6.5 20.5t-6 21t-17 10h-6q10 23 10 70v150q0 15 -8 26.5 t-25 11.5h-421q-31 0 -31 -21q0 -19 27 -26q20 -6 26.5 -14.5t6.5 -34.5v-250h24q9 0 18 8.5t13 18.5h365z" />
<glyph unicode="&#xaf91;" horiz-adv-x="860" d="M258 656q0 19 -10.5 33t-33.5 14h-146q-16 0 -24.5 -8.5t-8.5 -20.5q0 -13 8.5 -22.5t24.5 -9.5h112q0 -16 0.5 -50t0 -48.5t-1.5 -39.5t-4.5 -46t-9.5 -45q-7 -29 13 -34t35 21q16 34 28 89q25 -6 36.5 -16.5t11.5 -35.5v-85h-239q-15 0 -24 -9.5t-9 -20.5 q0 -13 8.5 -21.5t23.5 -8.5h310q71 0 148 11t113 29q21 11 19 27t-28 10q-79 -17 -249 -17v141q0 18 -11 31t-29 13h-73q9 63 9 119zM515 656q0 47 -43 47h-155q-16 0 -24.5 -8.5t-8.5 -20.5q0 -13 8.5 -22.5t24.5 -9.5h122q0 -20 1 -57.5t1 -59t-2.5 -53t-7.5 -60.5 q-9 -29 13 -34q9 -2 19 3.5t15 17.5q37 86 37 257zM745 720q0 19 -11 32t-28 13h-95q-32 0 -32 -23q0 -17 39 -24q28 -5 40.5 -16t12.5 -38v-393h20q54 0 54 94v355zM380 11h279v-104h-279v104zM727 -154q24 0 24 30t-23 30h-6q10 23 10 66v204q0 42 -40 42h-67 q-31 0 -31 -21q0 -18 31 -24q20 -5 27 -12.5t7 -29.5v-60h-279v87q0 41 -36 41h-70q-31 0 -31 -19q0 -20 27 -25q22 -5 29.5 -13.5t7.5 -32.5v-289h17q30 0 40 26h363z" />
<glyph unicode="&#xaf95;" horiz-adv-x="860" d="M258 653q0 19 -10.5 33t-33.5 14h-146q-16 0 -24.5 -8.5t-8.5 -20.5q0 -13 8.5 -22.5t24.5 -9.5h112q0 -15 0.5 -51t0 -51.5t-1.5 -42t-4.5 -49t-9.5 -46.5q-7 -29 13 -34t35 21q16 34 28 94q26 -6 37 -16t11 -36v-101h-239q-15 0 -24 -9t-9 -21t8.5 -21t23.5 -9h310 q70 0 147.5 11.5t113.5 29.5q21 10 19 26.5t-28 10.5q-79 -18 -249 -18v156q0 19 -11 32t-29 13h-73q9 68 9 125zM515 653q0 47 -43 47h-155q-16 0 -24.5 -8.5t-8.5 -20.5q0 -13 8.5 -22.5t24.5 -9.5h122q0 -20 1 -59t1 -62.5t-2.5 -56.5t-7.5 -62q-9 -29 13 -34 q9 -2 19 3.5t15 17.5q37 86 37 267zM745 720q0 19 -11 32t-28 13h-95q-32 0 -32 -23q0 -17 39 -24q29 -5 41 -15.5t12 -38.5v-438h20q54 0 54 94v400zM312 22q0 -79 58.5 -132t147.5 -53q87 0 147 54t60 131q0 78 -60 130.5t-147 52.5q-90 0 -148 -53.5t-58 -129.5zM386 22 q0 51 38 86t94 36q56 -1 94.5 -36.5t38.5 -85.5q0 -49 -38.5 -86.5t-94.5 -36.5q-58 -1 -95 35.5t-37 87.5z" />
<glyph unicode="&#xaf9c;" d="M424 613q0 48 -44 48h-203q-16 0 -24.5 -9t-8.5 -21t8.5 -21.5t24.5 -9.5h170q0 -238 -29 -364q-7 -30 13 -35q23 -6 34 20q7 16 16 47v-184h-314q-13 0 -22 -9t-9 -20q0 -13 8.5 -22.5t22.5 -9.5h782q31 0 31 31q0 11 -8 20.5t-23 9.5h-233v122q4 -4 9 -5q9 -2 19.5 3 t15.5 17q51 115 51 392q0 48 -45 48h-181q-15 0 -23.5 -9t-8.5 -21t8.5 -21.5t24.5 -9.5h146q0 -23 0.5 -75.5t0 -79t-1.5 -66.5t-5 -71.5t-10 -59.5v113q0 20 -11 32.5t-29 12.5h-72q-32 0 -32 -21t28 -26q26 -5 34 -14.5t8 -37.5v-223h-88v247q0 18 -10.5 30.5t-28.5 12.5 h-11q20 125 20 239z" />
<glyph unicode="&#xafb8;" d="M424 649q0 19 -10.5 33t-33.5 14h-203q-15 0 -24 -9t-9 -20q0 -13 8.5 -22.5t24.5 -9.5h170q0 -216 -19 -283q-5 -19 -1 -27h-260q-13 0 -22 -8.5t-9 -19.5q0 -13 8.5 -22t22.5 -9h356v-376h20q23 0 37.5 24t14.5 71v281h354q15 0 23 8.5t8 21.5q0 11 -8 20t-23 9h-190 q5 5 8 11q23 49 33.5 144t10.5 169q0 19 -10.5 33t-34.5 14h-181q-15 0 -23.5 -9t-8.5 -20q0 -13 8.5 -22.5t24.5 -9.5h146q0 -13 0.5 -62t0.5 -77t-3 -70.5t-10 -74.5q-3 -19 0 -26h-253q3 3 7 11q23 51 36.5 148t13.5 165z" />
<glyph unicode="&#xafb9;" d="M424 669q0 47 -44 47h-203q-16 0 -24.5 -8.5t-8.5 -19.5q0 -14 8.5 -23t24.5 -9h170q0 -177 -19 -245q-2 -8 -2 -12h-259q-14 0 -22.5 -9t-8.5 -21t8.5 -21t22.5 -9h356v-141h-203q-9 0 -16 -9.5t-7 -21.5q0 -11 7 -20t16 -9h390v-287h20q22 0 37.5 24.5t15.5 68.5v213 q0 41 -40 41h-160q12 24 12 66v75h354q15 0 23 8.5t8 20.5t-8 21.5t-23 9.5h-181q43 114 43 270q0 47 -45 47h-181q-15 0 -23.5 -8.5t-8.5 -19.5q0 -14 8.5 -23t24.5 -9h146q0 -13 0.5 -56t0 -64t-3.5 -57t-9 -69q-1 -4 -1 -11h-244q23 52 36 130.5t13 139.5z" />
<glyph unicode="&#xafbc;" d="M424 649q0 19 -10.5 33t-33.5 14h-203q-15 0 -24 -9t-9 -20q0 -13 8.5 -22.5t24.5 -9.5h170q0 -216 -19 -283q-3 -11 -3 -19h-258q-13 0 -22 -9.5t-9 -20.5q0 -12 8.5 -21.5t22.5 -9.5h389v-240h21q22 0 37 25t15 72v143h320q15 0 23 9t8 21q0 11 -8.5 21t-22.5 10h-184 l1 1q0 2 1 2q23 49 33.5 144t10.5 169q0 19 -10.5 33t-34.5 14h-181q-15 0 -23.5 -9t-8.5 -20q0 -13 8.5 -22.5t24.5 -9.5h146q0 -13 0.5 -62t0.5 -77t-3 -70.5t-10 -74.5q-2 -13 -1 -18h-246q0 1 1 3q23 51 36.5 148t13.5 165zM247 -67q-1 -49 23 -67.5t78 -18.5h342 q14 0 23 10t9 22t-9.5 21t-23.5 9h-348q-21 0 -21 23v172q0 19 -11.5 31.5t-28.5 12.5h-83q-33 0 -33 -21q0 -11 7.5 -17t28.5 -10q27 -7 37 -16.5t10 -35.5v-115z" />
<glyph unicode="&#xafc0;" d="M424 675q0 48 -44 48h-203q-15 0 -24 -8.5t-9 -20.5q0 -14 8.5 -23t24.5 -9h170v-32v-36t-0.5 -33.5t-1.5 -37t-3 -33.5t-5 -35t-7 -31q-2 -8 -2 -12h-261q-13 0 -22 -9.5t-9 -20.5q0 -13 8.5 -22t22.5 -9h356v-122h-176q-30 0 -30 -29q0 -12 8 -21.5t22 -9.5h372v-101 h-401q-27 0 -27 -21q0 -16 23 -24q20 -6 27 -14t7 -30v-65q0 -31 18 -51t50 -20h381q13 0 21.5 9.5t8.5 21.5q0 11 -8.5 20.5t-21.5 9.5h-351q-25 0 -25 27v77h335q37 0 37 47v134q0 40 -37 40h-174q13 26 13 68v54h354q15 0 23 8.5t8 21.5q0 11 -8.5 21t-22.5 10h-180 q42 91 42 263q0 48 -45 48h-181q-15 0 -23.5 -9t-8.5 -20q0 -14 8.5 -23t24.5 -9h146q0 -18 1 -56t1 -60t-3 -56t-10 -67q-1 -4 -1 -11h-243q23 52 35 127t12 136z" />
<glyph unicode="&#xafc7;" d="M424 675q0 48 -44 48h-203q-15 0 -24 -8.5t-9 -20.5q0 -14 8.5 -23t24.5 -9h170v-32v-36t-0.5 -33.5t-1.5 -37t-3 -33.5t-5 -35t-7 -31q-3 -10 -3 -19h-260q-13 0 -22 -9.5t-9 -20.5q0 -12 8.5 -22t22.5 -10h356v-145h20q18 0 30 15q1 -12 11 -18l46 -32q22 -13 61 -13 h82q14 0 23.5 7t9.5 20q0 33 -35 33q-54 0 -85.5 6t-71.5 25q-14 5 -26 0q7 24 7 53v49h354q15 0 23 9.5t8 21.5q0 11 -8.5 21t-22.5 10h-183q0 1 1 2t1 2q43 91 43 266q0 48 -45 48h-181q-15 0 -23.5 -9t-8.5 -20q0 -14 8.5 -23t24.5 -9h146q0 -18 1 -56t1 -60t-3 -56 t-10 -67q-2 -13 -1 -18h-246q0 1 1 2t1 2q24 52 36 127.5t12 138.5zM138 70q-24 0 -24 -20q0 -15 19 -22q16 -7 21 -15.5t5 -30.5v-64q0 -31 18.5 -51.5t49.5 -20.5h193q13 0 21 10t8 22q0 11 -8 20.5t-21 9.5h-161q-27 0 -27 27v75h136q37 0 37 47v129q0 41 -37 41h-206 q-30 0 -30 -29q0 -12 8 -21.5t22 -9.5h169v-97h-193zM442 96q-13 0 -22 -10t-9 -21q0 -12 8.5 -21t22.5 -9h45q-30 -30 -30 -74q0 -56 39.5 -90.5t102.5 -34.5t103.5 34.5t40.5 91.5q0 41 -30 73h45q14 0 22.5 9t8.5 21t-8.5 21.5t-22.5 9.5h-316zM526 -35q0 29 20 48.5 t53 19.5t53.5 -19t20.5 -49q0 -32 -20.5 -52.5t-53.5 -20.5q-34 0 -53.5 21t-19.5 52z" />
<glyph unicode="&#xafc8;" d="M424 669q0 47 -44 47h-203q-16 0 -24.5 -8.5t-8.5 -19.5q0 -14 8.5 -23t24.5 -9h170q0 -177 -19 -245q-2 -8 -2 -12h-259q-14 0 -22.5 -9t-8.5 -21t8.5 -21t22.5 -9h356v-150h-209q-31 0 -31 -20q0 -19 27 -26q20 -6 26.5 -14.5t6.5 -34.5v-267h24q9 0 18 8t13 18h383 q10 0 16.5 9.5t6.5 20.5q0 12 -6 21.5t-16 9.5h-7q10 21 10 70v167q0 38 -33 38h-174q17 25 17 75v75h354q15 0 23 8.5t8 20.5t-8 21.5t-23 9.5h-181q43 114 43 270q0 47 -45 47h-181q-15 0 -23.5 -8.5t-8.5 -19.5q0 -14 8.5 -23t24.5 -9h146q0 -13 0.5 -56t0 -64t-3.5 -57 t-9 -69q-1 -4 -1 -11h-244q23 52 36 130.5t13 139.5zM612 129v-214h-299q3 21 3 27v187h296z" />
<glyph unicode="&#xafc9;" d="M424 675q0 48 -44 48h-203q-15 0 -24 -8.5t-9 -20.5q0 -14 8.5 -23t24.5 -9h170v-32v-36t-0.5 -33.5t-1.5 -37t-3 -33.5t-5 -35t-7 -31q-2 -8 -2 -12h-261q-13 0 -22 -9.5t-9 -20.5q0 -13 8.5 -22t22.5 -9h356v-151h20q22 0 37 25t15 72v54h354q15 0 23 8.5t8 21.5 q0 11 -8.5 21t-22.5 10h-180q42 91 42 263q0 48 -45 48h-181q-15 0 -23.5 -9t-8.5 -20q0 -14 8.5 -23t24.5 -9h146q0 -18 1 -56t1 -60t-3 -56t-10 -67q-1 -4 -1 -11h-243q23 52 35 127t12 136zM311 20h299v-105h-299v105zM679 -145q11 0 17.5 9t6.5 21q0 11 -6.5 20t-17.5 9 h-6q10 20 10 66v200q0 42 -39 42h-68q-31 0 -31 -21q0 -17 31 -24q21 -5 27.5 -11.5t6.5 -29.5v-56h-299v85q0 41 -37 41h-69q-32 0 -32 -20q0 -19 28 -24q21 -5 29 -14t8 -33v-287h17q30 0 40 27h384z" />
<glyph unicode="&#xafcb;" d="M424 669q0 47 -44 47h-203q-16 0 -24.5 -8.5t-8.5 -19.5q0 -14 8.5 -23t24.5 -9h170q0 -177 -19 -245q-2 -8 -2 -12h-259q-14 0 -22.5 -9t-8.5 -21t8.5 -21t22.5 -9h356v-131h-33q-30 0 -30 -22q0 -19 26 -23t32 -8t4 -15q-12 -60 -89 -140.5t-139 -108.5 q-21 -9 -12.5 -26t32.5 -10q54 17 121.5 66t114.5 109l225 -157q18 -13 37 -6q21 8 24 37q2 20 -23 35l-230 138q21 35 28 67q4 20 -1.5 37.5t-23.5 23.5q9 23 9 59v75h354q15 0 23 8.5t8 20.5t-8 21.5t-23 9.5h-181q43 114 43 270q0 47 -45 47h-181q-15 0 -23.5 -8.5 t-8.5 -19.5q0 -14 8.5 -23t24.5 -9h146q0 -13 0.5 -56t0 -64t-3.5 -57t-9 -69q-1 -4 -1 -11h-244q23 52 36 130.5t13 139.5z" />
<glyph unicode="&#xafcd;" d="M424 669q0 47 -44 47h-203q-16 0 -24.5 -8.5t-8.5 -19.5q0 -14 8.5 -23t24.5 -9h170q0 -177 -19 -245q-2 -8 -2 -12h-259q-14 0 -22.5 -9t-8.5 -21t8.5 -21t22.5 -9h356v-121q-75 -12 -125 -63.5t-50 -122.5q0 -80 61.5 -133.5t147.5 -53.5q85 0 147 53.5t62 133.5 q0 74 -50.5 125t-125.5 61q5 22 5 46v75h354q15 0 23 8.5t8 20.5t-8 21.5t-23 9.5h-181q43 114 43 270q0 47 -45 47h-181q-15 0 -23.5 -8.5t-8.5 -19.5q0 -14 8.5 -23t24.5 -9h146q0 -13 0.5 -56t0 -64t-3.5 -57t-9 -69q-1 -4 -1 -11h-244q23 52 36 130.5t13 139.5zM323 32 q0 54 40 90.5t94 36.5t94 -37t40 -90t-40 -89t-94 -36q-55 0 -94.5 35.5t-39.5 89.5z" />
</font>
</defs>
</svg>
